{
.appVersion = "1230";
DisplayStrings = (
"noHO/guilsinglright"
);
copyright = "-";
customParameters = (
{
name = macintoshFONDName;
value = "Comic Neue";
},
{
name = note;
value = "";
},
{
name = openTypeNameLicense;
value = "Licensed under the SIL Open Font License. Version 1.1.";
},
{
name = openTypeNameLicenseURL;
value = "http://scripts.sil.org/OFL";
},
{
name = openTypeNameUniqueID;
value = "2.003;;Comic Neue Regular";
},
{
name = openTypeNameVersion;
value = "Version 2.003";
},
{
name = codePageRanges;
value = (
1252,
1250
);
},
{
name = openTypeOS2FamilyClass;
value = (
0,
0
);
},
{
name = openTypeOS2Panose;
value = (
2,
0,
0,
0,
0,
0,
0,
0,
0,
0
);
},
{
name = openTypeOS2StrikeoutPosition;
value = 300;
},
{
name = openTypeOS2StrikeoutSize;
value = 50;
},
{
name = openTypeOS2SubscriptXOffset;
value = 0;
},
{
name = openTypeOS2SubscriptXSize;
value = 650;
},
{
name = openTypeOS2SubscriptYOffset;
value = 75;
},
{
name = openTypeOS2SubscriptYSize;
value = 600;
},
{
name = openTypeOS2SuperscriptXOffset;
value = 0;
},
{
name = openTypeOS2SuperscriptXSize;
value = 650;
},
{
name = openTypeOS2SuperscriptYOffset;
value = 350;
},
{
name = openTypeOS2SuperscriptYSize;
value = 600;
},
{
name = fsType;
value = (
);
},
{
name = unicodeRanges;
value = (
0,
1,
2
);
},
{
name = vendorID;
value = "    ";
},
{
name = blueFuzz;
value = 1;
},
{
name = blueScale;
value = 0.03963;
},
{
name = blueShift;
value = 7;
},
{
name = postscriptForceBold;
value = 0;
},
{
name = trademark;
value = "-";
}
);
date = "2016-09-14 09:28:12 +0000";
designer = "Craig Rozynski";
designerURL = "http://www.craigrozynski.com";
disablesNiceNames = 1;
familyName = "Comic Neue";
featurePrefixes = (
{
code = "languagesystem DFLT dflt;\012languagesystem latn dflt;\012";
name = Languagesystems;
},
{

glyphs = (
{
glyphname = A;
layers = (
{
layerId = master01;
paths = (
{
closed = 1;
nodes = (
"572 37 LINE SMOOTH",
"573 34 OFFCURVE",
"573 31 OFFCURVE",
"573 28 CURVE SMOOTH",
"573 13 OFFCURVE",
"562 -1 OFFCURVE",
"545 -1 CURVE SMOOTH",
"533 -1 OFFCURVE",
"522 6 OFFCURVE",
"518 18 CURVE SMOOTH",
"434 262 LINE",
"179 206 LINE",
"105 18 LINE SMOOTH",
"101 7 OFFCURVE",
"90 0 OFFCURVE",
"79 0 CURVE SMOOTH",
"62 0 OFFCURVE",
"50 15 OFFCURVE",
"50 29 CURVE SMOOTH",
"50 32 OFFCURVE",
"51 36 OFFCURVE",
"52 39 CURVE SMOOTH",
"112 192 LINE",
"96 188 OFFCURVE",
"94 188 OFFCURVE",
"92 188 CURVE SMOOTH",
"76 188 OFFCURVE",
"63 200 OFFCURVE",
"63 217 CURVE SMOOTH",
"63 230 OFFCURVE",
"72 241 OFFCURVE",
"85 244 CURVE SMOOTH",
"137 256 LINE",
"300 671 LINE SMOOTH",
"305 682 OFFCURVE",
"316 689 OFFCURVE",
"328 689 CURVE SMOOTH",
"339 689 OFFCURVE",
"350 681 OFFCURVE",
"354 670 CURVE SMOOTH"
);
},
{
closed = 1;
nodes = (
"415 316 LINE",
"325 578 LINE",
"204 270 LINE"
);
}
);
userData = {
com.fontlab.hintData = {
hhints = (
{
position = 0;
width = 20;
},
{
position = 188;
width = 56;
},
{
position = 669;
width = 20;
}
);
vhints = (
{
position = 50;
width = 55;
},
{
position = 518;
width = 55;
}
);
};
};
width = 624;
}
);
unicode = 0041;
},
{
glyphname = Aacute;
layers = (
{
layerId = master01;
paths = (
{
closed = 1;
nodes = (
"293 741 LINE SMOOTH",
"286 736 OFFCURVE",
"278 732 OFFCURVE",
"272 732 CURVE SMOOTH",
"258 732 OFFCURVE",
"246 744 OFFCURVE",
"246 759 CURVE SMOOTH",
"246 765 OFFCURVE",
"247 772 OFFCURVE",
"252 776 CURVE SMOOTH",
"378 879 LINE SMOOTH",
"386 886 OFFCURVE",
"396 894 OFFCURVE",
"407 894 CURVE SMOOTH",
"426 894 OFFCURVE",
"441 878 OFFCURVE",
"441 858 CURVE SMOOTH",
"441 849 OFFCURVE",
"438 840 OFFCURVE",
"431 835 CURVE SMOOTH"
);
},
{
closed = 1;
nodes = (
"572 37 LINE SMOOTH",
"573 34 OFFCURVE",
"573 31 OFFCURVE",
"573 28 CURVE SMOOTH",
"573 13 OFFCURVE",
"562 -1 OFFCURVE",
"545 -1 CURVE SMOOTH",
"533 -1 OFFCURVE",
"522 6 OFFCURVE",
"518 18 CURVE SMOOTH",
"434 262 LINE",
"179 206 LINE",
"105 18 LINE SMOOTH",
"101 7 OFFCURVE",
"90 0 OFFCURVE",
"79 0 CURVE SMOOTH",
"62 0 OFFCURVE",
"50 15 OFFCURVE",
"50 29 CURVE SMOOTH",
"50 32 OFFCURVE",
"51 36 OFFCURVE",
"52 39 CURVE SMOOTH",
"112 192 LINE",
"96 188 OFFCURVE",
"94 188 OFFCURVE",
"92 188 CURVE SMOOTH",
"76 188 OFFCURVE",
"63 200 OFFCURVE",
"63 217 CURVE SMOOTH",
"63 230 OFFCURVE",
"72 241 OFFCURVE",
"85 244 CURVE SMOOTH",
"137 256 LINE",
"300 671 LINE SMOOTH",
"305 682 OFFCURVE",
"316 689 OFFCURVE",
"328 689 CURVE SMOOTH",
"339 689 OFFCURVE",
"350 681 OFFCURVE",
"354 670 CURVE SMOOTH"
);
},
{
closed = 1;
nodes = (
"415 316 LINE",
"325 578 LINE",
"204 270 LINE"
);
}
);
userData = {
com.fontlab.hintData = {
hhints = (
{
position = 0;
width = 20;
},
{
position = 188;
width = 56;
},
{
position = 669;
width = 20;
}
);
vhints = (
{
position = 50;
width = 55;
},
{
position = 518;
width = 55;
}
);
};
};
width = 624;
}
);
unicode = 00C1;
},
{
glyphname = Abreve;
layers = (
{
layerId = master01;
paths = (
{
closed = 1;
nodes = (
"163 860 OFFCURVE",
"165 871 OFFCURVE",
"180 871 CURVE SMOOTH",
"191 871 OFFCURVE",
"199 860 OFFCURVE",
"203 853 CURVE SMOOTH",
"228 803 OFFCURVE",
"286 786 OFFCURVE",
"323 786 CURVE SMOOTH",
"374 786 OFFCURVE",
"409 806 OFFCURVE",
"429 855 CURVE SMOOTH",
"434 867 OFFCURVE",
"439 876 OFFCURVE",
"452 876 CURVE SMOOTH",
"461 876 OFFCURVE",
"469 868 OFFCURVE",
"469 859 CURVE SMOOTH",
"469 814 OFFCURVE",
"416 740 OFFCURVE",
"321 740 CURVE SMOOTH",
"203 740 OFFCURVE",
"163 831 OFFCURVE",
"163 852 CURVE SMOOTH"
);
},
{
closed = 1;
nodes = (
"572 37 LINE SMOOTH",
"573 34 OFFCURVE",
"573 31 OFFCURVE",
"573 28 CURVE SMOOTH",
"573 13 OFFCURVE",
"562 -1 OFFCURVE",
"545 -1 CURVE SMOOTH",
"533 -1 OFFCURVE",
"522 6 OFFCURVE",
"518 18 CURVE SMOOTH",
"434 262 LINE",
"179 206 LINE",
"105 18 LINE SMOOTH",
"101 7 OFFCURVE",
"90 0 OFFCURVE",
"79 0 CURVE SMOOTH",
"62 0 OFFCURVE",
"50 15 OFFCURVE",
"50 29 CURVE SMOOTH",
"50 32 OFFCURVE",
"51 36 OFFCURVE",
"52 39 CURVE SMOOTH",
"112 192 LINE",
"96 188 OFFCURVE",
"94 188 OFFCURVE",
"92 188 CURVE SMOOTH",
"76 188 OFFCURVE",
"63 200 OFFCURVE",
"63 217 CURVE SMOOTH",
"63 230 OFFCURVE",
"72 241 OFFCURVE",
"85 244 CURVE SMOOTH",
"137 256 LINE",
"300 671 LINE SMOOTH",
"305 682 OFFCURVE",
"316 689 OFFCURVE",
"328 689 CURVE SMOOTH",
"339 689 OFFCURVE",
"350 681 OFFCURVE",
"354 670 CURVE SMOOTH"
);
},
{
closed = 1;
nodes = (
"415 316 LINE",
"325 578 LINE",
"204 270 LINE"
);
}
);
userData = {
com.fontlab.hintData = {
hhints = (
{
position = 0;
width = 20;
},
{
position = 188;
width = 56;
},
{
position = 669;
width = 20;
},
{
position = 740;
width = 46;
}
);
vhints = (
{
position = 50;
width = 55;
},
{
position = 163;
width = 40;
},
{
position = 518;
width = 55;
}
);
};
};
width = 624;
}
);
unicode = 0102;
},
{
glyphname = Acircumflex;
layers = (
{
layerId = master01;
paths = (
{
closed = 1;
nodes = (
"466 777 LINE SMOOTH",
"472 772 OFFCURVE",
"475 765 OFFCURVE",
"475 757 CURVE SMOOTH",
"475 743 OFFCURVE",
"463 731 OFFCURVE",
"449 731 CURVE SMOOTH",
"442 731 OFFCURVE",
"435 733 OFFCURVE",
"430 738 CURVE SMOOTH",
"334 825 LINE",
"219 736 LINE SMOOTH",
"214 732 OFFCURVE",
"208 731 OFFCURVE",
"202 731 CURVE SMOOTH",
"188 731 OFFCURVE",
"176 742 OFFCURVE",
"176 757 CURVE SMOOTH",
"176 765 OFFCURVE",
"179 773 OFFCURVE",
"186 778 CURVE SMOOTH",
"317 888 LINE SMOOTH",
"323 893 OFFCURVE",
"330 895 OFFCURVE",
"336 895 CURVE SMOOTH",
"343 895 OFFCURVE",
"350 892 OFFCURVE",
"356 887 CURVE SMOOTH"
);
},
{
closed = 1;
nodes = (
"572 37 LINE SMOOTH",
"573 34 OFFCURVE",
"573 31 OFFCURVE",
"573 28 CURVE SMOOTH",
"573 13 OFFCURVE",
"562 -1 OFFCURVE",
"545 -1 CURVE SMOOTH",
"533 -1 OFFCURVE",
"522 6 OFFCURVE",
"518 18 CURVE SMOOTH",
"434 262 LINE",
"179 206 LINE",
"105 18 LINE SMOOTH",
"101 7 OFFCURVE",
"90 0 OFFCURVE",
"79 0 CURVE SMOOTH",
"62 0 OFFCURVE",
"50 15 OFFCURVE",
"50 29 CURVE SMOOTH",
"50 32 OFFCURVE",
"51 36 OFFCURVE",
"52 39 CURVE SMOOTH",
"112 192 LINE",
"96 188 OFFCURVE",
"94 188 OFFCURVE",
"92 188 CURVE SMOOTH",
"76 188 OFFCURVE",
"63 200 OFFCURVE",
"63 217 CURVE SMOOTH",
"63 230 OFFCURVE",
"72 241 OFFCURVE",
"85 244 CURVE SMOOTH",
"137 256 LINE",
"300 671 LINE SMOOTH",
"305 682 OFFCURVE",
"316 689 OFFCURVE",
"328 689 CURVE SMOOTH",
"339 689 OFFCURVE",
"350 681 OFFCURVE",
"354 670 CURVE SMOOTH"
);
},
{
closed = 1;
nodes = (
"415 316 LINE",
"325 578 LINE",
"204 270 LINE"
);
}
);
userData = {
com.fontlab.hintData = {
hhints = (
{
position = 0;
width = 20;
},
{
position = 188;
width = 56;
},
{
position = 669;
width = 20;
}
);
vhints = (
{
position = 50;
width = 55;
},
{
position = 518;
width = 55;
}
);
};
};
width = 624;
}
);
unicode = 00C2;
},
{
glyphname = Adieresis;
layers = (
{
layerId = master01;
paths = (
{
closed = 1;
nodes = (
"294 753 OFFCURVE",
"272 733 OFFCURVE",
"243 733 CURVE SMOOTH",
"218 733 OFFCURVE",
"198 749 OFFCURVE",
"198 772 CURVE SMOOTH",
"198 795 OFFCURVE",
"221 816 OFFCURVE",
"249 816 CURVE SMOOTH",
"272 816 OFFCURVE",
"294 799 OFFCURVE",
"294 777 CURVE SMOOTH"
);
},
{
closed = 1;
nodes = (
"453 753 OFFCURVE",
"431 733 OFFCURVE",
"402 733 CURVE SMOOTH",
"377 733 OFFCURVE",
"357 749 OFFCURVE",
"357 772 CURVE SMOOTH",
"357 795 OFFCURVE",
"380 816 OFFCURVE",
"408 816 CURVE SMOOTH",
"431 816 OFFCURVE",
"453 799 OFFCURVE",
"453 777 CURVE SMOOTH"
);
},
{
closed = 1;
nodes = (
"572 37 LINE SMOOTH",
"573 34 OFFCURVE",
"573 31 OFFCURVE",
"573 28 CURVE SMOOTH",
"573 13 OFFCURVE",
"562 -1 OFFCURVE",
"545 -1 CURVE SMOOTH",
"533 -1 OFFCURVE",
"522 6 OFFCURVE",
"518 18 CURVE SMOOTH",
"434 262 LINE",
"179 206 LINE",
"105 18 LINE SMOOTH",
"101 7 OFFCURVE",
"90 0 OFFCURVE",
"79 0 CURVE SMOOTH",
"62 0 OFFCURVE",
"50 15 OFFCURVE",
"50 29 CURVE SMOOTH",
"50 32 OFFCURVE",
"51 36 OFFCURVE",
"52 39 CURVE SMOOTH",
"112 192 LINE",
"96 188 OFFCURVE",
"94 188 OFFCURVE",
"92 188 CURVE SMOOTH",
"76 188 OFFCURVE",
"63 200 OFFCURVE",
"63 217 CURVE SMOOTH",
"63 230 OFFCURVE",
"72 241 OFFCURVE",
"85 244 CURVE SMOOTH",
"137 256 LINE",
"300 671 LINE SMOOTH",
"305 682 OFFCURVE",
"316 689 OFFCURVE",
"328 689 CURVE SMOOTH",
"339 689 OFFCURVE",
"350 681 OFFCURVE",
"354 670 CURVE SMOOTH"
);
},
{
closed = 1;
nodes = (
"415 316 LINE",
"325 578 LINE",
"204 270 LINE"
);
}
);
userData = {
com.fontlab.hintData = {
hhints = (
{
position = 0;
width = 20;
},
{
position = 188;
width = 56;
},
{
position = 669;
width = 20;
},
{
position = 733;
width = 83;
}
);
vhints = (
{
position = 50;
width = 55;
},
{
position = 198;
width = 96;
},
{
position = 357;
width = 96;
},
{
position = 518;
width = 55;
}
);
};
};
width = 624;
}
);
unicode = 00C4;
},
{
glyphname = Agrave;
layers = (
{
layerId = master01;
paths = (
{
closed = 1;
nodes = (
"229 846 LINE SMOOTH",
"222 853 OFFCURVE",
"218 861 OFFCURVE",
"218 871 CURVE SMOOTH",
"218 889 OFFCURVE",
"235 905 OFFCURVE",
"253 905 CURVE SMOOTH",
"264 905 OFFCURVE",
"275 898 OFFCURVE",
"282 890 CURVE SMOOTH",
"387 760 LINE SMOOTH",
"392 753 OFFCURVE",
"394 748 OFFCURVE",
"394 742 CURVE SMOOTH",
"394 727 OFFCURVE",
"380 716 OFFCURVE",
"366 716 CURVE SMOOTH",
"358 716 OFFCURVE",
"352 720 OFFCURVE",
"347 725 CURVE SMOOTH"
);
},
{
closed = 1;
nodes = (
"572 37 LINE SMOOTH",
"573 34 OFFCURVE",
"573 31 OFFCURVE",
"573 28 CURVE SMOOTH",
"573 13 OFFCURVE",
"562 -1 OFFCURVE",
"545 -1 CURVE SMOOTH",
"533 -1 OFFCURVE",
"522 6 OFFCURVE",
"518 18 CURVE SMOOTH",
"434 262 LINE",
"179 206 LINE",
"105 18 LINE SMOOTH",
"101 7 OFFCURVE",
"90 0 OFFCURVE",
"79 0 CURVE SMOOTH",
"62 0 OFFCURVE",
"50 15 OFFCURVE",
"50 29 CURVE SMOOTH",
"50 32 OFFCURVE",
"51 36 OFFCURVE",
"52 39 CURVE SMOOTH",
"112 192 LINE",
"96 188 OFFCURVE",
"94 188 OFFCURVE",
"92 188 CURVE SMOOTH",
"76 188 OFFCURVE",
"63 200 OFFCURVE",
"63 217 CURVE SMOOTH",
"63 230 OFFCURVE",
"72 241 OFFCURVE",
"85 244 CURVE SMOOTH",
"137 256 LINE",
"300 671 LINE SMOOTH",
"305 682 OFFCURVE",
"316 689 OFFCURVE",
"328 689 CURVE SMOOTH",
"339 689 OFFCURVE",
"350 681 OFFCURVE",
"354 670 CURVE SMOOTH"
);
},
{
closed = 1;
nodes = (
"415 316 LINE",
"325 578 LINE",
"204 270 LINE"
);
}
);
userData = {
com.fontlab.hintData = {
hhints = (
{
position = 0;
width = 20;
},
{
position = 188;
width = 56;
},
{
position = 669;
width = 20;
}
);
vhints = (
{
position = 50;
width = 55;
},
{
position = 518;
width = 55;
}
);
};
};
width = 624;
}
);
unicode = 00C0;
},
{
glyphname = Aogonek;
layers = (
{
layerId = master01;
paths = (
{
closed = 1;
nodes = (
"484 -200 OFFCURVE",
"440 -158 OFFCURVE",
"440 -100 CURVE SMOOTH",
"440 -48 OFFCURVE",
"477 -7 OFFCURVE",
"517 21 CURVE",
"434 262 LINE",
"179 206 LINE",
"105 18 LINE SMOOTH",
"101 7 OFFCURVE",
"90 0 OFFCURVE",
"79 0 CURVE SMOOTH",
"62 0 OFFCURVE",
"50 15 OFFCURVE",
"50 29 CURVE SMOOTH",
"50 32 OFFCURVE",
"51 36 OFFCURVE",
"52 39 CURVE SMOOTH",
"112 192 LINE",
"96 188 OFFCURVE",
"94 188 OFFCURVE",
"92 188 CURVE SMOOTH",
"76 188 OFFCURVE",
"63 200 OFFCURVE",
"63 217 CURVE SMOOTH",
"63 230 OFFCURVE",
"72 241 OFFCURVE",
"85 244 CURVE SMOOTH",
"137 256 LINE",
"300 671 LINE SMOOTH",
"305 682 OFFCURVE",
"316 689 OFFCURVE",
"328 689 CURVE SMOOTH",
"339 689 OFFCURVE",
"350 681 OFFCURVE",
"354 670 CURVE SMOOTH",
"570 42 LINE SMOOTH",
"571.782 36.653 OFFCURVE",
"572.584 31.855 OFFCURVE",
"572.584 27.497 CURVE SMOOTH",
"572.584 9.851 OFFCURVE",
"559.435 -0.575 OFFCURVE",
"545 -11 CURVE SMOOTH",
"519 -30 OFFCURVE",
"482 -57 OFFCURVE",
"482 -101 CURVE SMOOTH",
"482 -135 OFFCURVE",
"509 -158 OFFCURVE",
"543 -158 CURVE SMOOTH",
"563 -158 OFFCURVE",
"585 -151 OFFCURVE",
"605 -135 CURVE SMOOTH",
"609 -132 OFFCURVE",
"613 -131 OFFCURVE",
"618 -131 CURVE SMOOTH",
"628 -131 OFFCURVE",
"639 -141 OFFCURVE",
"639 -152 CURVE SMOOTH",
"639 -181 OFFCURVE",
"571 -201 OFFCURVE",
"543 -201 CURVE SMOOTH"
);
},
{
closed = 1;
nodes = (
"415 316 LINE",
"325 578 LINE",
"204 270 LINE"
);
}
);
userData = {
com.fontlab.hintData = {
hhints = (
{
position = -201;
width = 43;
},
{
position = 0;
width = 21;
},
{
position = 188;
width = 56;
},
{
position = 669;
width = 20;
}
);
vhints = (
{
position = 50;
width = 55;
},
{
position = 440;
width = 42;
}
);
};
};
width = 624;
}
);
unicode = 0104;
},
{
glyphname = Aring;
layers = (
{
layerId = master01;
paths = (
{
closed = 1;
nodes = (
"260 721 OFFCURVE",
"208 766 OFFCURVE",
"208 823 CURVE SMOOTH",
"208 891 OFFCURVE",
"276 940 OFFCURVE",
"344 940 CURVE SMOOTH",
"404 940 OFFCURVE",
"457 895 OFFCURVE",
"457 837 CURVE SMOOTH",
"457 768 OFFCURVE",
"389 721 OFFCURVE",
"322 721 CURVE SMOOTH"
);
},
{
closed = 1;
nodes = (
"286 893 OFFCURVE",
"250 853 OFFCURVE",
"250 823 CURVE SMOOTH",
"250 788 OFFCURVE",
"285 767 OFFCURVE",
"331 767 CURVE SMOOTH",
"366 767 OFFCURVE",
"415 793 OFFCURVE",
"415 835 CURVE SMOOTH",
"415 864 OFFCURVE",
"383 893 OFFCURVE",
"340 893 CURVE SMOOTH"
);
},
{
closed = 1;
nodes = (
"572 37 LINE SMOOTH",
"573 34 OFFCURVE",
"573 31 OFFCURVE",
"573 28 CURVE SMOOTH",
"573 13 OFFCURVE",
"562 -1 OFFCURVE",
"545 -1 CURVE SMOOTH",
"533 -1 OFFCURVE",
"522 6 OFFCURVE",
"518 18 CURVE SMOOTH",
"434 262 LINE",
"179 206 LINE",
"105 18 LINE SMOOTH",
"101 7 OFFCURVE",
"90 0 OFFCURVE",
"79 0 CURVE SMOOTH",
"62 0 OFFCURVE",
"50 15 OFFCURVE",
"50 29 CURVE SMOOTH",
"50 32 OFFCURVE",
"51 36 OFFCURVE",
"52 39 CURVE SMOOTH",
"112 192 LINE",
"96 188 OFFCURVE",
"94 188 OFFCURVE",
"92 188 CURVE SMOOTH",
"76 188 OFFCURVE",
"63 200 OFFCURVE",
"63 217 CURVE SMOOTH",
"63 230 OFFCURVE",
"72 241 OFFCURVE",
"85 244 CURVE SMOOTH",
"137 256 LINE",
"300 671 LINE SMOOTH",
"305 682 OFFCURVE",
"316 689 OFFCURVE",
"328 689 CURVE SMOOTH",
"339 689 OFFCURVE",
"350 681 OFFCURVE",
"354 670 CURVE SMOOTH"
);
},
{
closed = 1;
nodes = (
"415 316 LINE",
"325 578 LINE",
"204 270 LINE"
);
}
);
userData = {
com.fontlab.hintData = {
hhints = (
{
position = 0;
width = 20;
},
{
position = 188;
width = 56;
},
{
position = 669;
width = 20;
},
{
position = 721;
width = 46;
},
{
position = 893;
width = 47;
}
);
vhints = (
{
position = 50;
width = 55;
},
{
position = 208;
width = 42;
},
{
position = 415;
width = 42;
},
{
position = 518;
width = 55;
}
);
};
};
width = 624;
}
);
unicode = 00C5;
},
{
glyphname = Atilde;
layers = (
{
layerId = master01;
paths = (
{
closed = 1;
nodes = (
"456 843 OFFCURVE",
"466 850 OFFCURVE",
"476 850 CURVE SMOOTH",
"490 850 OFFCURVE",
"502 839 OFFCURVE",
"502 826 CURVE SMOOTH",
"502 821 OFFCURVE",
"501 818 OFFCURVE",
"499 812 CURVE SMOOTH",
"488 781 OFFCURVE",
"457 713 OFFCURVE",
"392 713 CURVE SMOOTH",
"347 713 OFFCURVE",
"323 745 OFFCURVE",
"303 773 CURVE SMOOTH",
"284 799 OFFCURVE",
"273 821 OFFCURVE",
"256 821 CURVE SMOOTH",
"243 821 OFFCURVE",
"217 804 OFFCURVE",
"201 755 CURVE SMOOTH",
"197 742 OFFCURVE",
"188 736 OFFCURVE",
"176 736 CURVE SMOOTH",
"162 736 OFFCURVE",
"150 747 OFFCURVE",
"150 761 CURVE SMOOTH",
"150 776 OFFCURVE",
"160 793 OFFCURVE",
"166 804 CURVE SMOOTH",
"188 842 OFFCURVE",
"219 863 OFFCURVE",
"256 863 CURVE SMOOTH",
"301 863 OFFCURVE",
"325 830 OFFCURVE",
"345 803 CURVE SMOOTH",
"364 777 OFFCURVE",
"375 755 OFFCURVE",
"392 755 CURVE SMOOTH",
"422 755 OFFCURVE",
"441 804 OFFCURVE",
"452 833 CURVE SMOOTH"
);
},
{
closed = 1;
nodes = (
"572 37 LINE SMOOTH",
"573 34 OFFCURVE",
"573 31 OFFCURVE",
"573 28 CURVE SMOOTH",
"573 13 OFFCURVE",
"562 -1 OFFCURVE",
"545 -1 CURVE SMOOTH",
"533 -1 OFFCURVE",
"522 6 OFFCURVE",
"518 18 CURVE SMOOTH",
"434 262 LINE",
"179 206 LINE",
"105 18 LINE SMOOTH",
"101 7 OFFCURVE",
"90 0 OFFCURVE",
"79 0 CURVE SMOOTH",
"62 0 OFFCURVE",
"50 15 OFFCURVE",
"50 29 CURVE SMOOTH",
"50 32 OFFCURVE",
"51 36 OFFCURVE",
"52 39 CURVE SMOOTH",
"112 192 LINE",
"96 188 OFFCURVE",
"94 188 OFFCURVE",
"92 188 CURVE SMOOTH",
"76 188 OFFCURVE",
"63 200 OFFCURVE",
"63 217 CURVE SMOOTH",
"63 230 OFFCURVE",
"72 241 OFFCURVE",
"85 244 CURVE SMOOTH",
"137 256 LINE",
"300 671 LINE SMOOTH",
"305 682 OFFCURVE",
"316 689 OFFCURVE",
"328 689 CURVE SMOOTH",
"339 689 OFFCURVE",
"350 681 OFFCURVE",
"354 670 CURVE SMOOTH"
);
},
{
closed = 1;
nodes = (
"415 316 LINE",
"325 578 LINE",
"204 270 LINE"
);
}
);
userData = {
com.fontlab.hintData = {
hhints = (
{
position = 0;
width = 20;
},
{
position = 188;
width = 56;
},
{
position = 669;
width = 20;
},
{
position = 713;
width = 42;
},
{
position = 821;
width = 42;
}
);
vhints = (
{
position = 50;
width = 55;
},
{
position = 150;
width = 51;
},
{
position = 452;
width = 50;
},
{
position = 518;
width = 55;
}
);
};
};
width = 624;
}
);
unicode = 00C3;
},
{
glyphname = AE;
layers = (
{
layerId = master01;
paths = (
{
closed = 1;
nodes = (
"953 54 LINE SMOOTH",
"969 54 OFFCURVE",
"980 43 OFFCURVE",
"980 27 CURVE SMOOTH",
"980 12 OFFCURVE",
"969 0 OFFCURVE",
"953 0 CURVE SMOOTH",
"524 0 LINE SMOOTH",
"509 0 OFFCURVE",
"497 12 OFFCURVE",
"497 27 CURVE SMOOTH",
"497 304 LINE",
"276 258 LINE",
"99 8 LINE SMOOTH",
"94 1 OFFCURVE",
"85 -3 OFFCURVE",
"77 -3 CURVE SMOOTH",
"63 -3 OFFCURVE",
"50 10 OFFCURVE",
"50 23 CURVE SMOOTH",
"50 29 OFFCURVE",
"51 34 OFFCURVE",
"55 39 CURVE SMOOTH",
"199 243 LINE",
"180 239 LINE SMOOTH",
"178.697 238.739 OFFCURVE",
"177.408 238.615 OFFCURVE",
"176.142 238.615 CURVE SMOOTH",
"162.839 238.615 OFFCURVE",
"152 252.39 OFFCURVE",
"152 267 CURVE SMOOTH",
"152 280 OFFCURVE",
"161 290 OFFCURVE",
"175 293 CURVE SMOOTH",
"245 307 LINE",
"502 670 LINE SMOOTH",
"505 675 OFFCURVE",
"512 681 OFFCURVE",
"521 681 CURVE SMOOTH",
"953 681 LINE SMOOTH",
"969 681 OFFCURVE",
"980 670 OFFCURVE",
"980 654 CURVE SMOOTH",
"980 640 OFFCURVE",
"969 627 OFFCURVE",
"953 627 CURVE SMOOTH",
"551 627 LINE",
"551 364 LINE",
"903 364 LINE SMOOTH",
"918 364 OFFCURVE",
"930 351 OFFCURVE",
"930 337 CURVE SMOOTH",
"930 321 OFFCURVE",
"918 309 OFFCURVE",
"903 309 CURVE SMOOTH",
"551 310 LINE",
"551 54 LINE"
);
},
{
closed = 1;
nodes = (
"497 359 LINE",
"497 569 LINE",
"323 323 LINE"
);
}
);
userData = {
com.fontlab.hintData = {
hhints = (
{
position = 0;
width = 54;
},
{
position = 310;
width = 54;
},
{
position = 627;
width = 54;
}
);
vhints = (
{
position = 497;
width = 54;
}
);
};
};
width = 1040;
}
);
unicode = 00C6;
},
{
glyphname = B;
layers = (
{
layerId = master01;
paths = (
{
closed = 1;
nodes = (
"81 -2 OFFCURVE",
"65 4 OFFCURVE",
"65 32 CURVE SMOOTH",
"65 653 LINE SMOOTH",
"65 668 OFFCURVE",
"78 681 OFFCURVE",
"93 681 CURVE SMOOTH",
"275 681 LINE SMOOTH",
"472 681 OFFCURVE",
"494 543 OFFCURVE",
"494 513 CURVE SMOOTH",
"494 439 OFFCURVE",
"459 395 OFFCURVE",
"424 370 CURVE",
"507 341 OFFCURVE",
"553 286 OFFCURVE",
"553 204 CURVE SMOOTH",
"553 74 OFFCURVE",
"408 -2 OFFCURVE",
"104 -2 CURVE SMOOTH"
);
},
{
closed = 1;
nodes = (
"122 54 LINE",
"325 54 OFFCURVE",
"497 99 OFFCURVE",
"497 204 CURVE SMOOTH",
"497 294 OFFCURVE",
"404 330 OFFCURVE",
"328 330 CURVE SMOOTH",
"122 330 LINE"
);
},
{
closed = 1;
nodes = (
"122 387 LINE",
"318 387 LINE SMOOTH",
"387 387 OFFCURVE",
"438 448 OFFCURVE",
"438 510 CURVE SMOOTH",
"438 528 OFFCURVE",
"427 624 OFFCURVE",
"275 624 CURVE SMOOTH",
"122 624 LINE"
);
}
);
userData = {
com.fontlab.hintData = {
hhints = (
{
position = -2;
width = 56;
},
{
position = 330;
width = 57;
},
{
position = 624;
width = 57;
}
);
vhints = (
{
position = 65;
width = 57;
},
{
position = 438;
width = 56;
},
{
position = 497;
width = 56;
}
);
};
};
width = 603;
}
);
unicode = 0042;
},
{
glyphname = C;
layers = (
{
layerId = master01;
paths = (
{
closed = 1;
nodes = (
"567 161 OFFCURVE",
"581 151 OFFCURVE",
"581 133 CURVE SMOOTH",
"581 127 OFFCURVE",
"580 121 OFFCURVE",
"576 116 CURVE SMOOTH",
"519 40 OFFCURVE",
"434 -2 OFFCURVE",
"338 -2 CURVE SMOOTH",
"181 -2 OFFCURVE",
"50 126 OFFCURVE",
"50 296 CURVE SMOOTH",
"50 500 OFFCURVE",
"208 684 OFFCURVE",
"346 684 CURVE SMOOTH",
"415 684 OFFCURVE",
"461 664 OFFCURVE",
"492 644 CURVE",
"496 653 OFFCURVE",
"506 659 OFFCURVE",
"517 659 CURVE SMOOTH",
"533 659 OFFCURVE",
"545 647 OFFCURVE",
"545 631 CURVE SMOOTH",
"545 567 LINE SMOOTH",
"545 551 OFFCURVE",
"533 538 OFFCURVE",
"517 538 CURVE SMOOTH",
"501 538 OFFCURVE",
"488 551 OFFCURVE",
"488 567 CURVE SMOOTH",
"488 572 LINE",
"468 593 OFFCURVE",
"431 627 OFFCURVE",
"346 627 CURVE SMOOTH",
"234 627 OFFCURVE",
"107 460 OFFCURVE",
"107 296 CURVE SMOOTH",
"107 124 OFFCURVE",
"248 55 OFFCURVE",
"338 55 CURVE SMOOTH",
"410 55 OFFCURVE",
"477 81 OFFCURVE",
"530 150 CURVE SMOOTH",
"537 159 OFFCURVE",
"544 161 OFFCURVE",
"552 161 CURVE SMOOTH"
);
}
);
userData = {
com.fontlab.hintData = {
hhints = (
{
position = -2;
width = 57;
},
{
position = 538;
width = 121;
},
{
position = 627;
width = 57;
}
);
vhints = (
{
position = 50;
width = 57;
},
{
position = 488;
width = 57;
}
);
};
};
width = 632;
}
);
unicode = 0043;
},
{
glyphname = Cacute;
layers = (
{
layerId = master01;
paths = (
{
closed = 1;
nodes = (
"567 161 OFFCURVE",
"581 151 OFFCURVE",
"581 133 CURVE SMOOTH",
"581 127 OFFCURVE",
"580 121 OFFCURVE",
"576 116 CURVE SMOOTH",
"519 40 OFFCURVE",
"434 -2 OFFCURVE",
"338 -2 CURVE SMOOTH",
"181 -2 OFFCURVE",
"50 126 OFFCURVE",
"50 296 CURVE SMOOTH",
"50 500 OFFCURVE",
"208 684 OFFCURVE",
"346 684 CURVE SMOOTH",
"415 684 OFFCURVE",
"461 664 OFFCURVE",
"492 644 CURVE",
"496 653 OFFCURVE",
"506 659 OFFCURVE",
"517 659 CURVE SMOOTH",
"533 659 OFFCURVE",
"545 647 OFFCURVE",
"545 631 CURVE SMOOTH",
"545 567 LINE SMOOTH",
"545 551 OFFCURVE",
"533 538 OFFCURVE",
"517 538 CURVE SMOOTH",
"501 538 OFFCURVE",
"488 551 OFFCURVE",
"488 567 CURVE SMOOTH",
"488 572 LINE",
"468 593 OFFCURVE",
"431 627 OFFCURVE",
"346 627 CURVE SMOOTH",
"234 627 OFFCURVE",
"107 460 OFFCURVE",
"107 296 CURVE SMOOTH",
"107 124 OFFCURVE",
"248 55 OFFCURVE",
"338 55 CURVE SMOOTH",
"410 55 OFFCURVE",
"477 81 OFFCURVE",
"530 150 CURVE SMOOTH",
"537 159 OFFCURVE",
"544 161 OFFCURVE",
"552 161 CURVE SMOOTH"
);
},
{
closed = 1;
nodes = (
"297 759 LINE SMOOTH",
"290 754 OFFCURVE",
"282 750 OFFCURVE",
"276 750 CURVE SMOOTH",
"262 750 OFFCURVE",
"250 762 OFFCURVE",
"250 777 CURVE SMOOTH",
"250 783 OFFCURVE",
"251 790 OFFCURVE",
"256 794 CURVE SMOOTH",
"382 897 LINE SMOOTH",
"390 904 OFFCURVE",
"400 912 OFFCURVE",
"411 912 CURVE SMOOTH",
"430 912 OFFCURVE",
"445 896 OFFCURVE",
"445 876 CURVE SMOOTH",
"445 867 OFFCURVE",
"442 858 OFFCURVE",
"435 853 CURVE SMOOTH"
);
}
);
userData = {
com.fontlab.hintData = {
hhints = (
{
position = -2;
width = 57;
},
{
position = 538;
width = 121;
},
{
position = 627;
width = 57;
}
);
vhints = (
{
position = 50;
width = 57;
},
{
position = 488;
width = 57;
}
);
};
};
width = 632;
}
);
unicode = 0106;
},
{
glyphname = Ccaron;
layers = (
{
layerId = master01;
paths = (
{
closed = 1;
nodes = (
"567 161 OFFCURVE",
"581 151 OFFCURVE",
"581 133 CURVE SMOOTH",
"581 127 OFFCURVE",
"580 121 OFFCURVE",
"576 116 CURVE SMOOTH",
"519 40 OFFCURVE",
"434 -2 OFFCURVE",
"338 -2 CURVE SMOOTH",
"181 -2 OFFCURVE",
"50 126 OFFCURVE",
"50 296 CURVE SMOOTH",
"50 500 OFFCURVE",
"208 684 OFFCURVE",
"346 684 CURVE SMOOTH",
"415 684 OFFCURVE",
"461 664 OFFCURVE",
"492 644 CURVE",
"496 653 OFFCURVE",
"506 659 OFFCURVE",
"517 659 CURVE SMOOTH",
"533 659 OFFCURVE",
"545 647 OFFCURVE",
"545 631 CURVE SMOOTH",
"545 567 LINE SMOOTH",
"545 551 OFFCURVE",
"533 538 OFFCURVE",
"517 538 CURVE SMOOTH",
"501 538 OFFCURVE",
"488 551 OFFCURVE",
"488 567 CURVE SMOOTH",
"488 572 LINE",
"468 593 OFFCURVE",
"431 627 OFFCURVE",
"346 627 CURVE SMOOTH",
"234 627 OFFCURVE",
"107 460 OFFCURVE",
"107 296 CURVE SMOOTH",
"107 124 OFFCURVE",
"248 55 OFFCURVE",
"338 55 CURVE SMOOTH",
"410 55 OFFCURVE",
"477 81 OFFCURVE",
"530 150 CURVE SMOOTH",
"537 159 OFFCURVE",
"544 161 OFFCURVE",
"552 161 CURVE SMOOTH"
);
},
{
closed = 1;
nodes = (
"221 840 LINE SMOOTH",
"215 845 OFFCURVE",
"212 852 OFFCURVE",
"212 860 CURVE SMOOTH",
"212 874 OFFCURVE",
"224 886 OFFCURVE",
"238 886 CURVE SMOOTH",
"245 886 OFFCURVE",
"252 884 OFFCURVE",
"257 879 CURVE SMOOTH",
"353 792 LINE",
"468 881 LINE SMOOTH",
"473 885 OFFCURVE",
"479 886 OFFCURVE",
"485 886 CURVE SMOOTH",
"499 886 OFFCURVE",
"511 875 OFFCURVE",
"511 860 CURVE SMOOTH",
"511 852 OFFCURVE",
"508 844 OFFCURVE",
"501 839 CURVE SMOOTH",
"370 729 LINE SMOOTH",
"364 724 OFFCURVE",
"357 722 OFFCURVE",
"351 722 CURVE SMOOTH",
"344 722 OFFCURVE",
"337 725 OFFCURVE",
"331 730 CURVE SMOOTH"
);
}
);
userData = {
com.fontlab.hintData = {
hhints = (
{
position = -2;
width = 57;
},
{
position = 538;
width = 121;
},
{
position = 627;
width = 57;
}
);
vhints = (
{
position = 50;
width = 57;
},
{
position = 488;
width = 57;
}
);
};
};
width = 632;
}
);
unicode = 010C;
},
{
glyphname = Ccedilla;
layers = (
{
layerId = master01;
paths = (
{
closed = 1;
nodes = (
"269 -17 OFFCURVE",
"274 -5 OFFCURVE",
"277 4 CURVE",
"148 32 OFFCURVE",
"50 148 OFFCURVE",
"50 296 CURVE SMOOTH",
"50 500 OFFCURVE",
"208 684 OFFCURVE",
"346 684 CURVE SMOOTH",
"415 684 OFFCURVE",
"461 664 OFFCURVE",
"492 644 CURVE",
"496 653 OFFCURVE",
"506 659 OFFCURVE",
"517 659 CURVE SMOOTH",
"533 659 OFFCURVE",
"545 647 OFFCURVE",
"545 631 CURVE SMOOTH",
"545 567 LINE SMOOTH",
"545 551 OFFCURVE",
"533 538 OFFCURVE",
"517 538 CURVE SMOOTH",
"501 538 OFFCURVE",
"488 551 OFFCURVE",
"488 567 CURVE SMOOTH",
"488 572 LINE",
"468 593 OFFCURVE",
"431 627 OFFCURVE",
"346 627 CURVE SMOOTH",
"234 627 OFFCURVE",
"107 460 OFFCURVE",
"107 296 CURVE SMOOTH",
"107 124 OFFCURVE",
"248 55 OFFCURVE",
"338 55 CURVE SMOOTH",
"410 55 OFFCURVE",
"477 81 OFFCURVE",
"530 150 CURVE SMOOTH",
"537 159 OFFCURVE",
"544 161 OFFCURVE",
"552 161 CURVE SMOOTH",
"567 161 OFFCURVE",
"581 151 OFFCURVE",
"581 133 CURVE SMOOTH",
"581 127 OFFCURVE",
"580 121 OFFCURVE",
"576 116 CURVE SMOOTH",
"519 40 OFFCURVE",
"434 -2 OFFCURVE",
"338 -2 CURVE SMOOTH",
"329 -2 OFFCURVE",
"320 -2 OFFCURVE",
"312 -1 CURVE",
"311 -19 LINE",
"379 -19 OFFCURVE",
"413 -62 OFFCURVE",
"413 -110 CURVE SMOOTH",
"413 -160 OFFCURVE",
"372 -201 OFFCURVE",
"322 -201 CURVE SMOOTH",
"290 -201 OFFCURVE",
"243 -179 OFFCURVE",
"243 -146 CURVE SMOOTH",
"243 -138 OFFCURVE",
"252 -128 OFFCURVE",
"264 -128 CURVE SMOOTH",
"272 -128 OFFCURVE",
"277 -133 OFFCURVE",
"282 -139 CURVE SMOOTH",
"290 -148 OFFCURVE",
"299 -159 OFFCURVE",
"322 -159 CURVE SMOOTH",
"349 -159 OFFCURVE",
"371 -137 OFFCURVE",
"371 -110 CURVE SMOOTH",
"371 -83 OFFCURVE",
"349 -61 OFFCURVE",
"322 -61 CURVE SMOOTH",
"307 -61 OFFCURVE",
"298 -67 OFFCURVE",
"291 -71 CURVE SMOOTH",
"287 -74 OFFCURVE",
"283 -76 OFFCURVE",
"279 -76 CURVE SMOOTH",
"268 -76 OFFCURVE",
"258 -68 OFFCURVE",
"258 -56 CURVE SMOOTH",
"258 -50 OFFCURVE",
"260 -43 OFFCURVE",
"264 -33 CURVE SMOOTH"
);
}
);
userData = {
com.fontlab.hintData = {
hhints = (
{
position = -201;
width = 42;
},
{
position = -61;
width = 42;
},
{
position = -2;
width = 57;
},
{
position = 538;
width = 121;
},
{
position = 627;
width = 57;
}
);
vhints = (
{
position = 50;
width = 57;
},
{
position = 371;
width = 42;
},
{
position = 488;
width = 57;
}
);
};
};
width = 632;
}
);
unicode = 00C7;
},
{
glyphname = Ccircumflex;
layers = (
{
layerId = master01;
paths = (
{
closed = 1;
nodes = (
"486 777 LINE SMOOTH",
"492 772 OFFCURVE",
"495 765 OFFCURVE",
"495 757 CURVE SMOOTH",
"495 743 OFFCURVE",
"483 731 OFFCURVE",
"469 731 CURVE SMOOTH",
"462 731 OFFCURVE",
"455 733 OFFCURVE",
"450 738 CURVE SMOOTH",
"354 825 LINE",
"239 736 LINE SMOOTH",
"234 732 OFFCURVE",
"228 731 OFFCURVE",
"222 731 CURVE SMOOTH",
"208 731 OFFCURVE",
"196 742 OFFCURVE",
"196 757 CURVE SMOOTH",
"196 765 OFFCURVE",
"199 773 OFFCURVE",
"206 778 CURVE SMOOTH",
"337 888 LINE SMOOTH",
"343 893 OFFCURVE",
"350 895 OFFCURVE",
"356 895 CURVE SMOOTH",
"363 895 OFFCURVE",
"370 892 OFFCURVE",
"376 887 CURVE SMOOTH"
);
},
{
closed = 1;
nodes = (
"567 161 OFFCURVE",
"581 151 OFFCURVE",
"581 133 CURVE SMOOTH",
"581 127 OFFCURVE",
"580 121 OFFCURVE",
"576 116 CURVE SMOOTH",
"519 40 OFFCURVE",
"434 -2 OFFCURVE",
"338 -2 CURVE SMOOTH",
"181 -2 OFFCURVE",
"50 126 OFFCURVE",
"50 296 CURVE SMOOTH",
"50 500 OFFCURVE",
"208 684 OFFCURVE",
"346 684 CURVE SMOOTH",
"415 684 OFFCURVE",
"461 664 OFFCURVE",
"492 644 CURVE",
"496 653 OFFCURVE",
"506 659 OFFCURVE",
"517 659 CURVE SMOOTH",
"533 659 OFFCURVE",
"545 647 OFFCURVE",
"545 631 CURVE SMOOTH",
"545 567 LINE SMOOTH",
"545 551 OFFCURVE",
"533 538 OFFCURVE",
"517 538 CURVE SMOOTH",
"501 538 OFFCURVE",
"488 551 OFFCURVE",
"488 567 CURVE SMOOTH",
"488 572 LINE",
"468 593 OFFCURVE",
"431 627 OFFCURVE",
"346 627 CURVE SMOOTH",
"234 627 OFFCURVE",
"107 460 OFFCURVE",
"107 296 CURVE SMOOTH",
"107 124 OFFCURVE",
"248 55 OFFCURVE",
"338 55 CURVE SMOOTH",
"410 55 OFFCURVE",
"477 81 OFFCURVE",
"530 150 CURVE SMOOTH",
"537 159 OFFCURVE",
"544 161 OFFCURVE",
"552 161 CURVE SMOOTH"
);
}
);
userData = {
com.fontlab.hintData = {
hhints = (
{
position = -2;
width = 57;
},
{
position = 538;
width = 121;
},
{
position = 627;
width = 57;
}
);
vhints = (
{
position = 50;
width = 57;
},
{
position = 488;
width = 57;
}
);
};
};
width = 632;
}
);
unicode = 0108;
},
{
glyphname = D;
layers = (
{
layerId = master01;
paths = (
{
closed = 1;
nodes = (
"151 -20 OFFCURVE",
"95 -5 OFFCURVE",
"87 -3 CURVE SMOOTH",
"74 0 OFFCURVE",
"65 12 OFFCURVE",
"65 25 CURVE SMOOTH",
"65 653 LINE SMOOTH",
"65 669 OFFCURVE",
"78 681 OFFCURVE",
"94 681 CURVE SMOOTH",
"257 681 OFFCURVE",
"560 626 OFFCURVE",
"560 300 CURVE SMOOTH",
"560 77 OFFCURVE",
"403 -20 OFFCURVE",
"210 -20 CURVE SMOOTH"
);
},
{
closed = 1;
nodes = (
"122 48 LINE",
"144 43 OFFCURVE",
"178 37 OFFCURVE",
"210 37 CURVE SMOOTH",
"388 37 OFFCURVE",
"503 123 OFFCURVE",
"503 300 CURVE SMOOTH",
"503 532 OFFCURVE",
"325 615 OFFCURVE",
"122 624 CURVE"
);
}
);
userData = {
com.fontlab.hintData = {
hhints = (
{
position = -20;
width = 57;
},
{
position = 624;
width = 57;
}
);
vhints = (
{
position = 65;
width = 57;
},
{
position = 503;
width = 57;
}
);
};
};
width = 620;
}
);
unicode = 0044;
},
{
glyphname = Eth;
layers = (
{
layerId = master01;
paths = (
{
closed = 1;
nodes = (
"212 -20 OFFCURVE",
"156 -5 OFFCURVE",
"148 -3 CURVE SMOOTH",
"135 0 OFFCURVE",
"126 12 OFFCURVE",
"126 25 CURVE SMOOTH",
"126 281 LINE",
"63 281 LINE SMOOTH",
"48 281 OFFCURVE",
"35 294 OFFCURVE",
"35 309 CURVE SMOOTH",
"35 325 OFFCURVE",
"48 338 OFFCURVE",
"63 338 CURVE SMOOTH",
"126 338 LINE",
"126 653 LINE SMOOTH",
"126 669 OFFCURVE",
"139 681 OFFCURVE",
"155 681 CURVE SMOOTH",
"318 681 OFFCURVE",
"604 626 OFFCURVE",
"604 300 CURVE SMOOTH",
"604 77 OFFCURVE",
"464 -20 OFFCURVE",
"271 -20 CURVE SMOOTH"
);
},
{
closed = 1;
nodes = (
"180 48 LINE",
"202 43 OFFCURVE",
"239 37 OFFCURVE",
"271 37 CURVE SMOOTH",
"449 37 OFFCURVE",
"549 123 OFFCURVE",
"549 300 CURVE SMOOTH",
"549 532 OFFCURVE",
"383 615 OFFCURVE",
"180 624 CURVE",
"180 338 LINE",
"284 338 LINE SMOOTH",
"299 338 OFFCURVE",
"312 325 OFFCURVE",
"312 309 CURVE SMOOTH",
"312 294 OFFCURVE",
"299 281 OFFCURVE",
"284 281 CURVE SMOOTH",
"180 281 LINE"
);
}
);
userData = {
com.fontlab.hintData = {
hhints = (
{
position = -20;
width = 57;
},
{
position = 281;
width = 57;
},
{
position = 624;
width = 57;
}
);
vhints = (
{
position = 126;
width = 54;
},
{
position = 549;
width = 55;
}
);
};
};
width = 655;
}
);
unicode = 00D0;
},
{
glyphname = Dcaron;
layers = (
{
layerId = master01;
paths = (
{
closed = 1;
nodes = (
"151 -20 OFFCURVE",
"95 -5 OFFCURVE",
"87 -3 CURVE SMOOTH",
"74 0 OFFCURVE",
"65 12 OFFCURVE",
"65 25 CURVE SMOOTH",
"65 653 LINE SMOOTH",
"65 669 OFFCURVE",
"78 681 OFFCURVE",
"94 681 CURVE SMOOTH",
"257 681 OFFCURVE",
"560 626 OFFCURVE",
"560 300 CURVE SMOOTH",
"560 77 OFFCURVE",
"403 -20 OFFCURVE",
"210 -20 CURVE SMOOTH"
);
},
{
closed = 1;
nodes = (
"122 48 LINE",
"144 43 OFFCURVE",
"178 37 OFFCURVE",
"210 37 CURVE SMOOTH",
"388 37 OFFCURVE",
"503 123 OFFCURVE",
"503 300 CURVE SMOOTH",
"503 532 OFFCURVE",
"325 615 OFFCURVE",
"122 624 CURVE"
);
},
{
closed = 1;
nodes = (
"135 840 LINE SMOOTH",
"129 845 OFFCURVE",
"126 852 OFFCURVE",
"126 860 CURVE SMOOTH",
"126 874 OFFCURVE",
"138 886 OFFCURVE",
"152 886 CURVE SMOOTH",
"159 886 OFFCURVE",
"166 884 OFFCURVE",
"171 879 CURVE SMOOTH",
"267 792 LINE",
"382 881 LINE SMOOTH",
"387 885 OFFCURVE",
"393 886 OFFCURVE",
"399 886 CURVE SMOOTH",
"413 886 OFFCURVE",
"425 875 OFFCURVE",
"425 860 CURVE SMOOTH",
"425 852 OFFCURVE",
"422 844 OFFCURVE",
"415 839 CURVE SMOOTH",
"284 729 LINE SMOOTH",
"278 724 OFFCURVE",
"271 722 OFFCURVE",
"265 722 CURVE SMOOTH",
"258 722 OFFCURVE",
"251 725 OFFCURVE",
"245 730 CURVE SMOOTH"
);
}
);
userData = {
com.fontlab.hintData = {
hhints = (
{
position = -20;
width = 57;
},
{
position = 624;
width = 57;
}
);
vhints = (
{
position = 65;
width = 57;
},
{
position = 503;
width = 57;
}
);
};
};
width = 620;
}
);
unicode = 010E;
},
{
glyphname = Dcroat;
layers = (
{
layerId = master01;
paths = (
{
closed = 1;
nodes = (
"212 -20 OFFCURVE",
"156 -5 OFFCURVE",
"148 -3 CURVE SMOOTH",
"135 0 OFFCURVE",
"126 12 OFFCURVE",
"126 25 CURVE SMOOTH",
"126 281 LINE",
"63 281 LINE SMOOTH",
"48 281 OFFCURVE",
"35 294 OFFCURVE",
"35 309 CURVE SMOOTH",
"35 325 OFFCURVE",
"48 338 OFFCURVE",
"63 338 CURVE SMOOTH",
"126 338 LINE",
"126 653 LINE SMOOTH",
"126 669 OFFCURVE",
"139 681 OFFCURVE",
"155 681 CURVE SMOOTH",
"318 681 OFFCURVE",
"604 626 OFFCURVE",
"604 300 CURVE SMOOTH",
"604 77 OFFCURVE",
"464 -20 OFFCURVE",
"271 -20 CURVE SMOOTH"
);
},
{
closed = 1;
nodes = (
"180 48 LINE",
"202 43 OFFCURVE",
"239 37 OFFCURVE",
"271 37 CURVE SMOOTH",
"449 37 OFFCURVE",
"549 123 OFFCURVE",
"549 300 CURVE SMOOTH",
"549 532 OFFCURVE",
"383 615 OFFCURVE",
"180 624 CURVE",
"180 338 LINE",
"284 338 LINE SMOOTH",
"299 338 OFFCURVE",
"312 325 OFFCURVE",
"312 309 CURVE SMOOTH",
"312 294 OFFCURVE",
"299 281 OFFCURVE",
"284 281 CURVE SMOOTH",
"180 281 LINE"
);
}
);
userData = {
com.fontlab.hintData = {
hhints = (
{
position = -20;
width = 57;
},
{
position = 281;
width = 57;
},
{
position = 624;
width = 57;
}
);
vhints = (
{
position = 126;
width = 54;
},
{
position = 549;
width = 55;
}
);
};
};
width = 655;
}
);
unicode = 0110;
},
{
glyphname = E;
layers = (
{
layerId = master01;
paths = (
{
closed = 1;
nodes = (
"520 57 LINE SMOOTH",
"536 57 OFFCURVE",
"548 45 OFFCURVE",
"548 29 CURVE SMOOTH",
"548 13 OFFCURVE",
"536 0 OFFCURVE",
"520 0 CURVE SMOOTH",
"94 0 LINE SMOOTH",
"78 0 OFFCURVE",
"65 13 OFFCURVE",
"65 29 CURVE SMOOTH",
"65 654 LINE SMOOTH",
"65 670 OFFCURVE",
"78 682 OFFCURVE",
"94 682 CURVE SMOOTH",
"522 682 LINE SMOOTH",
"538 682 OFFCURVE",
"550 670 OFFCURVE",
"550 654 CURVE SMOOTH",
"550 638 OFFCURVE",
"538 625 OFFCURVE",
"522 625 CURVE SMOOTH",
"122 625 LINE",
"122 381 LINE",
"473 381 LINE SMOOTH",
"489 381 OFFCURVE",
"501 369 OFFCURVE",
"501 353 CURVE SMOOTH",
"501 337 OFFCURVE",
"489 324 OFFCURVE",
"473 324 CURVE SMOOTH",
"122 324 LINE",
"122 57 LINE"
);
}
);
userData = {
com.fontlab.hintData = {
hhints = (
{
position = 0;
width = 57;
},
{
position = 324;
width = 57;
},
{
position = 625;
width = 57;
}
);
vhints = (
{
position = 65;
width = 57;
}
);
};
};
width = 610;
}
);
unicode = 0045;
},
{
glyphname = Eacute;
layers = (
{
layerId = master01;
paths = (
{
closed = 1;
nodes = (
"262 741 LINE SMOOTH",
"255 736 OFFCURVE",
"247 732 OFFCURVE",
"241 732 CURVE SMOOTH",
"227 732 OFFCURVE",
"215 744 OFFCURVE",
"215 759 CURVE SMOOTH",
"215 765 OFFCURVE",
"216 772 OFFCURVE",
"221 776 CURVE SMOOTH",
"347 879 LINE SMOOTH",
"355 886 OFFCURVE",
"365 894 OFFCURVE",
"376 894 CURVE SMOOTH",
"395 894 OFFCURVE",
"410 878 OFFCURVE",
"410 858 CURVE SMOOTH",
"410 849 OFFCURVE",
"407 840 OFFCURVE",
"400 835 CURVE SMOOTH"
);
},
{
closed = 1;
nodes = (
"520 57 LINE SMOOTH",
"536 57 OFFCURVE",
"548 45 OFFCURVE",
"548 29 CURVE SMOOTH",
"548 13 OFFCURVE",
"536 0 OFFCURVE",
"520 0 CURVE SMOOTH",
"94 0 LINE SMOOTH",
"78 0 OFFCURVE",
"65 13 OFFCURVE",
"65 29 CURVE SMOOTH",
"65 654 LINE SMOOTH",
"65 670 OFFCURVE",
"78 682 OFFCURVE",
"94 682 CURVE SMOOTH",
"522 682 LINE SMOOTH",
"538 682 OFFCURVE",
"550 670 OFFCURVE",
"550 654 CURVE SMOOTH",
"550 638 OFFCURVE",
"538 625 OFFCURVE",
"522 625 CURVE SMOOTH",
"122 625 LINE",
"122 381 LINE",
"473 381 LINE SMOOTH",
"489 381 OFFCURVE",
"501 369 OFFCURVE",
"501 353 CURVE SMOOTH",
"501 337 OFFCURVE",
"489 324 OFFCURVE",
"473 324 CURVE SMOOTH",
"122 324 LINE",
"122 57 LINE"
);
}
);
userData = {
com.fontlab.hintData = {
hhints = (
{
position = 0;
width = 57;
},
{
position = 324;
width = 57;
},
{
position = 625;
width = 57;
}
);
vhints = (
{
position = 65;
width = 57;
}
);
};
};
width = 610;
}
);
unicode = 00C9;
},
{
glyphname = Ecaron;
layers = (
{
layerId = master01;
paths = (
{
closed = 1;
nodes = (
"171 840 LINE SMOOTH",
"165 845 OFFCURVE",
"162 852 OFFCURVE",
"162 860 CURVE SMOOTH",
"162 874 OFFCURVE",
"174 886 OFFCURVE",
"188 886 CURVE SMOOTH",
"195 886 OFFCURVE",
"202 884 OFFCURVE",
"207 879 CURVE SMOOTH",
"303 792 LINE",
"418 881 LINE SMOOTH",
"423 885 OFFCURVE",
"429 886 OFFCURVE",
"435 886 CURVE SMOOTH",
"449 886 OFFCURVE",
"461 875 OFFCURVE",
"461 860 CURVE SMOOTH",
"461 852 OFFCURVE",
"458 844 OFFCURVE",
"451 839 CURVE SMOOTH",
"320 729 LINE SMOOTH",
"314 724 OFFCURVE",
"307 722 OFFCURVE",
"301 722 CURVE SMOOTH",
"294 722 OFFCURVE",
"287 725 OFFCURVE",
"281 730 CURVE SMOOTH"
);
},
{
closed = 1;
nodes = (
"520 57 LINE SMOOTH",
"536 57 OFFCURVE",
"548 45 OFFCURVE",
"548 29 CURVE SMOOTH",
"548 13 OFFCURVE",
"536 0 OFFCURVE",
"520 0 CURVE SMOOTH",
"94 0 LINE SMOOTH",
"78 0 OFFCURVE",
"65 13 OFFCURVE",
"65 29 CURVE SMOOTH",
"65 654 LINE SMOOTH",
"65 670 OFFCURVE",
"78 682 OFFCURVE",
"94 682 CURVE SMOOTH",
"522 682 LINE SMOOTH",
"538 682 OFFCURVE",
"550 670 OFFCURVE",
"550 654 CURVE SMOOTH",
"550 638 OFFCURVE",
"538 625 OFFCURVE",
"522 625 CURVE SMOOTH",
"122 625 LINE",
"122 381 LINE",
"473 381 LINE SMOOTH",
"489 381 OFFCURVE",
"501 369 OFFCURVE",
"501 353 CURVE SMOOTH",
"501 337 OFFCURVE",
"489 324 OFFCURVE",
"473 324 CURVE SMOOTH",
"122 324 LINE",
"122 57 LINE"
);
}
);
userData = {
com.fontlab.hintData = {
hhints = (
{
position = 0;
width = 57;
},
{
position = 324;
width = 57;
},
{
position = 625;
width = 57;
}
);
vhints = (
{
position = 65;
width = 57;
}
);
};
};
width = 610;
}
);
unicode = 011A;
},
{
glyphname = Ecircumflex;
layers = (
{
layerId = master01;
paths = (
{
closed = 1;
nodes = (
"458 777 LINE SMOOTH",
"464 772 OFFCURVE",
"467 765 OFFCURVE",
"467 757 CURVE SMOOTH",
"467 743 OFFCURVE",
"455 731 OFFCURVE",
"441 731 CURVE SMOOTH",
"434 731 OFFCURVE",
"427 733 OFFCURVE",
"422 738 CURVE SMOOTH",
"326 825 LINE",
"211 736 LINE SMOOTH",
"206 732 OFFCURVE",
"200 731 OFFCURVE",
"194 731 CURVE SMOOTH",
"180 731 OFFCURVE",
"168 742 OFFCURVE",
"168 757 CURVE SMOOTH",
"168 765 OFFCURVE",
"171 773 OFFCURVE",
"178 778 CURVE SMOOTH",
"309 888 LINE SMOOTH",
"315 893 OFFCURVE",
"322 895 OFFCURVE",
"328 895 CURVE SMOOTH",
"335 895 OFFCURVE",
"342 892 OFFCURVE",
"348 887 CURVE SMOOTH"
);
},
{
closed = 1;
nodes = (
"520 57 LINE SMOOTH",
"536 57 OFFCURVE",
"548 45 OFFCURVE",
"548 29 CURVE SMOOTH",
"548 13 OFFCURVE",
"536 0 OFFCURVE",
"520 0 CURVE SMOOTH",
"94 0 LINE SMOOTH",
"78 0 OFFCURVE",
"65 13 OFFCURVE",
"65 29 CURVE SMOOTH",
"65 654 LINE SMOOTH",
"65 670 OFFCURVE",
"78 682 OFFCURVE",
"94 682 CURVE SMOOTH",
"522 682 LINE SMOOTH",
"538 682 OFFCURVE",
"550 670 OFFCURVE",
"550 654 CURVE SMOOTH",
"550 638 OFFCURVE",
"538 625 OFFCURVE",
"522 625 CURVE SMOOTH",
"122 625 LINE",
"122 381 LINE",
"473 381 LINE SMOOTH",
"489 381 OFFCURVE",
"501 369 OFFCURVE",
"501 353 CURVE SMOOTH",
"501 337 OFFCURVE",
"489 324 OFFCURVE",
"473 324 CURVE SMOOTH",
"122 324 LINE",
"122 57 LINE"
);
}
);
userData = {
com.fontlab.hintData = {
hhints = (
{
position = 0;
width = 57;
},
{
position = 324;
width = 57;
},
{
position = 625;
width = 57;
}
);
vhints = (
{
position = 65;
width = 57;
}
);
};
};
width = 610;
}
);
unicode = 00CA;
},
{
glyphname = Edieresis;
layers = (
{
layerId = master01;
paths = (
{
closed = 1;
nodes = (
"281 753 OFFCURVE",
"259 733 OFFCURVE",
"230 733 CURVE SMOOTH",
"205 733 OFFCURVE",
"185 749 OFFCURVE",
"185 772 CURVE SMOOTH",
"185 795 OFFCURVE",
"208 816 OFFCURVE",
"236 816 CURVE SMOOTH",
"259 816 OFFCURVE",
"281 799 OFFCURVE",
"281 777 CURVE SMOOTH"
);
},
{
closed = 1;
nodes = (
"440 753 OFFCURVE",
"418 733 OFFCURVE",
"389 733 CURVE SMOOTH",
"364 733 OFFCURVE",
"344 749 OFFCURVE",
"344 772 CURVE SMOOTH",
"344 795 OFFCURVE",
"367 816 OFFCURVE",
"395 816 CURVE SMOOTH",
"418 816 OFFCURVE",
"440 799 OFFCURVE",
"440 777 CURVE SMOOTH"
);
},
{
closed = 1;
nodes = (
"520 57 LINE SMOOTH",
"536 57 OFFCURVE",
"548 45 OFFCURVE",
"548 29 CURVE SMOOTH",
"548 13 OFFCURVE",
"536 0 OFFCURVE",
"520 0 CURVE SMOOTH",
"94 0 LINE SMOOTH",
"78 0 OFFCURVE",
"65 13 OFFCURVE",
"65 29 CURVE SMOOTH",
"65 654 LINE SMOOTH",
"65 670 OFFCURVE",
"78 682 OFFCURVE",
"94 682 CURVE SMOOTH",
"522 682 LINE SMOOTH",
"538 682 OFFCURVE",
"550 670 OFFCURVE",
"550 654 CURVE SMOOTH",
"550 638 OFFCURVE",
"538 625 OFFCURVE",
"522 625 CURVE SMOOTH",
"122 625 LINE",
"122 381 LINE",
"473 381 LINE SMOOTH",
"489 381 OFFCURVE",
"501 369 OFFCURVE",
"501 353 CURVE SMOOTH",
"501 337 OFFCURVE",
"489 324 OFFCURVE",
"473 324 CURVE SMOOTH",
"122 324 LINE",
"122 57 LINE"
);
}
);
userData = {
com.fontlab.hintData = {
hhints = (
{
position = 0;
width = 57;
},
{
position = 324;
width = 57;
},
{
position = 625;
width = 57;
},
{
position = 733;
width = 83;
}
);
vhints = (
{
position = 65;
width = 57;
},
{
position = 185;
width = 96;
},
{
position = 344;
width = 96;
}
);
};
};
width = 610;
}
);
unicode = 00CB;
},
{
glyphname = Egrave;
layers = (
{
layerId = master01;
paths = (
{
closed = 1;
nodes = (
"202 846 LINE SMOOTH",
"195 853 OFFCURVE",
"191 861 OFFCURVE",
"191 871 CURVE SMOOTH",
"191 889 OFFCURVE",
"208 905 OFFCURVE",
"226 905 CURVE SMOOTH",
"237 905 OFFCURVE",
"248 898 OFFCURVE",
"255 890 CURVE SMOOTH",
"360 760 LINE SMOOTH",
"365 753 OFFCURVE",
"367 748 OFFCURVE",
"367 742 CURVE SMOOTH",
"367 727 OFFCURVE",
"353 716 OFFCURVE",
"339 716 CURVE SMOOTH",
"331 716 OFFCURVE",
"325 720 OFFCURVE",
"320 725 CURVE SMOOTH"
);
},
{
closed = 1;
nodes = (
"520 57 LINE SMOOTH",
"536 57 OFFCURVE",
"548 45 OFFCURVE",
"548 29 CURVE SMOOTH",
"548 13 OFFCURVE",
"536 0 OFFCURVE",
"520 0 CURVE SMOOTH",
"94 0 LINE SMOOTH",
"78 0 OFFCURVE",
"65 13 OFFCURVE",
"65 29 CURVE SMOOTH",
"65 654 LINE SMOOTH",
"65 670 OFFCURVE",
"78 682 OFFCURVE",
"94 682 CURVE SMOOTH",
"522 682 LINE SMOOTH",
"538 682 OFFCURVE",
"550 670 OFFCURVE",
"550 654 CURVE SMOOTH",
"550 638 OFFCURVE",
"538 625 OFFCURVE",
"522 625 CURVE SMOOTH",
"122 625 LINE",
"122 381 LINE",
"473 381 LINE SMOOTH",
"489 381 OFFCURVE",
"501 369 OFFCURVE",
"501 353 CURVE SMOOTH",
"501 337 OFFCURVE",
"489 324 OFFCURVE",
"473 324 CURVE SMOOTH",
"122 324 LINE",
"122 57 LINE"
);
}
);
userData = {
com.fontlab.hintData = {
hhints = (
{
position = 0;
width = 57;
},
{
position = 324;
width = 57;
},
{
position = 625;
width = 57;
}
);
vhints = (
{
position = 65;
width = 57;
}
);
};
};
width = 610;
}
);
unicode = 00C8;
},
{
glyphname = Eogonek;
layers = (
{
layerId = master01;
paths = (
{
closed = 1;
nodes = (
"405 -200 OFFCURVE",
"361 -158 OFFCURVE",
"361 -100 CURVE SMOOTH",
"361 -60 OFFCURVE",
"383 -26 OFFCURVE",
"412 0 CURVE",
"94 0 LINE SMOOTH",
"78 0 OFFCURVE",
"65 13 OFFCURVE",
"65 29 CURVE SMOOTH",
"65 654 LINE SMOOTH",
"65 670 OFFCURVE",
"78 682 OFFCURVE",
"94 682 CURVE SMOOTH",
"522 682 LINE SMOOTH",
"538 682 OFFCURVE",
"550 670 OFFCURVE",
"550 654 CURVE SMOOTH",
"550 638 OFFCURVE",
"538 625 OFFCURVE",
"522 625 CURVE SMOOTH",
"122 625 LINE",
"122 381 LINE",
"473 381 LINE SMOOTH",
"489 381 OFFCURVE",
"501 369 OFFCURVE",
"501 353 CURVE SMOOTH",
"501 337 OFFCURVE",
"489 324 OFFCURVE",
"473 324 CURVE SMOOTH",
"122 324 LINE",
"122 57 LINE",
"520 57 LINE SMOOTH",
"536 57 OFFCURVE",
"548 45 OFFCURVE",
"548 29 CURVE SMOOTH",
"548 13 OFFCURVE",
"536 0 OFFCURVE",
"520 0 CURVE SMOOTH",
"480 0 LINE",
"466 -11 LINE SMOOTH",
"440 -30 OFFCURVE",
"403 -57 OFFCURVE",
"403 -101 CURVE SMOOTH",
"403 -135 OFFCURVE",
"430 -158 OFFCURVE",
"464 -158 CURVE SMOOTH",
"484 -158 OFFCURVE",
"506 -151 OFFCURVE",
"526 -135 CURVE SMOOTH",
"530 -132 OFFCURVE",
"534 -131 OFFCURVE",
"539 -131 CURVE SMOOTH",
"549 -131 OFFCURVE",
"560 -141 OFFCURVE",
"560 -152 CURVE SMOOTH",
"560 -181 OFFCURVE",
"492 -201 OFFCURVE",
"464 -201 CURVE SMOOTH"
);
}
);
userData = {
com.fontlab.hintData = {
hhints = (
{
position = -201;
width = 43;
},
{
position = 0;
width = 57;
},
{
position = 324;
width = 57;
},
{
position = 625;
width = 57;
}
);
vhints = (
{
position = 65;
width = 57;
},
{
position = 361;
width = 42;
}
);
};
};
width = 610;
}
);
unicode = 0118;
},
{
glyphname = F;
layers = (
{
layerId = master01;
paths = (
{
closed = 1;
nodes = (
"117 28 LINE SMOOTH",
"117 12 OFFCURVE",
"105 -1 OFFCURVE",
"89 -1 CURVE SMOOTH",
"73 -1 OFFCURVE",
"60 12 OFFCURVE",
"60 28 CURVE SMOOTH",
"60 652 LINE SMOOTH",
"60 668 OFFCURVE",
"73 681 OFFCURVE",
"89 681 CURVE SMOOTH",
"517 681 LINE SMOOTH",
"533 681 OFFCURVE",
"545 668 OFFCURVE",
"545 652 CURVE SMOOTH",
"545 637 OFFCURVE",
"533 624 OFFCURVE",
"517 624 CURVE SMOOTH",
"117 624 LINE",
"117 380 LINE",
"428 380 LINE SMOOTH",
"444 380 OFFCURVE",
"456 367 OFFCURVE",
"456 351 CURVE SMOOTH",
"456 336 OFFCURVE",
"444 323 OFFCURVE",
"428 323 CURVE SMOOTH",
"117 323 LINE"
);
}
);
userData = {
com.fontlab.hintData = {
hhints = (
{
position = -1;
width = 21;
},
{
position = 323;
width = 57;
},
{
position = 624;
width = 57;
}
);
vhints = (
{
position = 60;
width = 57;
}
);
};
};
width = 545;
}
);
unicode = 0046;
},
{
glyphname = G;
layers = (
{
layerId = master01;
paths = (
{
closed = 1;
nodes = (
"684 275 OFFCURVE",
"690 264 OFFCURVE",
"690 252 CURVE SMOOTH",
"690 235 OFFCURVE",
"676 224 OFFCURVE",
"662 224 CURVE SMOOTH",
"659 224 OFFCURVE",
"652 226 OFFCURVE",
"647 228 CURVE",
"617 101 OFFCURVE",
"516 -1 OFFCURVE",
"361 -1 CURVE SMOOTH",
"175 -1 OFFCURVE",
"60 162 OFFCURVE",
"60 331 CURVE SMOOTH",
"60 498 OFFCURVE",
"182 683 OFFCURVE",
"377 683 CURVE SMOOTH",
"566 683 OFFCURVE",
"641 536 OFFCURVE",
"641 495 CURVE SMOOTH",
"641 480 OFFCURVE",
"630 470 OFFCURVE",
"614 470 CURVE SMOOTH",
"603 470 OFFCURVE",
"591 476 OFFCURVE",
"586 489 CURVE SMOOTH",
"561 554 OFFCURVE",
"503 626 OFFCURVE",
"377 626 CURVE SMOOTH",
"184 626 OFFCURVE",
"117 422 OFFCURVE",
"117 331 CURVE SMOOTH",
"117 212 OFFCURVE",
"195 56 OFFCURVE",
"361 56 CURVE SMOOTH",
"476 56 OFFCURVE",
"563 126 OFFCURVE",
"591 238 CURVE",
"582 239 OFFCURVE",
"573 239 OFFCURVE",
"563 239 CURVE SMOOTH",
"483 239 OFFCURVE",
"449 221 OFFCURVE",
"432 221 CURVE SMOOTH",
"418 221 OFFCURVE",
"404 232 OFFCURVE",
"404 250 CURVE SMOOTH",
"404 262 OFFCURVE",
"411 273 OFFCURVE",
"424 277 CURVE SMOOTH",
"427 278 OFFCURVE",
"488 296 OFFCURVE",
"562 296 CURVE SMOOTH",
"625 296 OFFCURVE",
"664 282 OFFCURVE",
"672 279 CURVE SMOOTH"
);
}
);
userData = {
com.fontlab.hintData = {
hhints = (
{
position = -1;
width = 57;
},
{
position = 224;
width = 55;
},
{
position = 239;
width = 57;
},
{
position = 626;
width = 57;
}
);
vhints = (
{
position = 60;
width = 57;
},
{
position = 586;
width = 55;
}
);
};
};
width = 751;
}
);
unicode = 0047;
},
{
glyphname = Gcircumflex;
layers = (
{
layerId = master01;
paths = (
{
closed = 1;
nodes = (
"506 777 LINE SMOOTH",
"512 772 OFFCURVE",
"515 765 OFFCURVE",
"515 757 CURVE SMOOTH",
"515 743 OFFCURVE",
"503 731 OFFCURVE",
"489 731 CURVE SMOOTH",
"482 731 OFFCURVE",
"475 733 OFFCURVE",
"470 738 CURVE SMOOTH",
"374 825 LINE",
"259 736 LINE SMOOTH",
"254 732 OFFCURVE",
"248 731 OFFCURVE",
"242 731 CURVE SMOOTH",
"228 731 OFFCURVE",
"216 742 OFFCURVE",
"216 757 CURVE SMOOTH",
"216 765 OFFCURVE",
"219 773 OFFCURVE",
"226 778 CURVE SMOOTH",
"357 888 LINE SMOOTH",
"363 893 OFFCURVE",
"370 895 OFFCURVE",
"376 895 CURVE SMOOTH",
"383 895 OFFCURVE",
"390 892 OFFCURVE",
"396 887 CURVE SMOOTH"
);
},
{
closed = 1;
nodes = (
"684 275 OFFCURVE",
"690 264 OFFCURVE",
"690 252 CURVE SMOOTH",
"690 235 OFFCURVE",
"676 224 OFFCURVE",
"662 224 CURVE SMOOTH",
"659 224 OFFCURVE",
"652 226 OFFCURVE",
"647 228 CURVE",
"617 101 OFFCURVE",
"516 -1 OFFCURVE",
"361 -1 CURVE SMOOTH",
"175 -1 OFFCURVE",
"60 162 OFFCURVE",
"60 331 CURVE SMOOTH",
"60 498 OFFCURVE",
"182 683 OFFCURVE",
"377 683 CURVE SMOOTH",
"566 683 OFFCURVE",
"641 536 OFFCURVE",
"641 495 CURVE SMOOTH",
"641 480 OFFCURVE",
"630 470 OFFCURVE",
"614 470 CURVE SMOOTH",
"603 470 OFFCURVE",
"591 476 OFFCURVE",
"586 489 CURVE SMOOTH",
"561 554 OFFCURVE",
"503 626 OFFCURVE",
"377 626 CURVE SMOOTH",
"184 626 OFFCURVE",
"117 422 OFFCURVE",
"117 331 CURVE SMOOTH",
"117 212 OFFCURVE",
"195 56 OFFCURVE",
"361 56 CURVE SMOOTH",
"476 56 OFFCURVE",
"563 126 OFFCURVE",
"591 238 CURVE",
"582 239 OFFCURVE",
"573 239 OFFCURVE",
"563 239 CURVE SMOOTH",
"483 239 OFFCURVE",
"449 221 OFFCURVE",
"432 221 CURVE SMOOTH",
"418 221 OFFCURVE",
"404 232 OFFCURVE",
"404 250 CURVE SMOOTH",
"404 262 OFFCURVE",
"411 273 OFFCURVE",
"424 277 CURVE SMOOTH",
"427 278 OFFCURVE",
"488 296 OFFCURVE",
"562 296 CURVE SMOOTH",
"625 296 OFFCURVE",
"664 282 OFFCURVE",
"672 279 CURVE SMOOTH"
);
}
);
userData = {
com.fontlab.hintData = {
hhints = (
{
position = -1;
width = 57;
},
{
position = 224;
width = 55;
},
{
position = 239;
width = 57;
},
{
position = 626;
width = 57;
}
);
vhints = (
{
position = 60;
width = 57;
},
{
position = 586;
width = 55;
}
);
};
};
width = 751;
}
);
unicode = 011C;
},
{
glyphname = H;
lastChange = "2019-10-15 22:47:23 +0000";
layers = (
{
layerId = master01;
paths = (
{
closed = 1;
nodes = (
"109 0 OFFCURVE",
"122 13 OFFCURVE",
"122 28 CURVE SMOOTH",
"122 288 LINE",
"563 349 LINE",
"563 28 LINE SMOOTH",
"563 13 OFFCURVE",
"576 0 OFFCURVE",
"592 0 CURVE SMOOTH",
"607 0 OFFCURVE",
"620 13 OFFCURVE",
"620 28 CURVE SMOOTH",
"620 653 LINE SMOOTH",
"620 669 OFFCURVE",
"607 681 OFFCURVE",
"592 681 CURVE SMOOTH",
"576 681 OFFCURVE",
"563 669 OFFCURVE",
"563 653 CURVE SMOOTH",
"563 407 LINE",
"122 346 LINE",
"122 653 LINE SMOOTH",
"122 669 OFFCURVE",
"109 681 OFFCURVE",
"93 681 CURVE SMOOTH",
"77 681 OFFCURVE",
"65 669 OFFCURVE",
"65 653 CURVE SMOOTH",
"65 28 LINE SMOOTH",
"65 13 OFFCURVE",
"77 0 OFFCURVE",
"93 0 CURVE SMOOTH"
);
}
);
userData = {
com.fontlab.hintData = {
hhints = (
{
position = 0;
width = 21;
},
{
position = 661;
width = 20;
}
);
vhints = (
{
position = 65;
width = 57;
},
{
position = 563;
width = 57;
}
);
};
};
width = 685;
}
);
unicode = 0048;
},
{
glyphname = Hcircumflex;
layers = (
{
layerId = master01;
paths = (
{
closed = 1;
nodes = (
"487 777 LINE SMOOTH",
"493 772 OFFCURVE",
"496 765 OFFCURVE",
"496 757 CURVE SMOOTH",
"496 743 OFFCURVE",
"484 731 OFFCURVE",
"470 731 CURVE SMOOTH",
"463 731 OFFCURVE",
"456 733 OFFCURVE",
"451 738 CURVE SMOOTH",
"355 825 LINE",
"240 736 LINE SMOOTH",
"235 732 OFFCURVE",
"229 731 OFFCURVE",
"223 731 CURVE SMOOTH",
"209 731 OFFCURVE",
"197 742 OFFCURVE",
"197 757 CURVE SMOOTH",
"197 765 OFFCURVE",
"200 773 OFFCURVE",
"207 778 CURVE SMOOTH",
"338 888 LINE SMOOTH",
"344 893 OFFCURVE",
"351 895 OFFCURVE",
"357 895 CURVE SMOOTH",
"364 895 OFFCURVE",
"371 892 OFFCURVE",
"377 887 CURVE SMOOTH"
);
},
{
closed = 1;
nodes = (
"607 681 OFFCURVE",
"620 669 OFFCURVE",
"620 653 CURVE SMOOTH",
"620 28 LINE SMOOTH",
"620 13 OFFCURVE",
"607 0 OFFCURVE",
"592 0 CURVE SMOOTH",
"576 0 OFFCURVE",
"563 13 OFFCURVE",
"563 28 CURVE SMOOTH",
"563 349 LINE",
"122 288 LINE",
"122 28 LINE SMOOTH",
"122 13 OFFCURVE",
"109 0 OFFCURVE",
"93 0 CURVE SMOOTH",
"77 0 OFFCURVE",
"65 13 OFFCURVE",
"65 28 CURVE SMOOTH",
"65 653 LINE SMOOTH",
"65 669 OFFCURVE",
"77 681 OFFCURVE",
"93 681 CURVE SMOOTH",
"109 681 OFFCURVE",
"122 669 OFFCURVE",
"122 653 CURVE SMOOTH",
"122 346 LINE",
"563 407 LINE",
"563 653 LINE SMOOTH",
"563 669 OFFCURVE",
"576 681 OFFCURVE",
"592 681 CURVE SMOOTH"
);
}
);
userData = {
com.fontlab.hintData = {
hhints = (
{
position = 0;
width = 21;
},
{
position = 661;
width = 20;
}
);
vhints = (
{
position = 65;
width = 57;
},
{
position = 563;
width = 57;
}
);
};
};
width = 685;
}
);
unicode = 0124;
},
{
glyphname = I;
layers = (
{
layerId = master01;
paths = (
{
closed = 1;
nodes = (
"345 56 LINE SMOOTH",
"362 56 OFFCURVE",
"373 44 OFFCURVE",
"373 28 CURVE SMOOTH",
"373 12 OFFCURVE",
"361 -1 OFFCURVE",
"345 -1 CURVE SMOOTH",
"89 -1 LINE SMOOTH",
"73 -1 OFFCURVE",
"60 12 OFFCURVE",
"60 28 CURVE SMOOTH",
"60 44 OFFCURVE",
"73 56 OFFCURVE",
"89 56 CURVE SMOOTH",
"189 56 LINE",
"189 624 LINE",
"89 624 LINE SMOOTH",
"73 624 OFFCURVE",
"60 637 OFFCURVE",
"60 653 CURVE SMOOTH",
"60 669 OFFCURVE",
"73 681 OFFCURVE",
"89 681 CURVE SMOOTH",
"345 681 LINE SMOOTH",
"361 681 OFFCURVE",
"373 669 OFFCURVE",
"373 653 CURVE SMOOTH",
"373 637 OFFCURVE",
"361 624 OFFCURVE",
"345 624 CURVE SMOOTH",
"246 624 LINE",
"246 56 LINE"
);
}
);
userData = {
com.fontlab.hintData = {
hhints = (
{
position = -1;
width = 57;
},
{
position = 624;
width = 57;
}
);
vhints = (
{
position = 189;
width = 57;
}
);
};
};
width = 433;
}
);
unicode = 0049;
},
{
glyphname = Iacute;
layers = (
{
layerId = master01;
paths = (
{
closed = 1;
nodes = (
"345 56 LINE SMOOTH",
"362 56 OFFCURVE",
"373 44 OFFCURVE",
"373 28 CURVE SMOOTH",
"373 12 OFFCURVE",
"361 -1 OFFCURVE",
"345 -1 CURVE SMOOTH",
"89 -1 LINE SMOOTH",
"73 -1 OFFCURVE",
"60 12 OFFCURVE",
"60 28 CURVE SMOOTH",
"60 44 OFFCURVE",
"73 56 OFFCURVE",
"89 56 CURVE SMOOTH",
"189 56 LINE",
"189 624 LINE",
"89 624 LINE SMOOTH",
"73 624 OFFCURVE",
"60 637 OFFCURVE",
"60 653 CURVE SMOOTH",
"60 669 OFFCURVE",
"73 681 OFFCURVE",
"89 681 CURVE SMOOTH",
"345 681 LINE SMOOTH",
"361 681 OFFCURVE",
"373 669 OFFCURVE",
"373 653 CURVE SMOOTH",
"373 637 OFFCURVE",
"361 624 OFFCURVE",
"345 624 CURVE SMOOTH",
"246 624 LINE",
"246 56 LINE"
);
},
{
closed = 1;
nodes = (
"186 741 LINE SMOOTH",
"179 736 OFFCURVE",
"171 732 OFFCURVE",
"165 732 CURVE SMOOTH",
"151 732 OFFCURVE",
"139 744 OFFCURVE",
"139 759 CURVE SMOOTH",
"139 765 OFFCURVE",
"140 772 OFFCURVE",
"145 776 CURVE SMOOTH",
"271 879 LINE SMOOTH",
"279 886 OFFCURVE",
"289 894 OFFCURVE",
"300 894 CURVE SMOOTH",
"319 894 OFFCURVE",
"334 878 OFFCURVE",
"334 858 CURVE SMOOTH",
"334 849 OFFCURVE",
"331 840 OFFCURVE",
"324 835 CURVE SMOOTH"
);
}
);
userData = {
com.fontlab.hintData = {
hhints = (
{
position = -1;
width = 57;
},
{
position = 624;
width = 57;
}
);
vhints = (
{
position = 189;
width = 57;
}
);
};
};
width = 433;
}
);
unicode = 00CD;
},
{
glyphname = Icircumflex;
layers = (
{
layerId = master01;
paths = (
{
closed = 1;
nodes = (
"345 56 LINE SMOOTH",
"362 56 OFFCURVE",
"373 44 OFFCURVE",
"373 28 CURVE SMOOTH",
"373 12 OFFCURVE",
"361 -1 OFFCURVE",
"345 -1 CURVE SMOOTH",
"89 -1 LINE SMOOTH",
"73 -1 OFFCURVE",
"60 12 OFFCURVE",
"60 28 CURVE SMOOTH",
"60 44 OFFCURVE",
"73 56 OFFCURVE",
"89 56 CURVE SMOOTH",
"189 56 LINE",
"189 624 LINE",
"89 624 LINE SMOOTH",
"73 624 OFFCURVE",
"60 637 OFFCURVE",
"60 653 CURVE SMOOTH",
"60 669 OFFCURVE",
"73 681 OFFCURVE",
"89 681 CURVE SMOOTH",
"345 681 LINE SMOOTH",
"361 681 OFFCURVE",
"373 669 OFFCURVE",
"373 653 CURVE SMOOTH",
"373 637 OFFCURVE",
"361 624 OFFCURVE",
"345 624 CURVE SMOOTH",
"246 624 LINE",
"246 56 LINE"
);
},
{
closed = 1;
nodes = (
"363 777 LINE SMOOTH",
"369 772 OFFCURVE",
"372 765 OFFCURVE",
"372 757 CURVE SMOOTH",
"372 743 OFFCURVE",
"360 731 OFFCURVE",
"346 731 CURVE SMOOTH",
"339 731 OFFCURVE",
"332 733 OFFCURVE",
"327 738 CURVE SMOOTH",
"231 825 LINE",
"116 736 LINE SMOOTH",
"111 732 OFFCURVE",
"105 731 OFFCURVE",
"99 731 CURVE SMOOTH",
"85 731 OFFCURVE",
"73 742 OFFCURVE",
"73 757 CURVE SMOOTH",
"73 765 OFFCURVE",
"76 773 OFFCURVE",
"83 778 CURVE SMOOTH",
"214 888 LINE SMOOTH",
"220 893 OFFCURVE",
"227 895 OFFCURVE",
"233 895 CURVE SMOOTH",
"240 895 OFFCURVE",
"247 892 OFFCURVE",
"253 887 CURVE SMOOTH"
);
}
);
userData = {
com.fontlab.hintData = {
hhints = (
{
position = -1;
width = 57;
},
{
position = 624;
width = 57;
}
);
vhints = (
{
position = 189;
width = 57;
}
);
};
};
width = 433;
}
);
unicode = 00CE;
},
{
glyphname = Idieresis;
layers = (
{
layerId = master01;
paths = (
{
closed = 1;
nodes = (
"345 56 LINE SMOOTH",
"362 56 OFFCURVE",
"373 44 OFFCURVE",
"373 28 CURVE SMOOTH",
"373 12 OFFCURVE",
"361 -1 OFFCURVE",
"345 -1 CURVE SMOOTH",
"89 -1 LINE SMOOTH",
"73 -1 OFFCURVE",
"60 12 OFFCURVE",
"60 28 CURVE SMOOTH",
"60 44 OFFCURVE",
"73 56 OFFCURVE",
"89 56 CURVE SMOOTH",
"189 56 LINE",
"189 624 LINE",
"89 624 LINE SMOOTH",
"73 624 OFFCURVE",
"60 637 OFFCURVE",
"60 653 CURVE SMOOTH",
"60 669 OFFCURVE",
"73 681 OFFCURVE",
"89 681 CURVE SMOOTH",
"345 681 LINE SMOOTH",
"361 681 OFFCURVE",
"373 669 OFFCURVE",
"373 653 CURVE SMOOTH",
"373 637 OFFCURVE",
"361 624 OFFCURVE",
"345 624 CURVE SMOOTH",
"246 624 LINE",
"246 56 LINE"
);
},
{
closed = 1;
nodes = (
"190 753 OFFCURVE",
"168 733 OFFCURVE",
"139 733 CURVE SMOOTH",
"114 733 OFFCURVE",
"94 749 OFFCURVE",
"94 772 CURVE SMOOTH",
"94 795 OFFCURVE",
"117 816 OFFCURVE",
"145 816 CURVE SMOOTH",
"168 816 OFFCURVE",
"190 799 OFFCURVE",
"190 777 CURVE SMOOTH"
);
},
{
closed = 1;
nodes = (
"349 753 OFFCURVE",
"327 733 OFFCURVE",
"298 733 CURVE SMOOTH",
"273 733 OFFCURVE",
"253 749 OFFCURVE",
"253 772 CURVE SMOOTH",
"253 795 OFFCURVE",
"276 816 OFFCURVE",
"304 816 CURVE SMOOTH",
"327 816 OFFCURVE",
"349 799 OFFCURVE",
"349 777 CURVE SMOOTH"
);
}
);
userData = {
com.fontlab.hintData = {
hhints = (
{
position = -1;
width = 57;
},
{
position = 624;
width = 57;
},
{
position = 733;
width = 83;
}
);
vhints = (
{
position = 94;
width = 96;
},
{
position = 189;
width = 57;
},
{
position = 253;
width = 96;
}
);
};
};
width = 433;
}
);
unicode = 00CF;
},
{
glyphname = Igrave;
layers = (
{
layerId = master01;
paths = (
{
closed = 1;
nodes = (
"345 56 LINE SMOOTH",
"362 56 OFFCURVE",
"373 44 OFFCURVE",
"373 28 CURVE SMOOTH",
"373 12 OFFCURVE",
"361 -1 OFFCURVE",
"345 -1 CURVE SMOOTH",
"89 -1 LINE SMOOTH",
"73 -1 OFFCURVE",
"60 12 OFFCURVE",
"60 28 CURVE SMOOTH",
"60 44 OFFCURVE",
"73 56 OFFCURVE",
"89 56 CURVE SMOOTH",
"189 56 LINE",
"189 624 LINE",
"89 624 LINE SMOOTH",
"73 624 OFFCURVE",
"60 637 OFFCURVE",
"60 653 CURVE SMOOTH",
"60 669 OFFCURVE",
"73 681 OFFCURVE",
"89 681 CURVE SMOOTH",
"345 681 LINE SMOOTH",
"361 681 OFFCURVE",
"373 669 OFFCURVE",
"373 653 CURVE SMOOTH",
"373 637 OFFCURVE",
"361 624 OFFCURVE",
"345 624 CURVE SMOOTH",
"246 624 LINE",
"246 56 LINE"
);
},
{
closed = 1;
nodes = (
"133 846 LINE SMOOTH",
"126 853 OFFCURVE",
"122 861 OFFCURVE",
"122 871 CURVE SMOOTH",
"122 889 OFFCURVE",
"139 905 OFFCURVE",
"157 905 CURVE SMOOTH",
"168 905 OFFCURVE",
"179 898 OFFCURVE",
"186 890 CURVE SMOOTH",
"291 760 LINE SMOOTH",
"296 753 OFFCURVE",
"298 748 OFFCURVE",
"298 742 CURVE SMOOTH",
"298 727 OFFCURVE",
"284 716 OFFCURVE",
"270 716 CURVE SMOOTH",
"262 716 OFFCURVE",
"256 720 OFFCURVE",
"251 725 CURVE SMOOTH"
);
}
);
userData = {
com.fontlab.hintData = {
hhints = (
{
position = -1;
width = 57;
},
{
position = 624;
width = 57;
}
);
vhints = (
{
position = 189;
width = 57;
}
);
};
};
width = 433;
}
);
unicode = 00CC;
},
{
glyphname = J;
layers = (
{
layerId = master01;
paths = (
{
closed = 1;
nodes = (
"424 677 LINE SMOOTH",
"439 677 OFFCURVE",
"452 664 OFFCURVE",
"452 649 CURVE SMOOTH",
"452 633 OFFCURVE",
"439 620 OFFCURVE",
"424 620 CURVE SMOOTH",
"399 620 LINE",
"399 159 LINE SMOOTH",
"399 86 OFFCURVE",
"354 0 OFFCURVE",
"228 0 CURVE SMOOTH",
"71 0 OFFCURVE",
"50 128 OFFCURVE",
"50 169 CURVE SMOOTH",
"50 186 OFFCURVE",
"61 200 OFFCURVE",
"79 200 CURVE SMOOTH",
"95 200 OFFCURVE",
"107 187 OFFCURVE",
"107 171 CURVE SMOOTH",
"107 150 OFFCURVE",
"112 57 OFFCURVE",
"228 57 CURVE SMOOTH",
"331 57 OFFCURVE",
"342 128 OFFCURVE",
"342 159 CURVE SMOOTH",
"342 620 LINE",
"219 620 LINE SMOOTH",
"203 620 OFFCURVE",
"190 633 OFFCURVE",
"190 649 CURVE SMOOTH",
"190 664 OFFCURVE",
"203 677 OFFCURVE",
"219 677 CURVE SMOOTH"
);
}
);
userData = {
com.fontlab.hintData = {
hhints = (
{
position = 0;
width = 57;
},
{
position = 620;
width = 57;
}
);
vhints = (
{
position = 50;
width = 57;
},
{
position = 342;
width = 57;
}
);
};
};
width = 472;
}
);
unicode = 004A;
},
{
glyphname = Jcircumflex;
layers = (
{
layerId = master01;
paths = (
{
closed = 1;
nodes = (
"466 777 LINE SMOOTH",
"472 772 OFFCURVE",
"475 765 OFFCURVE",
"475 757 CURVE SMOOTH",
"475 743 OFFCURVE",
"463 731 OFFCURVE",
"449 731 CURVE SMOOTH",
"442 731 OFFCURVE",
"435 733 OFFCURVE",
"430 738 CURVE SMOOTH",
"334 825 LINE",
"219 736 LINE SMOOTH",
"214 732 OFFCURVE",
"208 731 OFFCURVE",
"202 731 CURVE SMOOTH",
"188 731 OFFCURVE",
"176 742 OFFCURVE",
"176 757 CURVE SMOOTH",
"176 765 OFFCURVE",
"179 773 OFFCURVE",
"186 778 CURVE SMOOTH",
"317 888 LINE SMOOTH",
"323 893 OFFCURVE",
"330 895 OFFCURVE",
"336 895 CURVE SMOOTH",
"343 895 OFFCURVE",
"350 892 OFFCURVE",
"356 887 CURVE SMOOTH"
);
},
{
closed = 1;
nodes = (
"424 677 LINE SMOOTH",
"439 677 OFFCURVE",
"452 664 OFFCURVE",
"452 649 CURVE SMOOTH",
"452 633 OFFCURVE",
"439 620 OFFCURVE",
"424 620 CURVE SMOOTH",
"399 620 LINE",
"399 159 LINE SMOOTH",
"399 86 OFFCURVE",
"354 0 OFFCURVE",
"228 0 CURVE SMOOTH",
"71 0 OFFCURVE",
"50 128 OFFCURVE",
"50 169 CURVE SMOOTH",
"50 186 OFFCURVE",
"61 200 OFFCURVE",
"79 200 CURVE SMOOTH",
"95 200 OFFCURVE",
"107 187 OFFCURVE",
"107 171 CURVE SMOOTH",
"107 150 OFFCURVE",
"112 57 OFFCURVE",
"228 57 CURVE SMOOTH",
"331 57 OFFCURVE",
"342 128 OFFCURVE",
"342 159 CURVE SMOOTH",
"342 620 LINE",
"219 620 LINE SMOOTH",
"203 620 OFFCURVE",
"190 633 OFFCURVE",
"190 649 CURVE SMOOTH",
"190 664 OFFCURVE",
"203 677 OFFCURVE",
"219 677 CURVE SMOOTH"
);
}
);
userData = {
com.fontlab.hintData = {
hhints = (
{
position = 0;
width = 57;
},
{
position = 620;
width = 57;
}
);
vhints = (
{
position = 50;
width = 57;
},
{
position = 342;
width = 57;
}
);
};
};
width = 472;
}
);
unicode = 0134;
},
{
glyphname = K;
layers = (
{
layerId = master01;
paths = (
{
closed = 1;
nodes = (
"509 49 LINE SMOOTH",
"517 42 OFFCURVE",
"519 35 OFFCURVE",
"519 27 CURVE SMOOTH",
"519 11 OFFCURVE",
"507 -1 OFFCURVE",
"492 -1 CURVE SMOOTH",
"486 -1 OFFCURVE",
"480 1 OFFCURVE",
"475 5 CURVE SMOOTH",
"120 282 LINE",
"120 28 LINE SMOOTH",
"120 13 OFFCURVE",
"107 0 OFFCURVE",
"92 0 CURVE SMOOTH",
"77 0 OFFCURVE",
"65 13 OFFCURVE",
"65 28 CURVE SMOOTH",
"65 654 LINE SMOOTH",
"65 669 OFFCURVE",
"77 681 OFFCURVE",
"92 681 CURVE SMOOTH",
"107 681 OFFCURVE",
"120 669 OFFCURVE",
"120 654 CURVE SMOOTH",
"120 389 LINE",
"454 675 LINE SMOOTH",
"459 679 OFFCURVE",
"465 682 OFFCURVE",
"472 682 CURVE SMOOTH",
"486 682 OFFCURVE",
"499 668 OFFCURVE",
"499 654 CURVE SMOOTH",
"499 646 OFFCURVE",
"496 638 OFFCURVE",
"490 633 CURVE SMOOTH",
"141 335 LINE"
);
}
);
userData = {
com.fontlab.hintData = {
hhints = (
{
position = 0;
width = 20;
},
{
position = 661;
width = 20;
}
);
vhints = (
{
position = 65;
width = 55;
}
);
};
};
width = 570;
}
);
unicode = 004B;
},
{
glyphname = L;
layers = (
{
layerId = master01;
paths = (
{
closed = 1;
nodes = (
"94 0 LINE SMOOTH",
"93.492 -0.034 OFFCURVE",
"92.985 -0.051 OFFCURVE",
"92.48 -0.051 CURVE SMOOTH",
"78.068 -0.051 OFFCURVE",
"65 13.508 OFFCURVE",
"65 28 CURVE SMOOTH",
"65 653 LINE SMOOTH",
"65 668 OFFCURVE",
"77 681 OFFCURVE",
"93 681 CURVE SMOOTH",
"108 681 OFFCURVE",
"121 668 OFFCURVE",
"121 653 CURVE SMOOTH",
"121 58 LINE",
"436 80 LINE SMOOTH",
"436.715 80.042 OFFCURVE",
"437.422 80.063 OFFCURVE",
"438.122 80.063 CURVE SMOOTH",
"454.07 80.063 OFFCURVE",
"466 69.243 OFFCURVE",
"466 52 CURVE SMOOTH",
"466 38 OFFCURVE",
"455 25 OFFCURVE",
"440 24 CURVE SMOOTH"
);
}
);
userData = {
com.fontlab.hintData = {
hhints = (
{
position = 0;
width = 21;
},
{
position = 661;
width = 20;
}
);
vhints = (
{
position = 65;
width = 56;
}
);
};
};
width = 477;
}
);
unicode = 004C;
},
{
glyphname = Lacute;
layers = (
{
layerId = master01;
paths = (
{
closed = 1;
nodes = (
"94 0 LINE SMOOTH",
"93.492 -0.034 OFFCURVE",
"92.985 -0.051 OFFCURVE",
"92.48 -0.051 CURVE SMOOTH",
"78.068 -0.051 OFFCURVE",
"65 13.508 OFFCURVE",
"65 28 CURVE SMOOTH",
"65 653 LINE SMOOTH",
"65 668 OFFCURVE",
"77 681 OFFCURVE",
"93 681 CURVE SMOOTH",
"108 681 OFFCURVE",
"121 668 OFFCURVE",
"121 653 CURVE SMOOTH",
"121 58 LINE",
"436 80 LINE SMOOTH",
"436.715 80.042 OFFCURVE",
"437.422 80.063 OFFCURVE",
"438.122 80.063 CURVE SMOOTH",
"454.07 80.063 OFFCURVE",
"466 69.243 OFFCURVE",
"466 52 CURVE SMOOTH",
"466 38 OFFCURVE",
"455 25 OFFCURVE",
"440 24 CURVE SMOOTH"
);
},
{
closed = 1;
nodes = (
"195 759 LINE SMOOTH",
"188 754 OFFCURVE",
"180 750 OFFCURVE",
"174 750 CURVE SMOOTH",
"160 750 OFFCURVE",
"148 762 OFFCURVE",
"148 777 CURVE SMOOTH",
"148 783 OFFCURVE",
"149 790 OFFCURVE",
"154 794 CURVE SMOOTH",
"280 897 LINE SMOOTH",
"288 904 OFFCURVE",
"298 912 OFFCURVE",
"309 912 CURVE SMOOTH",
"328 912 OFFCURVE",
"343 896 OFFCURVE",
"343 876 CURVE SMOOTH",
"343 867 OFFCURVE",
"340 858 OFFCURVE",
"333 853 CURVE SMOOTH"
);
}
);
userData = {
com.fontlab.hintData = {
hhints = (
{
position = 0;
width = 21;
},
{
position = 661;
width = 20;
}
);
vhints = (
{
position = 65;
width = 56;
}
);
};
};
width = 477;
}
);
unicode = 0139;
},
{
glyphname = Lcaron;
layers = (
{
layerId = master01;
paths = (
{
closed = 1;
nodes = (
"94 0 LINE SMOOTH",
"93.492 -0.034 OFFCURVE",
"92.985 -0.051 OFFCURVE",
"92.48 -0.051 CURVE SMOOTH",
"78.068 -0.051 OFFCURVE",
"65 13.508 OFFCURVE",
"65 28 CURVE SMOOTH",
"65 653 LINE SMOOTH",
"65 668 OFFCURVE",
"77 681 OFFCURVE",
"93 681 CURVE SMOOTH",
"108 681 OFFCURVE",
"121 668 OFFCURVE",
"121 653 CURVE SMOOTH",
"121 58 LINE",
"436 80 LINE SMOOTH",
"436.715 80.042 OFFCURVE",
"437.422 80.063 OFFCURVE",
"438.122 80.063 CURVE SMOOTH",
"454.07 80.063 OFFCURVE",
"466 69.243 OFFCURVE",
"466 52 CURVE SMOOTH",
"466 38 OFFCURVE",
"455 25 OFFCURVE",
"440 24 CURVE SMOOTH"
);
},
{
closed = 1;
nodes = (
"19 840 LINE SMOOTH",
"13 845 OFFCURVE",
"10 852 OFFCURVE",
"10 860 CURVE SMOOTH",
"10 874 OFFCURVE",
"22 886 OFFCURVE",
"36 886 CURVE SMOOTH",
"43 886 OFFCURVE",
"50 884 OFFCURVE",
"55 879 CURVE SMOOTH",
"151 792 LINE",
"266 881 LINE SMOOTH",
"271 885 OFFCURVE",
"277 886 OFFCURVE",
"283 886 CURVE SMOOTH",
"297 886 OFFCURVE",
"309 875 OFFCURVE",
"309 860 CURVE SMOOTH",
"309 852 OFFCURVE",
"306 844 OFFCURVE",
"299 839 CURVE SMOOTH",
"168 729 LINE SMOOTH",
"162 724 OFFCURVE",
"155 722 OFFCURVE",
"149 722 CURVE SMOOTH",
"142 722 OFFCURVE",
"135 725 OFFCURVE",
"129 730 CURVE SMOOTH"
);
}
);
userData = {
com.fontlab.hintData = {
hhints = (
{
position = 0;
width = 21;
},
{
position = 661;
width = 20;
}
);
vhints = (
{
position = 65;
width = 56;
}
);
};
};
width = 477;
}
);
unicode = 013D;
},
{
glyphname = Lslash;
layers = (
{
layerId = master01;
paths = (
{
closed = 1;
nodes = (
"517 39 OFFCURVE",
"508 25 OFFCURVE",
"491 24 CURVE SMOOTH",
"144 0 LINE SMOOTH",
"143.492 -0.034 OFFCURVE",
"142.986 -0.051 OFFCURVE",
"142.483 -0.051 CURVE SMOOTH",
"128.134 -0.051 OFFCURVE",
"116 13.508 OFFCURVE",
"116 28 CURVE SMOOTH",
"116 295 LINE",
"61 259 LINE SMOOTH",
"56 256 OFFCURVE",
"51 255 OFFCURVE",
"45 255 CURVE SMOOTH",
"32 255 OFFCURVE",
"17 264 OFFCURVE",
"17 282 CURVE SMOOTH",
"17 292 OFFCURVE",
"21 301 OFFCURVE",
"30 307 CURVE SMOOTH",
"116 362 LINE",
"116 653 LINE SMOOTH",
"116 668 OFFCURVE",
"128 681 OFFCURVE",
"144 681 CURVE SMOOTH",
"159 681 OFFCURVE",
"172 668 OFFCURVE",
"172 653 CURVE SMOOTH",
"172 397 LINE",
"228 433 LINE SMOOTH",
"232 436 OFFCURVE",
"238 437 OFFCURVE",
"243 437 CURVE SMOOTH",
"258 437 OFFCURVE",
"272 425 OFFCURVE",
"272 408 CURVE SMOOTH",
"272 399 OFFCURVE",
"267 390 OFFCURVE",
"259 385 CURVE SMOOTH",
"172 330 LINE",
"172 58 LINE",
"487 80 LINE SMOOTH",
"487.733 80.046 OFFCURVE",
"488.46 80.069 OFFCURVE",
"489.18 80.069 CURVE SMOOTH",
"504.167 80.069 OFFCURVE",
"516.046 70.221 OFFCURVE",
"517 54 CURVE SMOOTH"
);
}
);
userData = {
com.fontlab.hintData = {
hhints = (
{
position = 0;
width = 21;
},
{
position = 661;
width = 20;
}
);
vhints = (
{
position = 116;
width = 56;
}
);
};
};
width = 528;
}
);
unicode = 0141;
},
{
glyphname = M;
layers = (
{
layerId = master01;
paths = (
{
closed = 1;
nodes = (
"401 0 OFFCURVE",
"390 8 OFFCURVE",
"387 19 CURVE SMOOTH",
"220 545 LINE",
"105 22 LINE SMOOTH",
"102 8 OFFCURVE",
"90 0 OFFCURVE",
"77 0 CURVE SMOOTH",
"59 0 OFFCURVE",
"50 15 OFFCURVE",
"50 25 CURVE SMOOTH",
"50 30 OFFCURVE",
"52 41 OFFCURVE",
"54 49 CURVE SMOOTH",
"188 659 LINE SMOOTH",
"191 673 OFFCURVE",
"202 681 OFFCURVE",
"216 681 CURVE SMOOTH",
"228 681 OFFCURVE",
"238 673 OFFCURVE",
"242 662 CURVE SMOOTH",
"415 115 LINE",
"613 663 LINE SMOOTH",
"617 675 OFFCURVE",
"628 681 OFFCURVE",
"641 681 CURVE SMOOTH",
"654 680 OFFCURVE",
"663 672 OFFCURVE",
"666 659 CURVE SMOOTH",
"802 52 LINE SMOOTH",
"805 40 OFFCURVE",
"806 31 OFFCURVE",
"806 24 CURVE SMOOTH",
"806 12 OFFCURVE",
"795 0 OFFCURVE",
"779 0 CURVE SMOOTH",
"764 0 OFFCURVE",
"754 9 OFFCURVE",
"751 22 CURVE SMOOTH",
"633 553 LINE",
"440 18 LINE SMOOTH",
"436 7 OFFCURVE",
"425 0 OFFCURVE",
"413 0 CURVE SMOOTH"
);
}
);
userData = {
com.fontlab.hintData = {
hhints = (
{
position = 0;
width = 21;
},
{
position = 661;
width = 20;
}
);
vhints = (
{
position = 50;
width = 55;
},
{
position = 751;
width = 55;
}
);
};
};
width = 857;
}
);
unicode = 004D;
},
{
glyphname = N;
layers = (
{
layerId = master01;
paths = (
{
closed = 1;
nodes = (
"517 0 OFFCURVE",
"508 4 OFFCURVE",
"503 12 CURVE SMOOTH",
"122 563 LINE",
"121 28 LINE SMOOTH",
"121 12 OFFCURVE",
"109 0 OFFCURVE",
"93 0 CURVE SMOOTH",
"78 0 OFFCURVE",
"65 13 OFFCURVE",
"65 28 CURVE SMOOTH",
"66 653 LINE SMOOTH",
"66 667 OFFCURVE",
"77 681 OFFCURVE",
"93 681 CURVE SMOOTH",
"102 681 OFFCURVE",
"111 677 OFFCURVE",
"117 669 CURVE SMOOTH",
"498 117 LINE",
"498 654 LINE SMOOTH",
"498 669 OFFCURVE",
"510 682 OFFCURVE",
"526 682 CURVE SMOOTH",
"541 682 OFFCURVE",
"554 669 OFFCURVE",
"554 654 CURVE SMOOTH",
"554 28 LINE SMOOTH",
"554 13 OFFCURVE",
"542 0 OFFCURVE",
"526 0 CURVE SMOOTH"
);
}
);
userData = {
com.fontlab.hintData = {
hhints = (
{
position = 0;
width = 21;
},
{
position = 661;
width = 20;
}
);
vhints = (
{
position = 65;
width = 56;
},
{
position = 498;
width = 56;
}
);
};
};
width = 619;
}
);
unicode = 004E;
},
{
glyphname = Nacute;
layers = (
{
layerId = master01;
paths = (
{
closed = 1;
nodes = (
"517 0 OFFCURVE",
"508 4 OFFCURVE",
"503 12 CURVE SMOOTH",
"122 563 LINE",
"121 28 LINE SMOOTH",
"121 12 OFFCURVE",
"109 0 OFFCURVE",
"93 0 CURVE SMOOTH",
"78 0 OFFCURVE",
"65 13 OFFCURVE",
"65 28 CURVE SMOOTH",
"66 653 LINE SMOOTH",
"66 667 OFFCURVE",
"77 681 OFFCURVE",
"93 681 CURVE SMOOTH",
"102 681 OFFCURVE",
"111 677 OFFCURVE",
"117 669 CURVE SMOOTH",
"498 117 LINE",
"498 654 LINE SMOOTH",
"498 669 OFFCURVE",
"510 682 OFFCURVE",
"526 682 CURVE SMOOTH",
"541 682 OFFCURVE",
"554 669 OFFCURVE",
"554 654 CURVE SMOOTH",
"554 28 LINE SMOOTH",
"554 13 OFFCURVE",
"542 0 OFFCURVE",
"526 0 CURVE SMOOTH"
);
},
{
closed = 1;
nodes = (
"280 775 LINE SMOOTH",
"273 770 OFFCURVE",
"265 766 OFFCURVE",
"259 766 CURVE SMOOTH",
"245 766 OFFCURVE",
"233 778 OFFCURVE",
"233 793 CURVE SMOOTH",
"233 799 OFFCURVE",
"234 806 OFFCURVE",
"239 810 CURVE SMOOTH",
"365 913 LINE SMOOTH",
"373 920 OFFCURVE",
"383 928 OFFCURVE",
"394 928 CURVE SMOOTH",
"413 928 OFFCURVE",
"428 912 OFFCURVE",
"428 892 CURVE SMOOTH",
"428 883 OFFCURVE",
"425 874 OFFCURVE",
"418 869 CURVE SMOOTH"
);
}
);
userData = {
com.fontlab.hintData = {
hhints = (
{
position = 0;
width = 21;
},
{
position = 661;
width = 20;
}
);
vhints = (
{
position = 65;
width = 56;
},
{
position = 498;
width = 56;
}
);
};
};
width = 619;
}
);
unicode = 0143;
},
{
glyphname = Ncaron;
layers = (
{
layerId = master01;
paths = (
{
closed = 1;
nodes = (
"517 0 OFFCURVE",
"508 4 OFFCURVE",
"503 12 CURVE SMOOTH",
"122 563 LINE",
"121 28 LINE SMOOTH",
"121 12 OFFCURVE",
"109 0 OFFCURVE",
"93 0 CURVE SMOOTH",
"78 0 OFFCURVE",
"65 13 OFFCURVE",
"65 28 CURVE SMOOTH",
"66 653 LINE SMOOTH",
"66 667 OFFCURVE",
"77 681 OFFCURVE",
"93 681 CURVE SMOOTH",
"102 681 OFFCURVE",
"111 677 OFFCURVE",
"117 669 CURVE SMOOTH",
"498 117 LINE",
"498 654 LINE SMOOTH",
"498 669 OFFCURVE",
"510 682 OFFCURVE",
"526 682 CURVE SMOOTH",
"541 682 OFFCURVE",
"554 669 OFFCURVE",
"554 654 CURVE SMOOTH",
"554 28 LINE SMOOTH",
"554 13 OFFCURVE",
"542 0 OFFCURVE",
"526 0 CURVE SMOOTH"
);
},
{
closed = 1;
nodes = (
"178 840 LINE SMOOTH",
"172 845 OFFCURVE",
"169 852 OFFCURVE",
"169 860 CURVE SMOOTH",
"169 874 OFFCURVE",
"181 886 OFFCURVE",
"195 886 CURVE SMOOTH",
"202 886 OFFCURVE",
"209 884 OFFCURVE",
"214 879 CURVE SMOOTH",
"310 792 LINE",
"425 881 LINE SMOOTH",
"430 885 OFFCURVE",
"436 886 OFFCURVE",
"442 886 CURVE SMOOTH",
"456 886 OFFCURVE",
"468 875 OFFCURVE",
"468 860 CURVE SMOOTH",
"468 852 OFFCURVE",
"465 844 OFFCURVE",
"458 839 CURVE SMOOTH",
"327 729 LINE SMOOTH",
"321 724 OFFCURVE",
"314 722 OFFCURVE",
"308 722 CURVE SMOOTH",
"301 722 OFFCURVE",
"294 725 OFFCURVE",
"288 730 CURVE SMOOTH"
);
}
);
userData = {
com.fontlab.hintData = {
hhints = (
{
position = 0;
width = 21;
},
{
position = 661;
width = 20;
}
);
vhints = (
{
position = 65;
width = 56;
},
{
position = 498;
width = 56;
}
);
};
};
width = 619;
}
);
unicode = 0147;
},
{
glyphname = Ntilde;
layers = (
{
layerId = master01;
paths = (
{
closed = 1;
nodes = (
"517 0 OFFCURVE",
"508 4 OFFCURVE",
"503 12 CURVE SMOOTH",
"122 563 LINE",
"121 28 LINE SMOOTH",
"121 12 OFFCURVE",
"109 0 OFFCURVE",
"93 0 CURVE SMOOTH",
"78 0 OFFCURVE",
"65 13 OFFCURVE",
"65 28 CURVE SMOOTH",
"66 653 LINE SMOOTH",
"66 667 OFFCURVE",
"77 681 OFFCURVE",
"93 681 CURVE SMOOTH",
"102 681 OFFCURVE",
"111 677 OFFCURVE",
"117 669 CURVE SMOOTH",
"498 117 LINE",
"498 654 LINE SMOOTH",
"498 669 OFFCURVE",
"510 682 OFFCURVE",
"526 682 CURVE SMOOTH",
"541 682 OFFCURVE",
"554 669 OFFCURVE",
"554 654 CURVE SMOOTH",
"554 28 LINE SMOOTH",
"554 13 OFFCURVE",
"542 0 OFFCURVE",
"526 0 CURVE SMOOTH"
);
},
{
closed = 1;
nodes = (
"450 843 OFFCURVE",
"460 850 OFFCURVE",
"470 850 CURVE SMOOTH",
"484 850 OFFCURVE",
"496 839 OFFCURVE",
"496 826 CURVE SMOOTH",
"496 821 OFFCURVE",
"495 818 OFFCURVE",
"493 812 CURVE SMOOTH",
"482 781 OFFCURVE",
"451 713 OFFCURVE",
"386 713 CURVE SMOOTH",
"341 713 OFFCURVE",
"317 745 OFFCURVE",
"297 773 CURVE SMOOTH",
"278 799 OFFCURVE",
"267 821 OFFCURVE",
"250 821 CURVE SMOOTH",
"237 821 OFFCURVE",
"211 804 OFFCURVE",
"195 755 CURVE SMOOTH",
"191 742 OFFCURVE",
"182 736 OFFCURVE",
"170 736 CURVE SMOOTH",
"156 736 OFFCURVE",
"144 747 OFFCURVE",
"144 761 CURVE SMOOTH",
"144 776 OFFCURVE",
"154 793 OFFCURVE",
"160 804 CURVE SMOOTH",
"182 842 OFFCURVE",
"213 863 OFFCURVE",
"250 863 CURVE SMOOTH",
"295 863 OFFCURVE",
"319 830 OFFCURVE",
"339 803 CURVE SMOOTH",
"358 777 OFFCURVE",
"369 755 OFFCURVE",
"386 755 CURVE SMOOTH",
"416 755 OFFCURVE",
"435 804 OFFCURVE",
"446 833 CURVE SMOOTH"
);
}
);
userData = {
com.fontlab.hintData = {
hhints = (
{
position = 0;
width = 21;
},
{
position = 661;
width = 20;
},
{
position = 713;
width = 42;
},
{
position = 821;
width = 42;
}
);
vhints = (
{
position = 65;
width = 56;
},
{
position = 144;
width = 51;
},
{
position = 446;
width = 50;
},
{
position = 498;
width = 56;
}
);
};
};
width = 619;
}
);
unicode = 00D1;
},
{
glyphname = O;
lastChange = "2019-10-15 22:47:41 +0000";
layers = (
{
layerId = master01;
paths = (
{
closed = 1;
nodes = (
"465 -2 OFFCURVE",
"600 167 OFFCURVE",
"600 367 CURVE SMOOTH",
"600 539 OFFCURVE",
"495 682 OFFCURVE",
"351 682 CURVE SMOOTH",
"195 682 OFFCURVE",
"60 513 OFFCURVE",
"60 313 CURVE SMOOTH",
"60 143 OFFCURVE",
"164 -2 OFFCURVE",
"309 -2 CURVE SMOOTH"
);
},
{
closed = 1;
nodes = (
"195 50 OFFCURVE",
"113 169 OFFCURVE",
"113 313 CURVE SMOOTH",
"113 489 OFFCURVE",
"221 630 OFFCURVE",
"344 630 CURVE SMOOTH",
"463 630 OFFCURVE",
"547 498 OFFCURVE",
"547 363 CURVE SMOOTH",
"547 193 OFFCURVE",
"432 50 OFFCURVE",
"309 50 CURVE SMOOTH"
);
}
);
userData = {
com.fontlab.hintData = {
hhints = (
{
position = -2;
width = 52;
},
{
position = 630;
width = 52;
}
);
vhints = (
{
position = 60;
width = 53;
},
{
position = 547;
width = 53;
}
);
};
};
width = 660;
}
);
unicode = 004F;
},
{
glyphname = Oacute;
layers = (
{
layerId = master01;
paths = (
{
closed = 1;
nodes = (
"164 -2 OFFCURVE",
"60 143 OFFCURVE",
"60 313 CURVE SMOOTH",
"60 513 OFFCURVE",
"195 682 OFFCURVE",
"351 682 CURVE SMOOTH",
"495 682 OFFCURVE",
"600 539 OFFCURVE",
"600 367 CURVE SMOOTH",
"600 167 OFFCURVE",
"465 -2 OFFCURVE",
"309 -2 CURVE SMOOTH"
);
},
{
closed = 1;
nodes = (
"221 630 OFFCURVE",
"113 489 OFFCURVE",
"113 313 CURVE SMOOTH",
"113 169 OFFCURVE",
"195 50 OFFCURVE",
"309 50 CURVE SMOOTH",
"432 50 OFFCURVE",
"547 193 OFFCURVE",
"547 363 CURVE SMOOTH",
"547 498 OFFCURVE",
"463 630 OFFCURVE",
"344 630 CURVE SMOOTH"
);
},
{
closed = 1;
nodes = (
"317 741 LINE SMOOTH",
"310 736 OFFCURVE",
"302 732 OFFCURVE",
"296 732 CURVE SMOOTH",
"282 732 OFFCURVE",
"270 744 OFFCURVE",
"270 759 CURVE SMOOTH",
"270 765 OFFCURVE",
"271 772 OFFCURVE",
"276 776 CURVE SMOOTH",
"402 879 LINE SMOOTH",
"410 886 OFFCURVE",
"420 894 OFFCURVE",
"431 894 CURVE SMOOTH",
"450 894 OFFCURVE",
"465 878 OFFCURVE",
"465 858 CURVE SMOOTH",
"465 849 OFFCURVE",
"462 840 OFFCURVE",
"455 835 CURVE SMOOTH"
);
}
);
userData = {
com.fontlab.hintData = {
hhints = (
{
position = -2;
width = 52;
},
{
position = 630;
width = 52;
}
);
vhints = (
{
position = 60;
width = 53;
},
{
position = 547;
width = 53;
}
);
};
};
width = 660;
}
);
unicode = 00D3;
},
{
glyphname = Ocircumflex;
layers = (
{
layerId = master01;
paths = (
{
closed = 1;
nodes = (
"164 -2 OFFCURVE",
"60 143 OFFCURVE",
"60 313 CURVE SMOOTH",
"60 513 OFFCURVE",
"195 682 OFFCURVE",
"351 682 CURVE SMOOTH",
"495 682 OFFCURVE",
"600 539 OFFCURVE",
"600 367 CURVE SMOOTH",
"600 167 OFFCURVE",
"465 -2 OFFCURVE",
"309 -2 CURVE SMOOTH"
);
},
{
closed = 1;
nodes = (
"221 630 OFFCURVE",
"113 489 OFFCURVE",
"113 313 CURVE SMOOTH",
"113 169 OFFCURVE",
"195 50 OFFCURVE",
"309 50 CURVE SMOOTH",
"432 50 OFFCURVE",
"547 193 OFFCURVE",
"547 363 CURVE SMOOTH",
"547 498 OFFCURVE",
"463 630 OFFCURVE",
"344 630 CURVE SMOOTH"
);
},
{
closed = 1;
nodes = (
"499 777 LINE SMOOTH",
"505 772 OFFCURVE",
"508 765 OFFCURVE",
"508 757 CURVE SMOOTH",
"508 743 OFFCURVE",
"496 731 OFFCURVE",
"482 731 CURVE SMOOTH",
"475 731 OFFCURVE",
"468 733 OFFCURVE",
"463 738 CURVE SMOOTH",
"367 825 LINE",
"252 736 LINE SMOOTH",
"247 732 OFFCURVE",
"241 731 OFFCURVE",
"235 731 CURVE SMOOTH",
"221 731 OFFCURVE",
"209 742 OFFCURVE",
"209 757 CURVE SMOOTH",
"209 765 OFFCURVE",
"212 773 OFFCURVE",
"219 778 CURVE SMOOTH",
"350 888 LINE SMOOTH",
"356 893 OFFCURVE",
"363 895 OFFCURVE",
"369 895 CURVE SMOOTH",
"376 895 OFFCURVE",
"383 892 OFFCURVE",
"389 887 CURVE SMOOTH"
);
}
);
userData = {
com.fontlab.hintData = {
hhints = (
{
position = -2;
width = 52;
},
{
position = 630;
width = 52;
}
);
vhints = (
{
position = 60;
width = 53;
},
{
position = 547;
width = 53;
}
);
};
};
width = 660;
}
);
unicode = 00D4;
},
{
glyphname = Odieresis;
layers = (
{
layerId = master01;
paths = (
{
closed = 1;
nodes = (
"164 -2 OFFCURVE",
"60 143 OFFCURVE",
"60 313 CURVE SMOOTH",
"60 513 OFFCURVE",
"195 682 OFFCURVE",
"351 682 CURVE SMOOTH",
"495 682 OFFCURVE",
"600 539 OFFCURVE",
"600 367 CURVE SMOOTH",
"600 167 OFFCURVE",
"465 -2 OFFCURVE",
"309 -2 CURVE SMOOTH"
);
},
{
closed = 1;
nodes = (
"221 630 OFFCURVE",
"113 489 OFFCURVE",
"113 313 CURVE SMOOTH",
"113 169 OFFCURVE",
"195 50 OFFCURVE",
"309 50 CURVE SMOOTH",
"432 50 OFFCURVE",
"547 193 OFFCURVE",
"547 363 CURVE SMOOTH",
"547 498 OFFCURVE",
"463 630 OFFCURVE",
"344 630 CURVE SMOOTH"
);
},
{
closed = 1;
nodes = (
"331 753 OFFCURVE",
"309 733 OFFCURVE",
"280 733 CURVE SMOOTH",
"255 733 OFFCURVE",
"235 749 OFFCURVE",
"235 772 CURVE SMOOTH",
"235 795 OFFCURVE",
"258 816 OFFCURVE",
"286 816 CURVE SMOOTH",
"309 816 OFFCURVE",
"331 799 OFFCURVE",
"331 777 CURVE SMOOTH"
);
},
{
closed = 1;
nodes = (
"490 753 OFFCURVE",
"468 733 OFFCURVE",
"439 733 CURVE SMOOTH",
"414 733 OFFCURVE",
"394 749 OFFCURVE",
"394 772 CURVE SMOOTH",
"394 795 OFFCURVE",
"417 816 OFFCURVE",
"445 816 CURVE SMOOTH",
"468 816 OFFCURVE",
"490 799 OFFCURVE",
"490 777 CURVE SMOOTH"
);
}
);
userData = {
com.fontlab.hintData = {
hhints = (
{
position = -2;
width = 52;
},
{
position = 630;
width = 52;
},
{
position = 733;
width = 83;
}
);
vhints = (
{
position = 60;
width = 53;
},
{
position = 235;
width = 96;
},
{
position = 394;
width = 96;
},
{
position = 547;
width = 53;
}
);
};
};
width = 660;
}
);
unicode = 00D6;
},
{
glyphname = Ograve;
layers = (
{
layerId = master01;
paths = (
{
closed = 1;
nodes = (
"164 -2 OFFCURVE",
"60 143 OFFCURVE",
"60 313 CURVE SMOOTH",
"60 513 OFFCURVE",
"195 682 OFFCURVE",
"351 682 CURVE SMOOTH",
"495 682 OFFCURVE",
"600 539 OFFCURVE",
"600 367 CURVE SMOOTH",
"600 167 OFFCURVE",
"465 -2 OFFCURVE",
"309 -2 CURVE SMOOTH"
);
},
{
closed = 1;
nodes = (
"221 630 OFFCURVE",
"113 489 OFFCURVE",
"113 313 CURVE SMOOTH",
"113 169 OFFCURVE",
"195 50 OFFCURVE",
"309 50 CURVE SMOOTH",
"432 50 OFFCURVE",
"547 193 OFFCURVE",
"547 363 CURVE SMOOTH",
"547 498 OFFCURVE",
"463 630 OFFCURVE",
"344 630 CURVE SMOOTH"
);
},
{
closed = 1;
nodes = (
"270 846 LINE SMOOTH",
"263 853 OFFCURVE",
"259 861 OFFCURVE",
"259 871 CURVE SMOOTH",
"259 889 OFFCURVE",
"276 905 OFFCURVE",
"294 905 CURVE SMOOTH",
"305 905 OFFCURVE",
"316 898 OFFCURVE",
"323 890 CURVE SMOOTH",
"428 760 LINE SMOOTH",
"433 753 OFFCURVE",
"435 748 OFFCURVE",
"435 742 CURVE SMOOTH",
"435 727 OFFCURVE",
"421 716 OFFCURVE",
"407 716 CURVE SMOOTH",
"399 716 OFFCURVE",
"393 720 OFFCURVE",
"388 725 CURVE SMOOTH"
);
}
);
userData = {
com.fontlab.hintData = {
hhints = (
{
position = -2;
width = 52;
},
{
position = 630;
width = 52;
}
);
vhints = (
{
position = 60;
width = 53;
},
{
position = 547;
width = 53;
}
);
};
};
width = 660;
}
);
unicode = 00D2;
},
{
glyphname = Ohungarumlaut;
layers = (
{
layerId = master01;
paths = (
{
closed = 1;
nodes = (
"295 730 LINE SMOOTH",
"288 725 OFFCURVE",
"280 721 OFFCURVE",
"274 721 CURVE SMOOTH",
"260 721 OFFCURVE",
"248 733 OFFCURVE",
"248 748 CURVE SMOOTH",
"248 754 OFFCURVE",
"249 761 OFFCURVE",
"254 765 CURVE SMOOTH",
"380 868 LINE SMOOTH",
"388 875 OFFCURVE",
"398 883 OFFCURVE",
"409 883 CURVE SMOOTH",
"428 883 OFFCURVE",
"443 867 OFFCURVE",
"443 847 CURVE SMOOTH",
"443 838 OFFCURVE",
"440 829 OFFCURVE",
"433 824 CURVE SMOOTH"
);
},
{
closed = 1;
nodes = (
"455 730 LINE SMOOTH",
"448 725 OFFCURVE",
"440 721 OFFCURVE",
"434 721 CURVE SMOOTH",
"420 721 OFFCURVE",
"408 733 OFFCURVE",
"408 748 CURVE SMOOTH",
"408 754 OFFCURVE",
"409 761 OFFCURVE",
"414 765 CURVE SMOOTH",
"540 868 LINE SMOOTH",
"548 875 OFFCURVE",
"558 883 OFFCURVE",
"569 883 CURVE SMOOTH",
"588 883 OFFCURVE",
"603 867 OFFCURVE",
"603 847 CURVE SMOOTH",
"603 838 OFFCURVE",
"600 829 OFFCURVE",
"593 824 CURVE SMOOTH"
);
},
{
closed = 1;
nodes = (
"164 -2 OFFCURVE",
"60 143 OFFCURVE",
"60 313 CURVE SMOOTH",
"60 513 OFFCURVE",
"195 682 OFFCURVE",
"351 682 CURVE SMOOTH",
"495 682 OFFCURVE",
"600 539 OFFCURVE",
"600 367 CURVE SMOOTH",
"600 167 OFFCURVE",
"465 -2 OFFCURVE",
"309 -2 CURVE SMOOTH"
);
},
{
closed = 1;
nodes = (
"221 630 OFFCURVE",
"113 489 OFFCURVE",
"113 313 CURVE SMOOTH",
"113 169 OFFCURVE",
"195 50 OFFCURVE",
"309 50 CURVE SMOOTH",
"432 50 OFFCURVE",
"547 193 OFFCURVE",
"547 363 CURVE SMOOTH",
"547 498 OFFCURVE",
"463 630 OFFCURVE",
"344 630 CURVE SMOOTH"
);
}
);
userData = {
com.fontlab.hintData = {
hhints = (
{
position = -2;
width = 52;
},
{
position = 630;
width = 52;
}
);
vhints = (
{
position = 60;
width = 53;
},
{
position = 547;
width = 53;
}
);
};
};
width = 660;
}
);
unicode = 0150;
},
{
glyphname = Oslash;
layers = (
{
layerId = master01;
paths = (
{
closed = 1;
nodes = (
"258 -2 OFFCURVE",
"212 15 OFFCURVE",
"174 46 CURVE",
"138 -19 LINE SMOOTH",
"133 -28 OFFCURVE",
"126 -32 OFFCURVE",
"116 -32 CURVE SMOOTH",
"98 -32 OFFCURVE",
"89 -20 OFFCURVE",
"89 -5 CURVE SMOOTH",
"89 -1 OFFCURVE",
"90 3 OFFCURVE",
"92 7 CURVE SMOOTH",
"135 85 LINE",
"88 143 OFFCURVE",
"60 224 OFFCURVE",
"60 313 CURVE SMOOTH",
"60 513 OFFCURVE",
"195 682 OFFCURVE",
"351 682 CURVE SMOOTH",
"388 682 OFFCURVE",
"422 672 OFFCURVE",
"453 655 CURVE",
"494 730 LINE SMOOTH",
"498 738 OFFCURVE",
"507 743 OFFCURVE",
"517 743 CURVE SMOOTH",
"529 743 OFFCURVE",
"543 733 OFFCURVE",
"543 717 CURVE SMOOTH",
"543 713 OFFCURVE",
"542 708 OFFCURVE",
"540 704 CURVE SMOOTH",
"496 625 LINE",
"560 567 OFFCURVE",
"600 473 OFFCURVE",
"600 367 CURVE SMOOTH",
"600 167 OFFCURVE",
"465 -2 OFFCURVE",
"309 -2 CURVE SMOOTH"
);
},
{
closed = 1;
nodes = (
"432 50 OFFCURVE",
"547 193 OFFCURVE",
"547 363 CURVE SMOOTH",
"547 443 OFFCURVE",
"517 523 OFFCURVE",
"468 574 CURVE",
"200 92 LINE",
"230 65 OFFCURVE",
"267 50 OFFCURVE",
"309 50 CURVE SMOOTH"
);
},
{
closed = 1;
nodes = (
"221 630 OFFCURVE",
"113 489 OFFCURVE",
"113 313 CURVE SMOOTH",
"113 244 OFFCURVE",
"131 182 OFFCURVE",
"163 135 CURVE",
"426 607 LINE",
"401 622 OFFCURVE",
"373 630 OFFCURVE",
"344 630 CURVE SMOOTH"
);
}
);
userData = {
com.fontlab.hintData = {
hhints = (
{
position = -2;
width = 52;
},
{
position = 630;
width = 52;
}
);
vhints = (
{
position = 60;
width = 53;
},
{
position = 547;
width = 53;
}
);
};
};
width = 660;
}
);
unicode = 00D8;
},
{
glyphname = Otilde;
layers = (
{
layerId = master01;
paths = (
{
closed = 1;
nodes = (
"164 -2 OFFCURVE",
"60 143 OFFCURVE",
"60 313 CURVE SMOOTH",
"60 513 OFFCURVE",
"195 682 OFFCURVE",
"351 682 CURVE SMOOTH",
"495 682 OFFCURVE",
"600 539 OFFCURVE",
"600 367 CURVE SMOOTH",
"600 167 OFFCURVE",
"465 -2 OFFCURVE",
"309 -2 CURVE SMOOTH"
);
},
{
closed = 1;
nodes = (
"221 630 OFFCURVE",
"113 489 OFFCURVE",
"113 313 CURVE SMOOTH",
"113 169 OFFCURVE",
"195 50 OFFCURVE",
"309 50 CURVE SMOOTH",
"432 50 OFFCURVE",
"547 193 OFFCURVE",
"547 363 CURVE SMOOTH",
"547 498 OFFCURVE",
"463 630 OFFCURVE",
"344 630 CURVE SMOOTH"
);
},
{
closed = 1;
nodes = (
"498 843 OFFCURVE",
"508 850 OFFCURVE",
"518 850 CURVE SMOOTH",
"532 850 OFFCURVE",
"544 839 OFFCURVE",
"544 826 CURVE SMOOTH",
"544 821 OFFCURVE",
"543 818 OFFCURVE",
"541 812 CURVE SMOOTH",
"530 781 OFFCURVE",
"499 713 OFFCURVE",
"434 713 CURVE SMOOTH",
"389 713 OFFCURVE",
"365 745 OFFCURVE",
"345 773 CURVE SMOOTH",
"326 799 OFFCURVE",
"315 821 OFFCURVE",
"298 821 CURVE SMOOTH",
"285 821 OFFCURVE",
"259 804 OFFCURVE",
"243 755 CURVE SMOOTH",
"239 742 OFFCURVE",
"230 736 OFFCURVE",
"218 736 CURVE SMOOTH",
"204 736 OFFCURVE",
"192 747 OFFCURVE",
"192 761 CURVE SMOOTH",
"192 776 OFFCURVE",
"202 793 OFFCURVE",
"208 804 CURVE SMOOTH",
"230 842 OFFCURVE",
"261 863 OFFCURVE",
"298 863 CURVE SMOOTH",
"343 863 OFFCURVE",
"367 830 OFFCURVE",
"387 803 CURVE SMOOTH",
"406 777 OFFCURVE",
"417 755 OFFCURVE",
"434 755 CURVE SMOOTH",
"464 755 OFFCURVE",
"483 804 OFFCURVE",
"494 833 CURVE SMOOTH"
);
}
);
userData = {
com.fontlab.hintData = {
hhints = (
{
position = -2;
width = 52;
},
{
position = 630;
width = 52;
},
{
position = 713;
width = 42;
},
{
position = 821;
width = 42;
}
);
vhints = (
{
position = 60;
width = 53;
},
{
position = 192;
width = 51;
},
{
position = 494;
width = 50;
},
{
position = 547;
width = 53;
}
);
};
};
width = 660;
}
);
unicode = 00D5;
},
{
glyphname = OE;
layers = (
{
layerId = master01;
paths = (
{
closed = 1;
nodes = (
"1008 57 LINE SMOOTH",
"1024 57 OFFCURVE",
"1036 45 OFFCURVE",
"1036 29 CURVE SMOOTH",
"1036 13 OFFCURVE",
"1024 0 OFFCURVE",
"1008 0 CURVE SMOOTH",
"582 0 LINE SMOOTH",
"566 0 OFFCURVE",
"553 13 OFFCURVE",
"553 29 CURVE SMOOTH",
"553 172 LINE",
"500 69 OFFCURVE",
"409 0 OFFCURVE",
"309 0 CURVE SMOOTH",
"164 0 OFFCURVE",
"60 145 OFFCURVE",
"60 315 CURVE SMOOTH",
"60 515 OFFCURVE",
"195 684 OFFCURVE",
"351 684 CURVE SMOOTH",
"430 684 OFFCURVE",
"508 638 OFFCURVE",
"553 557 CURVE",
"553 654 LINE SMOOTH",
"553 670 OFFCURVE",
"566 682 OFFCURVE",
"582 682 CURVE SMOOTH",
"1010 682 LINE SMOOTH",
"1026 682 OFFCURVE",
"1038 670 OFFCURVE",
"1038 654 CURVE SMOOTH",
"1038 638 OFFCURVE",
"1026 625 OFFCURVE",
"1010 625 CURVE SMOOTH",
"610 625 LINE",
"610 381 LINE",
"961 381 LINE SMOOTH",
"977 381 OFFCURVE",
"989 369 OFFCURVE",
"989 353 CURVE SMOOTH",
"989 337 OFFCURVE",
"977 324 OFFCURVE",
"961 324 CURVE SMOOTH",
"610 324 LINE",
"610 57 LINE"
);
},
{
closed = 1;
nodes = (
"460 52 OFFCURVE",
"547 232 OFFCURVE",
"547 365 CURVE SMOOTH",
"547 500 OFFCURVE",
"463 632 OFFCURVE",
"344 632 CURVE SMOOTH",
"221 632 OFFCURVE",
"113 491 OFFCURVE",
"113 315 CURVE SMOOTH",
"113 171 OFFCURVE",
"195 52 OFFCURVE",
"309 52 CURVE SMOOTH"
);
}
);
userData = {
com.fontlab.hintData = {
hhints = (
{
position = 0;
width = 52;
},
{
position = 324;
width = 57;
},
{
position = 625;
width = 57;
},
{
position = 632;
width = 52;
}
);
vhints = (
{
position = 60;
width = 53;
},
{
position = 553;
width = 57;
}
);
};
};
width = 1098;
}
);
unicode = 0152;
},
{
glyphname = P;
layers = (
{
layerId = master01;
paths = (
{
closed = 1;
nodes = (
"78 0 OFFCURVE",
"65 12 OFFCURVE",
"65 28 CURVE SMOOTH",
"65 641 LINE SMOOTH",
"65 671 OFFCURVE",
"67 682 OFFCURVE",
"144 682 CURVE SMOOTH",
"396 682 OFFCURVE",
"517 608 OFFCURVE",
"517 477 CURVE SMOOTH",
"517 291 OFFCURVE",
"261 239 OFFCURVE",
"121 239 CURVE",
"121 28 LINE SMOOTH",
"121 12 OFFCURVE",
"109 0 OFFCURVE",
"93 0 CURVE SMOOTH"
);
},
{
closed = 1;
nodes = (
"121 295 LINE",
"207 295 OFFCURVE",
"461 322 OFFCURVE",
"461 477 CURVE SMOOTH",
"461 573 OFFCURVE",
"353 626 OFFCURVE",
"161 626 CURVE SMOOTH",
"148 626 OFFCURVE",
"130 626 OFFCURVE",
"121 625 CURVE"
);
}
);
userData = {
com.fontlab.hintData = {
hhints = (
{
position = 0;
width = 21;
},
{
position = 239;
width = 56;
},
{
position = 626;
width = 56;
}
);
vhints = (
{
position = 65;
width = 56;
},
{
position = 461;
width = 56;
}
);
};
};
width = 547;
}
);
unicode = 0050;
},
{
glyphname = Thorn;
layers = (
{
layerId = master01;
paths = (
{
closed = 1;
nodes = (
"266 572 OFFCURVE",
"474 553 OFFCURVE",
"474 375 CURVE SMOOTH",
"474 198 OFFCURVE",
"258 146 OFFCURVE",
"116 143 CURVE",
"116 25 LINE SMOOTH",
"116 11 OFFCURVE",
"105 0 OFFCURVE",
"90 0 CURVE SMOOTH",
"76 0 OFFCURVE",
"65 11 OFFCURVE",
"65 26 CURVE SMOOTH",
"67 655 LINE SMOOTH",
"67 669 OFFCURVE",
"78 680 OFFCURVE",
"92 680 CURVE SMOOTH",
"106 680 OFFCURVE",
"118 669 OFFCURVE",
"118 654 CURVE SMOOTH",
"118 572 LINE"
);
},
{
closed = 1;
nodes = (
"219 199 OFFCURVE",
"423 236 OFFCURVE",
"423 375 CURVE SMOOTH",
"423 466 OFFCURVE",
"324 519 OFFCURVE",
"154 519 CURVE SMOOTH",
"140 519 OFFCURVE",
"128 519 OFFCURVE",
"118 518 CURVE",
"117 198 LINE"
);
}
);
userData = {
com.fontlab.hintData = {
hhints = (
{
position = 0;
width = 21;
},
{
position = 143;
width = 55;
},
{
position = 519;
width = 53;
}
);
vhints = (
{
position = 65;
width = 51;
},
{
position = 423;
width = 51;
}
);
};
};
width = 547;
}
);
unicode = 00DE;
},
{
glyphname = Q;
layers = (
{
layerId = master01;
paths = (
{
closed = 1;
nodes = (
"651 27 LINE SMOOTH",
"660 21 OFFCURVE",
"663 12 OFFCURVE",
"663 3 CURVE SMOOTH",
"663 -14 OFFCURVE",
"649 -24 OFFCURVE",
"635 -24 CURVE SMOOTH",
"630 -24 OFFCURVE",
"625 -23 OFFCURVE",
"620 -20 CURVE SMOOTH",
"506 56 LINE",
"455 19 OFFCURVE",
"395 -2 OFFCURVE",
"333 -2 CURVE SMOOTH",
"169 -2 OFFCURVE",
"51 142 OFFCURVE",
"51 311 CURVE SMOOTH",
"51 512 OFFCURVE",
"204 680 OFFCURVE",
"380 680 CURVE SMOOTH",
"543 680 OFFCURVE",
"662 536 OFFCURVE",
"662 366 CURVE SMOOTH",
"662 260 OFFCURVE",
"618 161 OFFCURVE",
"550 93 CURVE"
);
},
{
closed = 1;
nodes = (
"376 52 OFFCURVE",
"418 65 OFFCURVE",
"456 89 CURVE",
"377 141 LINE SMOOTH",
"369 146 OFFCURVE",
"364 155 OFFCURVE",
"364 164 CURVE SMOOTH",
"364 180 OFFCURVE",
"377 192 OFFCURVE",
"391 192 CURVE SMOOTH",
"397 192 OFFCURVE",
"402 191 OFFCURVE",
"407 188 CURVE SMOOTH",
"502 125 LINE",
"560 182 OFFCURVE",
"601 269 OFFCURVE",
"601 363 CURVE SMOOTH",
"601 497 OFFCURVE",
"505 626 OFFCURVE",
"372 626 CURVE SMOOTH",
"235 626 OFFCURVE",
"111 487 OFFCURVE",
"111 315 CURVE SMOOTH",
"111 168 OFFCURVE",
"204 52 OFFCURVE",
"333 52 CURVE SMOOTH"
);
}
);
userData = {
com.fontlab.hintData = {
hhints = (
{
position = -2;
width = 54;
},
{
position = 626;
width = 54;
}
);
vhints = (
{
position = 51;
width = 60;
},
{
position = 601;
width = 61;
}
);
};
};
width = 714;
}
);
unicode = 0051;
},
{
glyphname = R;
layers = (
{
layerId = master01;
paths = (
{
closed = 1;
nodes = (
"545 37 OFFCURVE",
"546 32 OFFCURVE",
"546 28 CURVE SMOOTH",
"546 14 OFFCURVE",
"535 0 OFFCURVE",
"518 0 CURVE SMOOTH",
"508 0 OFFCURVE",
"499 6 OFFCURVE",
"493 16 CURVE SMOOTH",
"362 242 OFFCURVE",
"260 250 OFFCURVE",
"217 250 CURVE SMOOTH",
"198 250 OFFCURVE",
"155 246 OFFCURVE",
"121 241 CURVE",
"121 28 LINE SMOOTH",
"121 12 OFFCURVE",
"108 0 OFFCURVE",
"93 0 CURVE SMOOTH",
"77 0 OFFCURVE",
"65 12 OFFCURVE",
"65 28 CURVE SMOOTH",
"65 648 LINE SMOOTH",
"65 687.093 OFFCURVE",
"79.546 688.002 OFFCURVE",
"158.049 688.002 CURVE SMOOTH",
"161.879 688.002 OFFCURVE",
"165.86 688 OFFCURVE",
"170 688 CURVE SMOOTH",
"395 688 OFFCURVE",
"521 611 OFFCURVE",
"521 478 CURVE SMOOTH",
"521 366 OFFCURVE",
"427 308 OFFCURVE",
"333 276 CURVE",
"377 250 OFFCURVE",
"476 173 OFFCURVE",
"543 41 CURVE SMOOTH"
);
},
{
closed = 1;
nodes = (
"121 297 LINE",
"265 300 OFFCURVE",
"465 349 OFFCURVE",
"465 478 CURVE SMOOTH",
"465 580 OFFCURVE",
"355 632 OFFCURVE",
"167 632 CURVE SMOOTH",
"157 632 OFFCURVE",
"136 632 OFFCURVE",
"121 631 CURVE"
);
}
);
userData = {
com.fontlab.hintData = {
hhints = (
{
position = 0;
width = 21;
},
{
position = 250;
width = 47;
},
{
position = 632;
width = 56;
}
);
vhints = (
{
position = 65;
width = 56;
},
{
position = 465;
width = 56;
}
);
};
};
width = 597;
}
);
unicode = 0052;
},
{
glyphname = Racute;
layers = (
{
layerId = master01;
paths = (
{
closed = 1;
nodes = (
"265 759 LINE SMOOTH",
"258 754 OFFCURVE",
"250 750 OFFCURVE",
"244 750 CURVE SMOOTH",
"230 750 OFFCURVE",
"218 762 OFFCURVE",
"218 777 CURVE SMOOTH",
"218 783 OFFCURVE",
"219 790 OFFCURVE",
"224 794 CURVE SMOOTH",
"350 897 LINE SMOOTH",
"358 904 OFFCURVE",
"368 912 OFFCURVE",
"379 912 CURVE SMOOTH",
"398 912 OFFCURVE",
"413 896 OFFCURVE",
"413 876 CURVE SMOOTH",
"413 867 OFFCURVE",
"410 858 OFFCURVE",
"403 853 CURVE SMOOTH"
);
},
{
closed = 1;
nodes = (
"545 37 OFFCURVE",
"546 32 OFFCURVE",
"546 28 CURVE SMOOTH",
"546 14 OFFCURVE",
"535 0 OFFCURVE",
"518 0 CURVE SMOOTH",
"508 0 OFFCURVE",
"499 6 OFFCURVE",
"493 16 CURVE SMOOTH",
"362 242 OFFCURVE",
"260 250 OFFCURVE",
"217 250 CURVE SMOOTH",
"198 250 OFFCURVE",
"155 246 OFFCURVE",
"121 241 CURVE",
"121 28 LINE SMOOTH",
"121 12 OFFCURVE",
"108 0 OFFCURVE",
"93 0 CURVE SMOOTH",
"77 0 OFFCURVE",
"65 12 OFFCURVE",
"65 28 CURVE SMOOTH",
"65 648 LINE SMOOTH",
"65 687.093 OFFCURVE",
"79.546 688.002 OFFCURVE",
"158.049 688.002 CURVE SMOOTH",
"161.879 688.002 OFFCURVE",
"165.86 688 OFFCURVE",
"170 688 CURVE SMOOTH",
"395 688 OFFCURVE",
"521 611 OFFCURVE",
"521 478 CURVE SMOOTH",
"521 366 OFFCURVE",
"427 308 OFFCURVE",
"333 276 CURVE",
"377 250 OFFCURVE",
"476 173 OFFCURVE",
"543 41 CURVE SMOOTH"
);
},
{
closed = 1;
nodes = (
"121 297 LINE",
"265 300 OFFCURVE",
"465 349 OFFCURVE",
"465 478 CURVE SMOOTH",
"465 580 OFFCURVE",
"355 632 OFFCURVE",
"167 632 CURVE SMOOTH",
"157 632 OFFCURVE",
"136 632 OFFCURVE",
"121 631 CURVE"
);
}
);
userData = {
com.fontlab.hintData = {
hhints = (
{
position = 0;
width = 21;
},
{
position = 250;
width = 47;
},
{
position = 632;
width = 56;
}
);
vhints = (
{
position = 65;
width = 56;
},
{
position = 465;
width = 56;
}
);
};
};
width = 597;
}
);
unicode = 0154;
},
{
glyphname = Rcaron;
layers = (
{
layerId = master01;
paths = (
{
closed = 1;
nodes = (
"156 840 LINE SMOOTH",
"150 845 OFFCURVE",
"147 852 OFFCURVE",
"147 860 CURVE SMOOTH",
"147 874 OFFCURVE",
"159 886 OFFCURVE",
"173 886 CURVE SMOOTH",
"180 886 OFFCURVE",
"187 884 OFFCURVE",
"192 879 CURVE SMOOTH",
"288 792 LINE",
"403 881 LINE SMOOTH",
"408 885 OFFCURVE",
"414 886 OFFCURVE",
"420 886 CURVE SMOOTH",
"434 886 OFFCURVE",
"446 875 OFFCURVE",
"446 860 CURVE SMOOTH",
"446 852 OFFCURVE",
"443 844 OFFCURVE",
"436 839 CURVE SMOOTH",
"305 729 LINE SMOOTH",
"299 724 OFFCURVE",
"292 722 OFFCURVE",
"286 722 CURVE SMOOTH",
"279 722 OFFCURVE",
"272 725 OFFCURVE",
"266 730 CURVE SMOOTH"
);
},
{
closed = 1;
nodes = (
"545 37 OFFCURVE",
"546 32 OFFCURVE",
"546 28 CURVE SMOOTH",
"546 14 OFFCURVE",
"535 0 OFFCURVE",
"518 0 CURVE SMOOTH",
"508 0 OFFCURVE",
"499 6 OFFCURVE",
"493 16 CURVE SMOOTH",
"362 242 OFFCURVE",
"260 250 OFFCURVE",
"217 250 CURVE SMOOTH",
"198 250 OFFCURVE",
"155 246 OFFCURVE",
"121 241 CURVE",
"121 28 LINE SMOOTH",
"121 12 OFFCURVE",
"108 0 OFFCURVE",
"93 0 CURVE SMOOTH",
"77 0 OFFCURVE",
"65 12 OFFCURVE",
"65 28 CURVE SMOOTH",
"65 648 LINE SMOOTH",
"65 687.093 OFFCURVE",
"79.546 688.002 OFFCURVE",
"158.049 688.002 CURVE SMOOTH",
"161.879 688.002 OFFCURVE",
"165.86 688 OFFCURVE",
"170 688 CURVE SMOOTH",
"395 688 OFFCURVE",
"521 611 OFFCURVE",
"521 478 CURVE SMOOTH",
"521 366 OFFCURVE",
"427 308 OFFCURVE",
"333 276 CURVE",
"377 250 OFFCURVE",
"476 173 OFFCURVE",
"543 41 CURVE SMOOTH"
);
},
{
closed = 1;
nodes = (
"121 297 LINE",
"265 300 OFFCURVE",
"465 349 OFFCURVE",
"465 478 CURVE SMOOTH",
"465 580 OFFCURVE",
"355 632 OFFCURVE",
"167 632 CURVE SMOOTH",
"157 632 OFFCURVE",
"136 632 OFFCURVE",
"121 631 CURVE"
);
}
);
userData = {
com.fontlab.hintData = {
hhints = (
{
position = 0;
width = 21;
},
{
position = 250;
width = 47;
},
{
position = 632;
width = 56;
}
);
vhints = (
{
position = 65;
width = 56;
},
{
position = 465;
width = 56;
}
);
};
};
width = 597;
}
);
unicode = 0158;
},
{
glyphname = S;
layers = (
{
layerId = master01;
paths = (
{
closed = 1;
nodes = (
"465 347 OFFCURVE",
"537 283 OFFCURVE",
"537 191 CURVE SMOOTH",
"537 60 OFFCURVE",
"407 0 OFFCURVE",
"304 0 CURVE SMOOTH",
"191 0 OFFCURVE",
"97 58 OFFCURVE",
"64 140 CURVE SMOOTH",
"62 144 OFFCURVE",
"60 152 OFFCURVE",
"60 157 CURVE SMOOTH",
"60 173 OFFCURVE",
"73 186 OFFCURVE",
"90 186 CURVE SMOOTH",
"105 186 OFFCURVE",
"115 177 OFFCURVE",
"120 163 CURVE SMOOTH",
"146 87 OFFCURVE",
"232 53 OFFCURVE",
"303 53 CURVE SMOOTH",
"378 53 OFFCURVE",
"474 93 OFFCURVE",
"474 198 CURVE SMOOTH",
"474 228 OFFCURVE",
"463 288 OFFCURVE",
"305 331 CURVE SMOOTH",
"208 357 OFFCURVE",
"95 409 OFFCURVE",
"95 509 CURVE SMOOTH",
"95 640 OFFCURVE",
"213 682 OFFCURVE",
"327 682 CURVE SMOOTH",
"396.488 682 OFFCURVE",
"534.058 661.7 OFFCURVE",
"534.058 546.03 CURVE SMOOTH",
"534.058 530.006 OFFCURVE",
"522.376 518 OFFCURVE",
"507 518 CURVE SMOOTH",
"493 518 OFFCURVE",
"481 529 OFFCURVE",
"480 542 CURVE SMOOTH",
"473 604 OFFCURVE",
"396 632 OFFCURVE",
"324 632 CURVE SMOOTH",
"237 632 OFFCURVE",
"159 602 OFFCURVE",
"159 506 CURVE SMOOTH",
"159 456 OFFCURVE",
"213 417 OFFCURVE",
"318 388 CURVE SMOOTH"
);
}
);
userData = {
com.fontlab.hintData = {
hhints = (
{
position = 0;
width = 53;
},
{
position = 632;
width = 50;
}
);
vhints = (
{
position = 60;
width = 60;
},
{
position = 95;
width = 64;
},
{
position = 474;
width = 63;
}
);
};
};
width = 598;
}
);
unicode = 0053;
},
{
glyphname = Sacute;
layers = (
{
layerId = master01;
paths = (
{
closed = 1;
nodes = (
"465 347 OFFCURVE",
"537 283 OFFCURVE",
"537 191 CURVE SMOOTH",
"537 60 OFFCURVE",
"407 0 OFFCURVE",
"304 0 CURVE SMOOTH",
"191 0 OFFCURVE",
"97 57 OFFCURVE",
"64 140 CURVE SMOOTH",
"62 144 OFFCURVE",
"60 152 OFFCURVE",
"60 157 CURVE SMOOTH",
"60 173 OFFCURVE",
"73 186 OFFCURVE",
"90 186 CURVE SMOOTH",
"105 186 OFFCURVE",
"115 177 OFFCURVE",
"120 163 CURVE SMOOTH",
"146 87 OFFCURVE",
"232 53 OFFCURVE",
"303 53 CURVE SMOOTH",
"378 53 OFFCURVE",
"474 93 OFFCURVE",
"474 198 CURVE SMOOTH",
"474 228 OFFCURVE",
"463 288 OFFCURVE",
"305 331 CURVE SMOOTH",
"208 357 OFFCURVE",
"95 409 OFFCURVE",
"95 509 CURVE SMOOTH",
"95 640 OFFCURVE",
"213 682 OFFCURVE",
"327 682 CURVE SMOOTH",
"396.488 682 OFFCURVE",
"534.058 661.7 OFFCURVE",
"534.058 546.03 CURVE SMOOTH",
"534.058 530.006 OFFCURVE",
"522.376 518 OFFCURVE",
"507 518 CURVE SMOOTH",
"493 518 OFFCURVE",
"481 529 OFFCURVE",
"480 542 CURVE SMOOTH",
"473 604 OFFCURVE",
"396 632 OFFCURVE",
"324 632 CURVE SMOOTH",
"237 632 OFFCURVE",
"159 602 OFFCURVE",
"159 506 CURVE SMOOTH",
"159 456 OFFCURVE",
"213 417 OFFCURVE",
"318 388 CURVE SMOOTH"
);
},
{
closed = 1;
nodes = (
"288 759 LINE SMOOTH",
"281 754 OFFCURVE",
"273 750 OFFCURVE",
"267 750 CURVE SMOOTH",
"253 750 OFFCURVE",
"241 762 OFFCURVE",
"241 777 CURVE SMOOTH",
"241 783 OFFCURVE",
"242 790 OFFCURVE",
"247 794 CURVE SMOOTH",
"373 897 LINE SMOOTH",
"381 904 OFFCURVE",
"391 912 OFFCURVE",
"402 912 CURVE SMOOTH",
"421 912 OFFCURVE",
"436 896 OFFCURVE",
"436 876 CURVE SMOOTH",
"436 867 OFFCURVE",
"433 858 OFFCURVE",
"426 853 CURVE SMOOTH"
);
}
);
userData = {
com.fontlab.hintData = {
hhints = (
{
position = 0;
width = 53;
},
{
position = 632;
width = 50;
}
);
vhints = (
{
position = 60;
width = 60;
},
{
position = 95;
width = 64;
},
{
position = 474;
width = 63;
}
);
};
};
width = 598;
}
);
unicode = 015A;
},
{
glyphname = Scaron;
layers = (
{
layerId = master01;
paths = (
{
closed = 1;
nodes = (
"194 847 LINE SMOOTH",
"188 852 OFFCURVE",
"185 859 OFFCURVE",
"185 867 CURVE SMOOTH",
"185 881 OFFCURVE",
"197 893 OFFCURVE",
"211 893 CURVE SMOOTH",
"218 893 OFFCURVE",
"225 891 OFFCURVE",
"230 886 CURVE SMOOTH",
"326 799 LINE",
"441 888 LINE SMOOTH",
"446 892 OFFCURVE",
"452 893 OFFCURVE",
"458 893 CURVE SMOOTH",
"472 893 OFFCURVE",
"484 882 OFFCURVE",
"484 867 CURVE SMOOTH",
"484 859 OFFCURVE",
"481 851 OFFCURVE",
"474 846 CURVE SMOOTH",
"343 736 LINE SMOOTH",
"337 731 OFFCURVE",
"330 729 OFFCURVE",
"324 729 CURVE SMOOTH",
"317 729 OFFCURVE",
"310 732 OFFCURVE",
"304 737 CURVE SMOOTH"
);
},
{
closed = 1;
nodes = (
"465 347 OFFCURVE",
"537 283 OFFCURVE",
"537 191 CURVE SMOOTH",
"537 60 OFFCURVE",
"407 0 OFFCURVE",
"304 0 CURVE SMOOTH",
"191 0 OFFCURVE",
"97 57 OFFCURVE",
"64 140 CURVE SMOOTH",
"62 144 OFFCURVE",
"60 152 OFFCURVE",
"60 157 CURVE SMOOTH",
"60 173 OFFCURVE",
"73 186 OFFCURVE",
"90 186 CURVE SMOOTH",
"105 186 OFFCURVE",
"115 177 OFFCURVE",
"120 163 CURVE SMOOTH",
"146 87 OFFCURVE",
"232 53 OFFCURVE",
"303 53 CURVE SMOOTH",
"378 53 OFFCURVE",
"474 93 OFFCURVE",
"474 198 CURVE SMOOTH",
"474 228 OFFCURVE",
"463 288 OFFCURVE",
"305 331 CURVE SMOOTH",
"208 357 OFFCURVE",
"95 409 OFFCURVE",
"95 509 CURVE SMOOTH",
"95 640 OFFCURVE",
"213 682 OFFCURVE",
"327 682 CURVE SMOOTH",
"396.488 682 OFFCURVE",
"534.058 661.7 OFFCURVE",
"534.058 546.03 CURVE SMOOTH",
"534.058 530.006 OFFCURVE",
"522.376 518 OFFCURVE",
"507 518 CURVE SMOOTH",
"493 518 OFFCURVE",
"481 529 OFFCURVE",
"480 542 CURVE SMOOTH",
"473 604 OFFCURVE",
"396 632 OFFCURVE",
"324 632 CURVE SMOOTH",
"237 632 OFFCURVE",
"159 602 OFFCURVE",
"159 506 CURVE SMOOTH",
"159 456 OFFCURVE",
"213 417 OFFCURVE",
"318 388 CURVE SMOOTH"
);
}
);
userData = {
com.fontlab.hintData = {
hhints = (
{
position = 0;
width = 53;
},
{
position = 632;
width = 50;
}
);
vhints = (
{
position = 60;
width = 60;
},
{
position = 95;
width = 64;
},
{
position = 474;
width = 63;
}
);
};
};
width = 598;
}
);
unicode = 0160;
},
{
glyphname = Scedilla;
layers = (
{
layerId = master01;
paths = (
{
closed = 1;
nodes = (
"259 3 LINE",
"167 16 OFFCURVE",
"92 68 OFFCURVE",
"64 140 CURVE SMOOTH",
"62 144 OFFCURVE",
"60 152 OFFCURVE",
"60 157 CURVE SMOOTH",
"60 173 OFFCURVE",
"73 186 OFFCURVE",
"90 186 CURVE SMOOTH",
"105 186 OFFCURVE",
"115 177 OFFCURVE",
"120 163 CURVE SMOOTH",
"146 87 OFFCURVE",
"232 53 OFFCURVE",
"303 53 CURVE SMOOTH",
"378 53 OFFCURVE",
"474 93 OFFCURVE",
"474 198 CURVE SMOOTH",
"474 228 OFFCURVE",
"463 288 OFFCURVE",
"305 331 CURVE SMOOTH",
"208 357 OFFCURVE",
"95 409 OFFCURVE",
"95 509 CURVE SMOOTH",
"95 640 OFFCURVE",
"213 682 OFFCURVE",
"327 682 CURVE SMOOTH",
"396.488 682 OFFCURVE",
"534.058 661.7 OFFCURVE",
"534.058 546.03 CURVE SMOOTH",
"534.058 530.006 OFFCURVE",
"522.376 518 OFFCURVE",
"507 518 CURVE SMOOTH",
"493 518 OFFCURVE",
"481 529 OFFCURVE",
"480 542 CURVE SMOOTH",
"473 604 OFFCURVE",
"396 632 OFFCURVE",
"324 632 CURVE SMOOTH",
"237 632 OFFCURVE",
"159 602 OFFCURVE",
"159 506 CURVE SMOOTH",
"159 456 OFFCURVE",
"213 417 OFFCURVE",
"318 388 CURVE SMOOTH",
"465 347 OFFCURVE",
"537 283 OFFCURVE",
"537 191 CURVE SMOOTH",
"537 60 OFFCURVE",
"407 0 OFFCURVE",
"304 0 CURVE SMOOTH",
"295 0 LINE",
"294 -19 LINE",
"362 -19 OFFCURVE",
"396 -62 OFFCURVE",
"396 -110 CURVE SMOOTH",
"396 -160 OFFCURVE",
"355 -201 OFFCURVE",
"305 -201 CURVE SMOOTH",
"273 -201 OFFCURVE",
"226 -179 OFFCURVE",
"226 -146 CURVE SMOOTH",
"226 -138 OFFCURVE",
"235 -128 OFFCURVE",
"247 -128 CURVE SMOOTH",
"255 -128 OFFCURVE",
"260 -133 OFFCURVE",
"265 -139 CURVE SMOOTH",
"273 -148 OFFCURVE",
"282 -159 OFFCURVE",
"305 -159 CURVE SMOOTH",
"332 -159 OFFCURVE",
"354 -137 OFFCURVE",
"354 -110 CURVE SMOOTH",
"354 -83 OFFCURVE",
"332 -61 OFFCURVE",
"305 -61 CURVE SMOOTH",
"290 -61 OFFCURVE",
"281 -67 OFFCURVE",
"274 -71 CURVE SMOOTH",
"270 -74 OFFCURVE",
"266 -76 OFFCURVE",
"262 -76 CURVE SMOOTH",
"251 -76 OFFCURVE",
"241 -68 OFFCURVE",
"241 -56 CURVE SMOOTH",
"241 -50 OFFCURVE",
"243 -43 OFFCURVE",
"247 -33 CURVE SMOOTH"
);
}
);
userData = {
com.fontlab.hintData = {
hhints = (
{
position = -201;
width = 42;
},
{
position = -61;
width = 42;
},
{
position = 0;
width = 53;
},
{
position = 632;
width = 50;
}
);
vhints = (
{
position = 60;
width = 60;
},
{
position = 95;
width = 64;
},
{
position = 354;
width = 42;
},
{
position = 474;
width = 63;
}
);
};
};
width = 598;
}
);
unicode = 015E;
},
{
glyphname = Scircumflex;
layers = (
{
layerId = master01;
paths = (
{
closed = 1;
nodes = (
"456 777 LINE SMOOTH",
"462 772 OFFCURVE",
"465 765 OFFCURVE",
"465 757 CURVE SMOOTH",
"465 743 OFFCURVE",
"453 731 OFFCURVE",
"439 731 CURVE SMOOTH",
"432 731 OFFCURVE",
"425 733 OFFCURVE",
"420 738 CURVE SMOOTH",
"324 825 LINE",
"209 736 LINE SMOOTH",
"204 732 OFFCURVE",
"198 731 OFFCURVE",
"192 731 CURVE SMOOTH",
"178 731 OFFCURVE",
"166 742 OFFCURVE",
"166 757 CURVE SMOOTH",
"166 765 OFFCURVE",
"169 773 OFFCURVE",
"176 778 CURVE SMOOTH",
"307 888 LINE SMOOTH",
"313 893 OFFCURVE",
"320 895 OFFCURVE",
"326 895 CURVE SMOOTH",
"333 895 OFFCURVE",
"340 892 OFFCURVE",
"346 887 CURVE SMOOTH"
);
},
{
closed = 1;
nodes = (
"465 347 OFFCURVE",
"537 283 OFFCURVE",
"537 191 CURVE SMOOTH",
"537 60 OFFCURVE",
"407 0 OFFCURVE",
"304 0 CURVE SMOOTH",
"191 0 OFFCURVE",
"97 58 OFFCURVE",
"64 140 CURVE SMOOTH",
"62 144 OFFCURVE",
"60 152 OFFCURVE",
"60 157 CURVE SMOOTH",
"60 173 OFFCURVE",
"73 186 OFFCURVE",
"90 186 CURVE SMOOTH",
"105 186 OFFCURVE",
"115 177 OFFCURVE",
"120 163 CURVE SMOOTH",
"146 87 OFFCURVE",
"232 53 OFFCURVE",
"303 53 CURVE SMOOTH",
"378 53 OFFCURVE",
"474 93 OFFCURVE",
"474 198 CURVE SMOOTH",
"474 228 OFFCURVE",
"463 288 OFFCURVE",
"305 331 CURVE SMOOTH",
"208 357 OFFCURVE",
"95 409 OFFCURVE",
"95 509 CURVE SMOOTH",
"95 640 OFFCURVE",
"213 682 OFFCURVE",
"327 682 CURVE SMOOTH",
"396.537 682 OFFCURVE",
"534.058 661.7 OFFCURVE",
"534.058 546.03 CURVE SMOOTH",
"534.058 530.006 OFFCURVE",
"522.376 518 OFFCURVE",
"507 518 CURVE SMOOTH",
"493 518 OFFCURVE",
"481 529 OFFCURVE",
"480 542 CURVE SMOOTH",
"473 604 OFFCURVE",
"396 632 OFFCURVE",
"324 632 CURVE SMOOTH",
"237 632 OFFCURVE",
"159 602 OFFCURVE",
"159 506 CURVE SMOOTH",
"159 456 OFFCURVE",
"213 417 OFFCURVE",
"318 388 CURVE SMOOTH"
);
}
);
userData = {
com.fontlab.hintData = {
hhints = (
{
position = 0;
width = 53;
},
{
position = 632;
width = 50;
}
);
vhints = (
{
position = 60;
width = 60;
},
{
position = 95;
width = 64;
},
{
position = 474;
width = 63;
}
);
};
};
width = 598;
}
);
unicode = 015C;
},
{
glyphname = T;
layers = (
{
layerId = master01;
paths = (
{
closed = 1;
nodes = (
"500 681 OFFCURVE",
"512 669 OFFCURVE",
"512 653 CURVE SMOOTH",
"512 638 OFFCURVE",
"500 625 OFFCURVE",
"484 625 CURVE SMOOTH",
"282 625 LINE",
"282 28 LINE SMOOTH",
"282 13 OFFCURVE",
"270 0 OFFCURVE",
"254 0 CURVE SMOOTH",
"239 0 OFFCURVE",
"226 13 OFFCURVE",
"226 28 CURVE SMOOTH",
"226 625 LINE",
"38 625 LINE SMOOTH",
"23 625 OFFCURVE",
"10 638 OFFCURVE",
"10 653 CURVE SMOOTH",
"10 669 OFFCURVE",
"23 681 OFFCURVE",
"38 681 CURVE SMOOTH",
"484 681 LINE"
);
}
);
userData = {
com.fontlab.hintData = {
hhints = (
{
position = 0;
width = 21;
},
{
position = 625;
width = 56;
}
);
vhints = (
{
position = 226;
width = 56;
}
);
};
};
width = 522;
}
);
unicode = 0054;
},
{
glyphname = Tcaron;
layers = (
{
layerId = master01;
paths = (
{
closed = 1;
nodes = (
"500 681 OFFCURVE",
"512 669 OFFCURVE",
"512 653 CURVE SMOOTH",
"512 638 OFFCURVE",
"500 625 OFFCURVE",
"484 625 CURVE SMOOTH",
"282 625 LINE",
"282 28 LINE SMOOTH",
"282 13 OFFCURVE",
"270 0 OFFCURVE",
"254 0 CURVE SMOOTH",
"239 0 OFFCURVE",
"226 13 OFFCURVE",
"226 28 CURVE SMOOTH",
"226 625 LINE",
"38 625 LINE SMOOTH",
"23 625 OFFCURVE",
"10 638 OFFCURVE",
"10 653 CURVE SMOOTH",
"10 669 OFFCURVE",
"23 681 OFFCURVE",
"38 681 CURVE SMOOTH",
"484 681 LINE"
);
},
{
closed = 1;
nodes = (
"130 840 LINE SMOOTH",
"124 845 OFFCURVE",
"121 852 OFFCURVE",
"121 860 CURVE SMOOTH",
"121 874 OFFCURVE",
"133 886 OFFCURVE",
"147 886 CURVE SMOOTH",
"154 886 OFFCURVE",
"161 884 OFFCURVE",
"166 879 CURVE SMOOTH",
"262 792 LINE",
"377 881 LINE SMOOTH",
"382 885 OFFCURVE",
"388 886 OFFCURVE",
"394 886 CURVE SMOOTH",
"408 886 OFFCURVE",
"420 875 OFFCURVE",
"420 860 CURVE SMOOTH",
"420 852 OFFCURVE",
"417 844 OFFCURVE",
"410 839 CURVE SMOOTH",
"279 729 LINE SMOOTH",
"273 724 OFFCURVE",
"266 722 OFFCURVE",
"260 722 CURVE SMOOTH",
"253 722 OFFCURVE",
"246 725 OFFCURVE",
"240 730 CURVE SMOOTH"
);
}
);
userData = {
com.fontlab.hintData = {
hhints = (
{
position = 0;
width = 21;
},
{
position = 625;
width = 56;
}
);
vhints = (
{
position = 226;
width = 56;
}
);
};
};
width = 522;
}
);
unicode = 0164;
},
{
glyphname = U;
layers = (
{
layerId = master01;
paths = (
{
closed = 1;
nodes = (
"617.851 594.691 OFFCURVE",
"619.916 536.168 OFFCURVE",
"619.916 477.233 CURVE SMOOTH",
"619.916 408.815 OFFCURVE",
"617.133 339.84 OFFCURVE",
"608 270 CURVE SMOOTH",
"587 110 OFFCURVE",
"510 0 OFFCURVE",
"333 0 CURVE SMOOTH",
"165 0 OFFCURVE",
"76 125 OFFCURVE",
"67 367 CURVE SMOOTH",
"65.491 407.356 OFFCURVE",
"64.978 446.005 OFFCURVE",
"64.978 483.055 CURVE SMOOTH",
"64.978 544.238 OFFCURVE",
"66.377 601.059 OFFCURVE",
"67 654 CURVE SMOOTH",
"67 670 OFFCURVE",
"81 681 OFFCURVE",
"95 681 CURVE SMOOTH",
"110 681 OFFCURVE",
"123 669 OFFCURVE",
"123 653 CURVE SMOOTH",
"121.903 604.176 OFFCURVE",
"121.107 555.051 OFFCURVE",
"121.107 505.295 CURVE SMOOTH",
"121.107 464.352 OFFCURVE",
"121.646 422.982 OFFCURVE",
"123 381 CURVE SMOOTH",
"128 236 OFFCURVE",
"159 49 OFFCURVE",
"335 49 CURVE SMOOTH",
"470 49 OFFCURVE",
"536 139 OFFCURVE",
"552 277 CURVE SMOOTH",
"559.348 344.826 OFFCURVE",
"560.945 412.972 OFFCURVE",
"560.945 483.423 CURVE SMOOTH",
"560.945 537.616 OFFCURVE",
"560 593.174 OFFCURVE",
"560 651 CURVE SMOOTH",
"560 667 OFFCURVE",
"570 681 OFFCURVE",
"588 681 CURVE SMOOTH",
"603 681 OFFCURVE",
"616 668 OFFCURVE",
"616 653 CURVE SMOOTH"
);
}
);
userData = {
com.fontlab.hintData = {
hhints = (
{
position = 0;
width = 49;
},
{
position = 661;
width = 20;
}
);
vhints = (
{
position = 65;
width = 56;
},
{
position = 561;
width = 59;
}
);
};
};
width = 683;
}
);
unicode = 0055;
},
{
glyphname = Uacute;
layers = (
{
layerId = master01;
paths = (
{
closed = 1;
nodes = (
"617.851 594.691 OFFCURVE",
"619.916 536.168 OFFCURVE",
"619.916 477.233 CURVE SMOOTH",
"619.916 408.815 OFFCURVE",
"617.133 339.84 OFFCURVE",
"608 270 CURVE SMOOTH",
"587 110 OFFCURVE",
"510 0 OFFCURVE",
"333 0 CURVE SMOOTH",
"165 0 OFFCURVE",
"76 125 OFFCURVE",
"67 367 CURVE SMOOTH",
"65.491 407.356 OFFCURVE",
"64.978 446.005 OFFCURVE",
"64.978 483.055 CURVE SMOOTH",
"64.978 544.238 OFFCURVE",
"66.377 601.059 OFFCURVE",
"67 654 CURVE SMOOTH",
"67 670 OFFCURVE",
"81 681 OFFCURVE",
"95 681 CURVE SMOOTH",
"110 681 OFFCURVE",
"123 669 OFFCURVE",
"123 653 CURVE SMOOTH",
"121.903 604.176 OFFCURVE",
"121.107 555.051 OFFCURVE",
"121.107 505.295 CURVE SMOOTH",
"121.107 464.352 OFFCURVE",
"121.646 422.982 OFFCURVE",
"123 381 CURVE SMOOTH",
"128 236 OFFCURVE",
"159 49 OFFCURVE",
"335 49 CURVE SMOOTH",
"470 49 OFFCURVE",
"536 139 OFFCURVE",
"552 277 CURVE SMOOTH",
"559.348 344.826 OFFCURVE",
"560.945 412.972 OFFCURVE",
"560.945 483.423 CURVE SMOOTH",
"560.945 537.616 OFFCURVE",
"560 593.174 OFFCURVE",
"560 651 CURVE SMOOTH",
"560 667 OFFCURVE",
"570 681 OFFCURVE",
"588 681 CURVE SMOOTH",
"603 681 OFFCURVE",
"616 668 OFFCURVE",
"616 653 CURVE SMOOTH"
);
},
{
closed = 1;
nodes = (
"315 741 LINE SMOOTH",
"308 736 OFFCURVE",
"300 732 OFFCURVE",
"294 732 CURVE SMOOTH",
"280 732 OFFCURVE",
"268 744 OFFCURVE",
"268 759 CURVE SMOOTH",
"268 765 OFFCURVE",
"269 772 OFFCURVE",
"274 776 CURVE SMOOTH",
"400 879 LINE SMOOTH",
"408 886 OFFCURVE",
"418 894 OFFCURVE",
"429 894 CURVE SMOOTH",
"448 894 OFFCURVE",
"463 878 OFFCURVE",
"463 858 CURVE SMOOTH",
"463 849 OFFCURVE",
"460 840 OFFCURVE",
"453 835 CURVE SMOOTH"
);
}
);
userData = {
com.fontlab.hintData = {
hhints = (
{
position = 0;
width = 49;
},
{
position = 661;
width = 20;
}
);
vhints = (
{
position = 65;
width = 56;
},
{
position = 561;
width = 59;
}
);
};
};
width = 683;
}
);
unicode = 00DA;
},
{
glyphname = Ubreve;
layers = (
{
layerId = master01;
paths = (
{
closed = 1;
nodes = (
"186 860 OFFCURVE",
"188 871 OFFCURVE",
"203 871 CURVE SMOOTH",
"214 871 OFFCURVE",
"222 860 OFFCURVE",
"226 853 CURVE SMOOTH",
"251 803 OFFCURVE",
"309 786 OFFCURVE",
"346 786 CURVE SMOOTH",
"397 786 OFFCURVE",
"432 806 OFFCURVE",
"452 855 CURVE SMOOTH",
"457 867 OFFCURVE",
"462 876 OFFCURVE",
"475 876 CURVE SMOOTH",
"484 876 OFFCURVE",
"492 868 OFFCURVE",
"492 859 CURVE SMOOTH",
"492 814 OFFCURVE",
"439 740 OFFCURVE",
"344 740 CURVE SMOOTH",
"226 740 OFFCURVE",
"186 831 OFFCURVE",
"186 852 CURVE SMOOTH"
);
},
{
closed = 1;
nodes = (
"617.851 594.691 OFFCURVE",
"619.916 536.168 OFFCURVE",
"619.916 477.233 CURVE SMOOTH",
"619.916 408.815 OFFCURVE",
"617.133 339.84 OFFCURVE",
"608 270 CURVE SMOOTH",
"587 110 OFFCURVE",
"510 0 OFFCURVE",
"333 0 CURVE SMOOTH",
"165 0 OFFCURVE",
"76 125 OFFCURVE",
"67 367 CURVE SMOOTH",
"65.491 407.356 OFFCURVE",
"64.978 446.005 OFFCURVE",
"64.978 483.055 CURVE SMOOTH",
"64.978 544.238 OFFCURVE",
"66.377 601.059 OFFCURVE",
"67 654 CURVE SMOOTH",
"67 670 OFFCURVE",
"81 681 OFFCURVE",
"95 681 CURVE SMOOTH",
"110 681 OFFCURVE",
"123 669 OFFCURVE",
"123 653 CURVE SMOOTH",
"121.903 604.176 OFFCURVE",
"121.107 555.051 OFFCURVE",
"121.107 505.295 CURVE SMOOTH",
"121.107 464.352 OFFCURVE",
"121.646 422.982 OFFCURVE",
"123 381 CURVE SMOOTH",
"128 236 OFFCURVE",
"159 49 OFFCURVE",
"335 49 CURVE SMOOTH",
"470 49 OFFCURVE",
"536 139 OFFCURVE",
"552 277 CURVE SMOOTH",
"559.348 344.826 OFFCURVE",
"560.945 412.972 OFFCURVE",
"560.945 483.423 CURVE SMOOTH",
"560.945 537.616 OFFCURVE",
"560 593.174 OFFCURVE",
"560 651 CURVE SMOOTH",
"560 667 OFFCURVE",
"570 681 OFFCURVE",
"588 681 CURVE SMOOTH",
"603 681 OFFCURVE",
"616 668 OFFCURVE",
"616 653 CURVE SMOOTH"
);
}
);
userData = {
com.fontlab.hintData = {
hhints = (
{
position = 0;
width = 49;
},
{
position = 661;
width = 20;
},
{
position = 740;
width = 46;
}
);
vhints = (
{
position = 65;
width = 56;
},
{
position = 186;
width = 40;
},
{
position = 561;
width = 59;
}
);
};
};
width = 683;
}
);
unicode = 016C;
},
{
glyphname = Ucircumflex;
layers = (
{
layerId = master01;
paths = (
{
closed = 1;
nodes = (
"617.851 594.691 OFFCURVE",
"619.916 536.168 OFFCURVE",
"619.916 477.233 CURVE SMOOTH",
"619.916 408.815 OFFCURVE",
"617.133 339.84 OFFCURVE",
"608 270 CURVE SMOOTH",
"587 110 OFFCURVE",
"510 0 OFFCURVE",
"333 0 CURVE SMOOTH",
"165 0 OFFCURVE",
"76 125 OFFCURVE",
"67 367 CURVE SMOOTH",
"65.491 407.356 OFFCURVE",
"64.978 446.005 OFFCURVE",
"64.978 483.055 CURVE SMOOTH",
"64.978 544.238 OFFCURVE",
"66.377 601.059 OFFCURVE",
"67 654 CURVE SMOOTH",
"67 670 OFFCURVE",
"81 681 OFFCURVE",
"95 681 CURVE SMOOTH",
"110 681 OFFCURVE",
"123 669 OFFCURVE",
"123 653 CURVE SMOOTH",
"121.903 604.176 OFFCURVE",
"121.107 555.051 OFFCURVE",
"121.107 505.295 CURVE SMOOTH",
"121.107 464.352 OFFCURVE",
"121.646 422.982 OFFCURVE",
"123 381 CURVE SMOOTH",
"128 236 OFFCURVE",
"159 49 OFFCURVE",
"335 49 CURVE SMOOTH",
"470 49 OFFCURVE",
"536 139 OFFCURVE",
"552 277 CURVE SMOOTH",
"559.348 344.826 OFFCURVE",
"560.945 412.972 OFFCURVE",
"560.945 483.423 CURVE SMOOTH",
"560.945 537.616 OFFCURVE",
"560 593.174 OFFCURVE",
"560 651 CURVE SMOOTH",
"560 667 OFFCURVE",
"570 681 OFFCURVE",
"588 681 CURVE SMOOTH",
"603 681 OFFCURVE",
"616 668 OFFCURVE",
"616 653 CURVE SMOOTH"
);
},
{
closed = 1;
nodes = (
"492 777 LINE SMOOTH",
"498 772 OFFCURVE",
"501 765 OFFCURVE",
"501 757 CURVE SMOOTH",
"501 743 OFFCURVE",
"489 731 OFFCURVE",
"475 731 CURVE SMOOTH",
"468 731 OFFCURVE",
"461 733 OFFCURVE",
"456 738 CURVE SMOOTH",
"360 825 LINE",
"245 736 LINE SMOOTH",
"240 732 OFFCURVE",
"234 731 OFFCURVE",
"228 731 CURVE SMOOTH",
"214 731 OFFCURVE",
"202 742 OFFCURVE",
"202 757 CURVE SMOOTH",
"202 765 OFFCURVE",
"205 773 OFFCURVE",
"212 778 CURVE SMOOTH",
"343 888 LINE SMOOTH",
"349 893 OFFCURVE",
"356 895 OFFCURVE",
"362 895 CURVE SMOOTH",
"369 895 OFFCURVE",
"376 892 OFFCURVE",
"382 887 CURVE SMOOTH"
);
}
);
userData = {
com.fontlab.hintData = {
hhints = (
{
position = 0;
width = 49;
},
{
position = 661;
width = 20;
}
);
vhints = (
{
position = 65;
width = 56;
},
{
position = 561;
width = 59;
}
);
};
};
width = 683;
}
);
unicode = 00DB;
},
{
glyphname = Udieresis;
layers = (
{
layerId = master01;
paths = (
{
closed = 1;
nodes = (
"617.851 594.691 OFFCURVE",
"619.916 536.168 OFFCURVE",
"619.916 477.233 CURVE SMOOTH",
"619.916 408.815 OFFCURVE",
"617.133 339.84 OFFCURVE",
"608 270 CURVE SMOOTH",
"587 110 OFFCURVE",
"510 0 OFFCURVE",
"333 0 CURVE SMOOTH",
"165 0 OFFCURVE",
"76 125 OFFCURVE",
"67 367 CURVE SMOOTH",
"65.491 407.356 OFFCURVE",
"64.978 446.005 OFFCURVE",
"64.978 483.055 CURVE SMOOTH",
"64.978 544.238 OFFCURVE",
"66.377 601.059 OFFCURVE",
"67 654 CURVE SMOOTH",
"67 670 OFFCURVE",
"81 681 OFFCURVE",
"95 681 CURVE SMOOTH",
"110 681 OFFCURVE",
"123 669 OFFCURVE",
"123 653 CURVE SMOOTH",
"121.903 604.176 OFFCURVE",
"121.107 555.051 OFFCURVE",
"121.107 505.295 CURVE SMOOTH",
"121.107 464.352 OFFCURVE",
"121.646 422.982 OFFCURVE",
"123 381 CURVE SMOOTH",
"128 236 OFFCURVE",
"159 49 OFFCURVE",
"335 49 CURVE SMOOTH",
"470 49 OFFCURVE",
"536 139 OFFCURVE",
"552 277 CURVE SMOOTH",
"559.348 344.826 OFFCURVE",
"560.945 412.972 OFFCURVE",
"560.945 483.423 CURVE SMOOTH",
"560.945 537.616 OFFCURVE",
"560 593.174 OFFCURVE",
"560 651 CURVE SMOOTH",
"560 667 OFFCURVE",
"570 681 OFFCURVE",
"588 681 CURVE SMOOTH",
"603 681 OFFCURVE",
"616 668 OFFCURVE",
"616 653 CURVE SMOOTH"
);
},
{
closed = 1;
nodes = (
"312 753 OFFCURVE",
"290 733 OFFCURVE",
"261 733 CURVE SMOOTH",
"236 733 OFFCURVE",
"216 749 OFFCURVE",
"216 772 CURVE SMOOTH",
"216 795 OFFCURVE",
"239 816 OFFCURVE",
"267 816 CURVE SMOOTH",
"290 816 OFFCURVE",
"312 799 OFFCURVE",
"312 777 CURVE SMOOTH"
);
},
{
closed = 1;
nodes = (
"471 753 OFFCURVE",
"449 733 OFFCURVE",
"420 733 CURVE SMOOTH",
"395 733 OFFCURVE",
"375 749 OFFCURVE",
"375 772 CURVE SMOOTH",
"375 795 OFFCURVE",
"398 816 OFFCURVE",
"426 816 CURVE SMOOTH",
"449 816 OFFCURVE",
"471 799 OFFCURVE",
"471 777 CURVE SMOOTH"
);
}
);
userData = {
com.fontlab.hintData = {
hhints = (
{
position = 0;
width = 49;
},
{
position = 661;
width = 20;
},
{
position = 733;
width = 83;
}
);
vhints = (
{
position = 65;
width = 56;
},
{
position = 216;
width = 96;
},
{
position = 375;
width = 96;
},
{
position = 561;
width = 59;
}
);
};
};
width = 683;
}
);
unicode = 00DC;
},
{
glyphname = Ugrave;
layers = (
{
layerId = master01;
paths = (
{
closed = 1;
nodes = (
"617.851 594.691 OFFCURVE",
"619.916 536.168 OFFCURVE",
"619.916 477.233 CURVE SMOOTH",
"619.916 408.815 OFFCURVE",
"617.133 339.84 OFFCURVE",
"608 270 CURVE SMOOTH",
"587 110 OFFCURVE",
"510 0 OFFCURVE",
"333 0 CURVE SMOOTH",
"165 0 OFFCURVE",
"76 125 OFFCURVE",
"67 367 CURVE SMOOTH",
"65.491 407.356 OFFCURVE",
"64.978 446.005 OFFCURVE",
"64.978 483.055 CURVE SMOOTH",
"64.978 544.238 OFFCURVE",
"66.377 601.059 OFFCURVE",
"67 654 CURVE SMOOTH",
"67 670 OFFCURVE",
"81 681 OFFCURVE",
"95 681 CURVE SMOOTH",
"110 681 OFFCURVE",
"123 669 OFFCURVE",
"123 653 CURVE SMOOTH",
"121.903 604.176 OFFCURVE",
"121.107 555.051 OFFCURVE",
"121.107 505.295 CURVE SMOOTH",
"121.107 464.352 OFFCURVE",
"121.646 422.982 OFFCURVE",
"123 381 CURVE SMOOTH",
"128 236 OFFCURVE",
"159 49 OFFCURVE",
"335 49 CURVE SMOOTH",
"470 49 OFFCURVE",
"536 139 OFFCURVE",
"552 277 CURVE SMOOTH",
"559.348 344.826 OFFCURVE",
"560.945 412.972 OFFCURVE",
"560.945 483.423 CURVE SMOOTH",
"560.945 537.616 OFFCURVE",
"560 593.174 OFFCURVE",
"560 651 CURVE SMOOTH",
"560 667 OFFCURVE",
"570 681 OFFCURVE",
"588 681 CURVE SMOOTH",
"603 681 OFFCURVE",
"616 668 OFFCURVE",
"616 653 CURVE SMOOTH"
);
},
{
closed = 1;
nodes = (
"248 846 LINE SMOOTH",
"241 853 OFFCURVE",
"237 861 OFFCURVE",
"237 871 CURVE SMOOTH",
"237 889 OFFCURVE",
"254 905 OFFCURVE",
"272 905 CURVE SMOOTH",
"283 905 OFFCURVE",
"294 898 OFFCURVE",
"301 890 CURVE SMOOTH",
"406 760 LINE SMOOTH",
"411 753 OFFCURVE",
"413 748 OFFCURVE",
"413 742 CURVE SMOOTH",
"413 727 OFFCURVE",
"399 716 OFFCURVE",
"385 716 CURVE SMOOTH",
"377 716 OFFCURVE",
"371 720 OFFCURVE",
"366 725 CURVE SMOOTH"
);
}
);
userData = {
com.fontlab.hintData = {
hhints = (
{
position = 0;
width = 49;
},
{
position = 661;
width = 20;
}
);
vhints = (
{
position = 65;
width = 56;
},
{
position = 561;
width = 59;
}
);
};
};
width = 683;
}
);
unicode = 00D9;
},
{
glyphname = Uhungarumlaut;
layers = (
{
layerId = master01;
paths = (
{
closed = 1;
nodes = (
"617.851 594.691 OFFCURVE",
"619.916 536.168 OFFCURVE",
"619.916 477.233 CURVE SMOOTH",
"619.916 408.815 OFFCURVE",
"617.133 339.84 OFFCURVE",
"608 270 CURVE SMOOTH",
"587 110 OFFCURVE",
"510 0 OFFCURVE",
"333 0 CURVE SMOOTH",
"165 0 OFFCURVE",
"76 125 OFFCURVE",
"67 367 CURVE SMOOTH",
"65.491 407.356 OFFCURVE",
"64.978 446.005 OFFCURVE",
"64.978 483.055 CURVE SMOOTH",
"64.978 544.238 OFFCURVE",
"66.377 601.059 OFFCURVE",
"67 654 CURVE SMOOTH",
"67 670 OFFCURVE",
"81 681 OFFCURVE",
"95 681 CURVE SMOOTH",
"110 681 OFFCURVE",
"123 669 OFFCURVE",
"123 653 CURVE SMOOTH",
"121.903 604.176 OFFCURVE",
"121.107 555.051 OFFCURVE",
"121.107 505.295 CURVE SMOOTH",
"121.107 464.352 OFFCURVE",
"121.646 422.982 OFFCURVE",
"123 381 CURVE SMOOTH",
"128 236 OFFCURVE",
"159 49 OFFCURVE",
"335 49 CURVE SMOOTH",
"470 49 OFFCURVE",
"536 139 OFFCURVE",
"552 277 CURVE SMOOTH",
"559.348 344.826 OFFCURVE",
"560.945 412.972 OFFCURVE",
"560.945 483.423 CURVE SMOOTH",
"560.945 537.616 OFFCURVE",
"560 593.174 OFFCURVE",
"560 651 CURVE SMOOTH",
"560 667 OFFCURVE",
"570 681 OFFCURVE",
"588 681 CURVE SMOOTH",
"603 681 OFFCURVE",
"616 668 OFFCURVE",
"616 653 CURVE SMOOTH"
);
},
{
closed = 1;
nodes = (
"248 730 LINE SMOOTH",
"241 725 OFFCURVE",
"233 721 OFFCURVE",
"227 721 CURVE SMOOTH",
"213 721 OFFCURVE",
"201 733 OFFCURVE",
"201 748 CURVE SMOOTH",
"201 754 OFFCURVE",
"202 761 OFFCURVE",
"207 765 CURVE SMOOTH",
"333 868 LINE SMOOTH",
"341 875 OFFCURVE",
"351 883 OFFCURVE",
"362 883 CURVE SMOOTH",
"381 883 OFFCURVE",
"396 867 OFFCURVE",
"396 847 CURVE SMOOTH",
"396 838 OFFCURVE",
"393 829 OFFCURVE",
"386 824 CURVE SMOOTH"
);
},
{
closed = 1;
nodes = (
"408 730 LINE SMOOTH",
"401 725 OFFCURVE",
"393 721 OFFCURVE",
"387 721 CURVE SMOOTH",
"373 721 OFFCURVE",
"361 733 OFFCURVE",
"361 748 CURVE SMOOTH",
"361 754 OFFCURVE",
"362 761 OFFCURVE",
"367 765 CURVE SMOOTH",
"493 868 LINE SMOOTH",
"501 875 OFFCURVE",
"511 883 OFFCURVE",
"522 883 CURVE SMOOTH",
"541 883 OFFCURVE",
"556 867 OFFCURVE",
"556 847 CURVE SMOOTH",
"556 838 OFFCURVE",
"553 829 OFFCURVE",
"546 824 CURVE SMOOTH"
);
}
);
userData = {
com.fontlab.hintData = {
hhints = (
{
position = 0;
width = 49;
},
{
position = 661;
width = 20;
}
);
vhints = (
{
position = 65;
width = 56;
},
{
position = 561;
width = 59;
}
);
};
};
width = 683;
}
);
unicode = 0170;
},
{
glyphname = Uring;
layers = (
{
layerId = master01;
paths = (
{
closed = 1;
nodes = (
"617.851 594.691 OFFCURVE",
"619.916 536.168 OFFCURVE",
"619.916 477.233 CURVE SMOOTH",
"619.916 408.815 OFFCURVE",
"617.133 339.84 OFFCURVE",
"608 270 CURVE SMOOTH",
"587 110 OFFCURVE",
"510 0 OFFCURVE",
"333 0 CURVE SMOOTH",
"165 0 OFFCURVE",
"76 125 OFFCURVE",
"67 367 CURVE SMOOTH",
"65.491 407.356 OFFCURVE",
"64.978 446.005 OFFCURVE",
"64.978 483.055 CURVE SMOOTH",
"64.978 544.238 OFFCURVE",
"66.377 601.059 OFFCURVE",
"67 654 CURVE SMOOTH",
"67 670 OFFCURVE",
"81 681 OFFCURVE",
"95 681 CURVE SMOOTH",
"110 681 OFFCURVE",
"123 669 OFFCURVE",
"123 653 CURVE SMOOTH",
"121.903 604.176 OFFCURVE",
"121.107 555.051 OFFCURVE",
"121.107 505.295 CURVE SMOOTH",
"121.107 464.352 OFFCURVE",
"121.646 422.982 OFFCURVE",
"123 381 CURVE SMOOTH",
"128 236 OFFCURVE",
"159 49 OFFCURVE",
"335 49 CURVE SMOOTH",
"470 49 OFFCURVE",
"536 139 OFFCURVE",
"552 277 CURVE SMOOTH",
"559.348 344.826 OFFCURVE",
"560.945 412.972 OFFCURVE",
"560.945 483.423 CURVE SMOOTH",
"560.945 537.616 OFFCURVE",
"560 593.174 OFFCURVE",
"560 651 CURVE SMOOTH",
"560 667 OFFCURVE",
"570 681 OFFCURVE",
"588 681 CURVE SMOOTH",
"603 681 OFFCURVE",
"616 668 OFFCURVE",
"616 653 CURVE SMOOTH"
);
},
{
closed = 1;
nodes = (
"278 721 OFFCURVE",
"226 766 OFFCURVE",
"226 823 CURVE SMOOTH",
"226 891 OFFCURVE",
"294 940 OFFCURVE",
"362 940 CURVE SMOOTH",
"422 940 OFFCURVE",
"475 895 OFFCURVE",
"475 837 CURVE SMOOTH",
"475 768 OFFCURVE",
"407 721 OFFCURVE",
"340 721 CURVE SMOOTH"
);
},
{
closed = 1;
nodes = (
"304 893 OFFCURVE",
"268 853 OFFCURVE",
"268 823 CURVE SMOOTH",
"268 788 OFFCURVE",
"303 767 OFFCURVE",
"349 767 CURVE SMOOTH",
"384 767 OFFCURVE",
"433 793 OFFCURVE",
"433 835 CURVE SMOOTH",
"433 864 OFFCURVE",
"401 893 OFFCURVE",
"358 893 CURVE SMOOTH"
);
}
);
userData = {
com.fontlab.hintData = {
hhints = (
{
position = 0;
width = 49;
},
{
position = 661;
width = 20;
},
{
position = 721;
width = 46;
},
{
position = 893;
width = 47;
}
);
vhints = (
{
position = 65;
width = 56;
},
{
position = 226;
width = 42;
},
{
position = 433;
width = 42;
},
{
position = 561;
width = 59;
}
);
};
};
width = 683;
}
);
unicode = 016E;
},
{
glyphname = V;
layers = (
{
layerId = master01;
paths = (
{
closed = 1;
nodes = (
"238 0 OFFCURVE",
"227 8 OFFCURVE",
"223 19 CURVE SMOOTH",
"14 638 LINE SMOOTH",
"12 643 OFFCURVE",
"11 650 OFFCURVE",
"11 653 CURVE SMOOTH",
"11 668 OFFCURVE",
"21 680 OFFCURVE",
"39 680 CURVE SMOOTH",
"51 680 OFFCURVE",
"62 673 OFFCURVE",
"66 661 CURVE SMOOTH",
"252 110 LINE",
"470 663 LINE SMOOTH",
"475 674 OFFCURVE",
"485 680 OFFCURVE",
"497 680 CURVE SMOOTH",
"513 680 OFFCURVE",
"524 667 OFFCURVE",
"524 653 CURVE SMOOTH",
"524 649 OFFCURVE",
"523 646 OFFCURVE",
"522 642 CURVE SMOOTH",
"276 18 LINE SMOOTH",
"271 7 OFFCURVE",
"261 0 OFFCURVE",
"250 0 CURVE SMOOTH"
);
}
);
userData = {
com.fontlab.hintData = {
hhints = (
{
position = 0;
width = 21;
}
);
vhints = (
{
position = 470;
width = 54;
}
);
};
};
width = 535;
}
);
unicode = 0056;
},
{
glyphname = W;
layers = (
{
layerId = master01;
paths = (
{
closed = 1;
nodes = (
"589 0 OFFCURVE",
"579 7 OFFCURVE",
"576 20 CURVE SMOOTH",
"428 556 LINE",
"255 19 LINE SMOOTH",
"251 6 OFFCURVE",
"241 0 OFFCURVE",
"228 0 CURVE SMOOTH",
"216 0 OFFCURVE",
"205 8 OFFCURVE",
"202 19 CURVE SMOOTH",
"16 632 LINE SMOOTH",
"12 645 OFFCURVE",
"11 651 OFFCURVE",
"11 654 CURVE SMOOTH",
"11 670 OFFCURVE",
"23 681 OFFCURVE",
"38 681 CURVE SMOOTH",
"51 681 OFFCURVE",
"61 673 OFFCURVE",
"65 661 CURVE SMOOTH",
"229 121 LINE",
"404 662 LINE SMOOTH",
"408 675 OFFCURVE",
"418 681 OFFCURVE",
"431 681 CURVE SMOOTH",
"443 681 OFFCURVE",
"454 673 OFFCURVE",
"457 661 CURVE SMOOTH",
"606 120 LINE",
"802 663 LINE SMOOTH",
"806 674 OFFCURVE",
"817 681 OFFCURVE",
"828 681 CURVE SMOOTH",
"844 681 OFFCURVE",
"856 667 OFFCURVE",
"856 655 CURVE SMOOTH",
"856 651 OFFCURVE",
"855 647 OFFCURVE",
"854 644 CURVE SMOOTH",
"629 18 LINE SMOOTH",
"625 7 OFFCURVE",
"615 0 OFFCURVE",
"603 0 CURVE SMOOTH"
);
}
);
userData = {
com.fontlab.hintData = {
hhints = (
{
position = 0;
width = 21;
},
{
position = 661;
width = 20;
}
);
vhints = (
{
position = 11;
width = 54;
},
{
position = 802;
width = 54;
}
);
};
};
width = 867;
}
);
unicode = 0057;
},
{
glyphname = X;
layers = (
{
layerId = master01;
paths = (
{
closed = 1;
nodes = (
"620 45 LINE SMOOTH",
"624 40 OFFCURVE",
"625 34 OFFCURVE",
"625 28 CURVE SMOOTH",
"625 13 OFFCURVE",
"613 0 OFFCURVE",
"598 0 CURVE SMOOTH",
"590 0 OFFCURVE",
"582 3 OFFCURVE",
"576 10 CURVE SMOOTH",
"344 301 LINE",
"100 10 LINE SMOOTH",
"95 3 OFFCURVE",
"87 0 OFFCURVE",
"79 0 CURVE SMOOTH",
"62 0 OFFCURVE",
"50 14 OFFCURVE",
"50 28 CURVE SMOOTH",
"50 34 OFFCURVE",
"53 41 OFFCURVE",
"57 46 CURVE SMOOTH",
"309 346 LINE",
"78 636 LINE SMOOTH",
"74 641 OFFCURVE",
"71 647 OFFCURVE",
"71 654 CURVE SMOOTH",
"71 669 OFFCURVE",
"85 681 OFFCURVE",
"100 681 CURVE SMOOTH",
"108 681 OFFCURVE",
"116 678 OFFCURVE",
"122 671 CURVE SMOOTH",
"345 390 LINE",
"581 671 LINE SMOOTH",
"587 678 OFFCURVE",
"595 681 OFFCURVE",
"603 681 CURVE SMOOTH",
"618 681 OFFCURVE",
"631 668 OFFCURVE",
"631 654 CURVE SMOOTH",
"631 647 OFFCURVE",
"628 640 OFFCURVE",
"624 635 CURVE SMOOTH",
"381 345 LINE"
);
}
);
userData = {
com.fontlab.hintData = {
hhints = (
{
position = 0;
width = 21;
},
{
position = 661;
width = 20;
}
);
};
};
width = 681;
}
);
unicode = 0058;
},
{
glyphname = Y;
layers = (
{
layerId = master01;
paths = (
{
closed = 1;
nodes = (
"578 681 OFFCURVE",
"592 669 OFFCURVE",
"592 653 CURVE SMOOTH",
"592 648 OFFCURVE",
"591 644 OFFCURVE",
"584 632 CURVE SMOOTH",
"217 14 LINE SMOOTH",
"212 5 OFFCURVE",
"203 0 OFFCURVE",
"193 0 CURVE SMOOTH",
"177 0 OFFCURVE",
"165 14 OFFCURVE",
"165 28 CURVE SMOOTH",
"165 34 OFFCURVE",
"168 41 OFFCURVE",
"171 46 CURVE SMOOTH",
"271 214 LINE",
"26 635 LINE SMOOTH",
"22 642 OFFCURVE",
"20 648 OFFCURVE",
"20 653 CURVE SMOOTH",
"20 668 OFFCURVE",
"33 681 OFFCURVE",
"49 681 CURVE SMOOTH",
"58 681 OFFCURVE",
"67 676 OFFCURVE",
"72 667 CURVE SMOOTH",
"304 269 LINE",
"540 667 LINE SMOOTH",
"545 676 OFFCURVE",
"554 681 OFFCURVE",
"564 681 CURVE SMOOTH"
);
}
);
userData = {
com.fontlab.hintData = {
hhints = (
{
position = 0;
width = 21;
},
{
position = 661;
width = 20;
}
);
};
};
width = 593;
}
);
unicode = 0059;
},
{
glyphname = Yacute;
layers = (
{
layerId = master01;
paths = (
{
closed = 1;
nodes = (
"578 681 OFFCURVE",
"592 669 OFFCURVE",
"592 653 CURVE SMOOTH",
"592 648 OFFCURVE",
"591 644 OFFCURVE",
"584 632 CURVE SMOOTH",
"217 14 LINE SMOOTH",
"212 5 OFFCURVE",
"203 0 OFFCURVE",
"193 0 CURVE SMOOTH",
"177 0 OFFCURVE",
"165 14 OFFCURVE",
"165 28 CURVE SMOOTH",
"165 34 OFFCURVE",
"168 41 OFFCURVE",
"171 46 CURVE SMOOTH",
"271 214 LINE",
"26 635 LINE SMOOTH",
"22 642 OFFCURVE",
"20 648 OFFCURVE",
"20 653 CURVE SMOOTH",
"20 668 OFFCURVE",
"33 681 OFFCURVE",
"49 681 CURVE SMOOTH",
"58 681 OFFCURVE",
"67 676 OFFCURVE",
"72 667 CURVE SMOOTH",
"304 269 LINE",
"540 667 LINE SMOOTH",
"545 676 OFFCURVE",
"554 681 OFFCURVE",
"564 681 CURVE SMOOTH"
);
},
{
closed = 1;
nodes = (
"266 759 LINE SMOOTH",
"259 754 OFFCURVE",
"251 750 OFFCURVE",
"245 750 CURVE SMOOTH",
"231 750 OFFCURVE",
"219 762 OFFCURVE",
"219 777 CURVE SMOOTH",
"219 783 OFFCURVE",
"220 790 OFFCURVE",
"225 794 CURVE SMOOTH",
"351 897 LINE SMOOTH",
"359 904 OFFCURVE",
"369 912 OFFCURVE",
"380 912 CURVE SMOOTH",
"399 912 OFFCURVE",
"414 896 OFFCURVE",
"414 876 CURVE SMOOTH",
"414 867 OFFCURVE",
"411 858 OFFCURVE",
"404 853 CURVE SMOOTH"
);
}
);
userData = {
com.fontlab.hintData = {
hhints = (
{
position = 0;
width = 21;
},
{
position = 661;
width = 20;
}
);
};
};
width = 593;
}
);
unicode = 00DD;
},
{
glyphname = Ydieresis;
layers = (
{
layerId = master01;
paths = (
{
closed = 1;
nodes = (
"578 681 OFFCURVE",
"592 669 OFFCURVE",
"592 653 CURVE SMOOTH",
"592 648 OFFCURVE",
"591 644 OFFCURVE",
"584 632 CURVE SMOOTH",
"217 14 LINE SMOOTH",
"212 5 OFFCURVE",
"203 0 OFFCURVE",
"193 0 CURVE SMOOTH",
"177 0 OFFCURVE",
"165 14 OFFCURVE",
"165 28 CURVE SMOOTH",
"165 34 OFFCURVE",
"168 41 OFFCURVE",
"171 46 CURVE SMOOTH",
"271 214 LINE",
"26 635 LINE SMOOTH",
"22 642 OFFCURVE",
"20 648 OFFCURVE",
"20 653 CURVE SMOOTH",
"20 668 OFFCURVE",
"33 681 OFFCURVE",
"49 681 CURVE SMOOTH",
"58 681 OFFCURVE",
"67 676 OFFCURVE",
"72 667 CURVE SMOOTH",
"304 269 LINE",
"540 667 LINE SMOOTH",
"545 676 OFFCURVE",
"554 681 OFFCURVE",
"564 681 CURVE SMOOTH"
);
},
{
closed = 1;
nodes = (
"272 743 OFFCURVE",
"250 723 OFFCURVE",
"221 723 CURVE SMOOTH",
"196 723 OFFCURVE",
"176 739 OFFCURVE",
"176 762 CURVE SMOOTH",
"176 785 OFFCURVE",
"199 806 OFFCURVE",
"227 806 CURVE SMOOTH",
"250 806 OFFCURVE",
"272 789 OFFCURVE",
"272 767 CURVE SMOOTH"
);
},
{
closed = 1;
nodes = (
"431 743 OFFCURVE",
"409 723 OFFCURVE",
"380 723 CURVE SMOOTH",
"355 723 OFFCURVE",
"335 739 OFFCURVE",
"335 762 CURVE SMOOTH",
"335 785 OFFCURVE",
"358 806 OFFCURVE",
"386 806 CURVE SMOOTH",
"409 806 OFFCURVE",
"431 789 OFFCURVE",
"431 767 CURVE SMOOTH"
);
}
);
userData = {
com.fontlab.hintData = {
hhints = (
{
position = 0;
width = 21;
},
{
position = 661;
width = 20;
},
{
position = 723;
width = 83;
}
);
vhints = (
{
position = 176;
width = 96;
},
{
position = 335;
width = 96;
}
);
};
};
width = 593;
}
);
unicode = 0178;
},
{
glyphname = Z;
layers = (
{
layerId = master01;
paths = (
{
closed = 1;
nodes = (
"543 60 LINE SMOOTH",
"559 60 OFFCURVE",
"572 47 OFFCURVE",
"572 30 CURVE SMOOTH",
"572 14 OFFCURVE",
"559 0 OFFCURVE",
"543 0 CURVE SMOOTH",
"81 0 LINE SMOOTH",
"64 0 OFFCURVE",
"49 12 OFFCURVE",
"48 30 CURVE SMOOTH",
"48 40 OFFCURVE",
"51 48 OFFCURVE",
"56 55 CURVE SMOOTH",
"511 619 LINE",
"94 619 LINE SMOOTH",
"78 619 OFFCURVE",
"65 633 OFFCURVE",
"65 650 CURVE SMOOTH",
"65 666 OFFCURVE",
"78 680 OFFCURVE",
"94 680 CURVE SMOOTH",
"556 680 LINE SMOOTH",
"574 680 OFFCURVE",
"589 666 OFFCURVE",
"589 648 CURVE SMOOTH",
"589 639 OFFCURVE",
"585 632 OFFCURVE",
"581 626 CURVE SMOOTH",
"126 60 LINE"
);
}
);
userData = {
com.fontlab.hintData = {
hhints = (
{
position = 0;
width = 60;
},
{
position = 619;
width = 61;
}
);
};
};
width = 639;
}
);
unicode = 005A;
},
{
glyphname = Zacute;
layers = (
{
layerId = master01;
paths = (
{
closed = 1;
nodes = (
"298 759 LINE SMOOTH",
"291 754 OFFCURVE",
"283 750 OFFCURVE",
"277 750 CURVE SMOOTH",
"263 750 OFFCURVE",
"251 762 OFFCURVE",
"251 777 CURVE SMOOTH",
"251 783 OFFCURVE",
"252 790 OFFCURVE",
"257 794 CURVE SMOOTH",
"383 897 LINE SMOOTH",
"391 904 OFFCURVE",
"401 912 OFFCURVE",
"412 912 CURVE SMOOTH",
"431 912 OFFCURVE",
"446 896 OFFCURVE",
"446 876 CURVE SMOOTH",
"446 867 OFFCURVE",
"443 858 OFFCURVE",
"436 853 CURVE SMOOTH"
);
},
{
closed = 1;
nodes = (
"543 60 LINE SMOOTH",
"559 60 OFFCURVE",
"572 47 OFFCURVE",
"572 30 CURVE SMOOTH",
"572 14 OFFCURVE",
"559 0 OFFCURVE",
"543 0 CURVE SMOOTH",
"81 0 LINE SMOOTH",
"64 0 OFFCURVE",
"49 12 OFFCURVE",
"48 30 CURVE SMOOTH",
"48 40 OFFCURVE",
"51 48 OFFCURVE",
"56 55 CURVE SMOOTH",
"511 619 LINE",
"94 619 LINE SMOOTH",
"78 619 OFFCURVE",
"65 633 OFFCURVE",
"65 650 CURVE SMOOTH",
"65 666 OFFCURVE",
"78 680 OFFCURVE",
"94 680 CURVE SMOOTH",
"556 680 LINE SMOOTH",
"574 680 OFFCURVE",
"589 666 OFFCURVE",
"589 648 CURVE SMOOTH",
"589 639 OFFCURVE",
"585 632 OFFCURVE",
"581 626 CURVE SMOOTH",
"126 60 LINE"
);
}
);
userData = {
com.fontlab.hintData = {
hhints = (
{
position = 0;
width = 60;
},
{
position = 619;
width = 61;
}
);
};
};
width = 639;
}
);
unicode = 0179;
},
{
glyphname = Zcaron;
layers = (
{
layerId = master01;
paths = (
{
closed = 1;
nodes = (
"543 60 LINE SMOOTH",
"559 60 OFFCURVE",
"572 47 OFFCURVE",
"572 30 CURVE SMOOTH",
"572 14 OFFCURVE",
"559 0 OFFCURVE",
"543 0 CURVE SMOOTH",
"81 0 LINE SMOOTH",
"64 0 OFFCURVE",
"49 12 OFFCURVE",
"48 30 CURVE SMOOTH",
"48 40 OFFCURVE",
"51 48 OFFCURVE",
"56 55 CURVE SMOOTH",
"511 619 LINE",
"94 619 LINE SMOOTH",
"78 619 OFFCURVE",
"65 633 OFFCURVE",
"65 650 CURVE SMOOTH",
"65 666 OFFCURVE",
"78 680 OFFCURVE",
"94 680 CURVE SMOOTH",
"556 680 LINE SMOOTH",
"574 680 OFFCURVE",
"589 666 OFFCURVE",
"589 648 CURVE SMOOTH",
"589 639 OFFCURVE",
"585 632 OFFCURVE",
"581 626 CURVE SMOOTH",
"126 60 LINE"
);
},
{
closed = 1;
nodes = (
"182 848 LINE SMOOTH",
"176 853 OFFCURVE",
"173 860 OFFCURVE",
"173 868 CURVE SMOOTH",
"173 882 OFFCURVE",
"185 894 OFFCURVE",
"199 894 CURVE SMOOTH",
"206 894 OFFCURVE",
"213 892 OFFCURVE",
"218 887 CURVE SMOOTH",
"314 800 LINE",
"429 889 LINE SMOOTH",
"434 893 OFFCURVE",
"440 894 OFFCURVE",
"446 894 CURVE SMOOTH",
"460 894 OFFCURVE",
"472 883 OFFCURVE",
"472 868 CURVE SMOOTH",
"472 860 OFFCURVE",
"469 852 OFFCURVE",
"462 847 CURVE SMOOTH",
"331 737 LINE SMOOTH",
"325 732 OFFCURVE",
"318 730 OFFCURVE",
"312 730 CURVE SMOOTH",
"305 730 OFFCURVE",
"298 733 OFFCURVE",
"292 738 CURVE SMOOTH"
);
}
);
userData = {
com.fontlab.hintData = {
hhints = (
{
position = 0;
width = 60;
},
{
position = 619;
width = 61;
}
);
};
};
width = 639;
}
);
unicode = 017D;
},
{
glyphname = Zdotaccent;
layers = (
{
layerId = master01;
paths = (
{
closed = 1;
nodes = (
"382 753 OFFCURVE",
"360 733 OFFCURVE",
"331 733 CURVE SMOOTH",
"306 733 OFFCURVE",
"286 749 OFFCURVE",
"286 772 CURVE SMOOTH",
"286 795 OFFCURVE",
"309 816 OFFCURVE",
"337 816 CURVE SMOOTH",
"360 816 OFFCURVE",
"382 799 OFFCURVE",
"382 777 CURVE SMOOTH"
);
},
{
closed = 1;
nodes = (
"543 60 LINE SMOOTH",
"559 60 OFFCURVE",
"572 47 OFFCURVE",
"572 30 CURVE SMOOTH",
"572 14 OFFCURVE",
"559 0 OFFCURVE",
"543 0 CURVE SMOOTH",
"81 0 LINE SMOOTH",
"64 0 OFFCURVE",
"49 12 OFFCURVE",
"48 30 CURVE SMOOTH",
"48 40 OFFCURVE",
"51 48 OFFCURVE",
"56 55 CURVE SMOOTH",
"511 619 LINE",
"94 619 LINE SMOOTH",
"78 619 OFFCURVE",
"65 633 OFFCURVE",
"65 650 CURVE SMOOTH",
"65 666 OFFCURVE",
"78 680 OFFCURVE",
"94 680 CURVE SMOOTH",
"556 680 LINE SMOOTH",
"574 680 OFFCURVE",
"589 666 OFFCURVE",
"589 648 CURVE SMOOTH",
"589 639 OFFCURVE",
"585 632 OFFCURVE",
"581 626 CURVE SMOOTH",
"126 60 LINE"
);
}
);
userData = {
com.fontlab.hintData = {
hhints = (
{
position = 0;
width = 60;
},
{
position = 619;
width = 61;
},
{
position = 733;
width = 83;
}
);
vhints = (
{
position = 286;
width = 96;
}
);
};
};
width = 639;
}
);
unicode = 017B;
},
{
glyphname = uni0162;
layers = (
{
layerId = master01;
paths = (
{
closed = 1;
nodes = (
"500 681 OFFCURVE",
"512 669 OFFCURVE",
"512 653 CURVE SMOOTH",
"512 638 OFFCURVE",
"500 625 OFFCURVE",
"484 625 CURVE SMOOTH",
"282 625 LINE",
"282 28 LINE SMOOTH",
"282 13 OFFCURVE",
"270 0 OFFCURVE",
"254 0 CURVE SMOOTH",
"239 0 OFFCURVE",
"226 13 OFFCURVE",
"226 28 CURVE SMOOTH",
"226 625 LINE",
"38 625 LINE SMOOTH",
"23 625 OFFCURVE",
"10 638 OFFCURVE",
"10 653 CURVE SMOOTH",
"10 669 OFFCURVE",
"23 681 OFFCURVE",
"38 681 CURVE SMOOTH",
"484 681 LINE"
);
},
{
closed = 1;
nodes = (
"282 -28 OFFCURVE",
"296 -45 OFFCURVE",
"296 -60 CURVE SMOOTH",
"296 -79 OFFCURVE",
"292 -88 OFFCURVE",
"277 -124 CURVE SMOOTH",
"253 -182 OFFCURVE",
"252 -198 OFFCURVE",
"233 -198 CURVE SMOOTH",
"220 -198 OFFCURVE",
"210 -188 OFFCURVE",
"210 -176 CURVE SMOOTH",
"210 -173 OFFCURVE",
"211 -170 OFFCURVE",
"212 -167 CURVE SMOOTH",
"236 -103 LINE",
"229 -96 OFFCURVE",
"224 -85 OFFCURVE",
"224 -73 CURVE SMOOTH",
"224 -49 OFFCURVE",
"243 -28 OFFCURVE",
"264 -28 CURVE SMOOTH"
);
}
);
userData = {
com.fontlab.hintData = {
hhints = (
{
position = 0;
width = 21;
},
{
position = 625;
width = 56;
}
);
vhints = (
{
position = 210;
width = 67;
},
{
position = 224;
width = 72;
},
{
position = 226;
width = 56;
}
);
};
};
width = 522;
}
);
unicode = 0162;
},
{
glyphname = a;
layers = (
{
layerId = master01;
paths = (
{
closed = 1;
nodes = (
"440 30 LINE SMOOTH",
"440 14 OFFCURVE",
"428 0 OFFCURVE",
"412 0 CURVE SMOOTH",
"393 0 OFFCURVE",
"384 15 OFFCURVE",
"384 32 CURVE SMOOTH",
"384 55 LINE",
"348 33 OFFCURVE",
"293 8 OFFCURVE",
"238 8 CURVE SMOOTH",
"130 8 OFFCURVE",
"50 95 OFFCURVE",
"50 224 CURVE SMOOTH",
"50 328 OFFCURVE",
"115 514 OFFCURVE",
"289 514 CURVE SMOOTH",
"363 514 OFFCURVE",
"425 481 OFFCURVE",
"440 473 CURVE"
);
},
{
closed = 1;
nodes = (
"386 438 LINE",
"367 446 OFFCURVE",
"326 459 OFFCURVE",
"292 459 CURVE SMOOTH",
"155 459 OFFCURVE",
"107 309 OFFCURVE",
"107 226 CURVE SMOOTH",
"107 156 OFFCURVE",
"141 63 OFFCURVE",
"236 63 CURVE SMOOTH",
"297 63 OFFCURVE",
"359 105 OFFCURVE",
"382 121 CURVE"
);
}
);
userData = {
com.fontlab.hintData = {
hhints = (
{
position = 0;
width = 21;
},
{
position = 8;
width = 55;
},
{
position = 459;
width = 55;
}
);
vhints = (
{
position = 50;
width = 57;
},
{
position = 384;
width = 56;
}
);
};
};
width = 505;
}
);
unicode = 0061;
},
{
glyphname = aacute;
layers = (
{
layerId = master01;
paths = (
{
closed = 1;
nodes = (
"440 20 LINE SMOOTH",
"440 4 OFFCURVE",
"428 -10 OFFCURVE",
"412 -10 CURVE SMOOTH",
"393 -10 OFFCURVE",
"384 5 OFFCURVE",
"384 22 CURVE SMOOTH",
"384 45 LINE",
"348 23 OFFCURVE",
"293 -2 OFFCURVE",
"238 -2 CURVE SMOOTH",
"130 -2 OFFCURVE",
"50 85 OFFCURVE",
"50 214 CURVE SMOOTH",
"50 318 OFFCURVE",
"115 504 OFFCURVE",
"289 504 CURVE SMOOTH",
"363 504 OFFCURVE",
"425 471 OFFCURVE",
"440 463 CURVE"
);
},
{
closed = 1;
nodes = (
"386 428 LINE",
"367 436 OFFCURVE",
"326 449 OFFCURVE",
"292 449 CURVE SMOOTH",
"155 449 OFFCURVE",
"107 299 OFFCURVE",
"107 216 CURVE SMOOTH",
"107 146 OFFCURVE",
"141 53 OFFCURVE",
"236 53 CURVE SMOOTH",
"297 53 OFFCURVE",
"359 95 OFFCURVE",
"382 111 CURVE"
);
},
{
closed = 1;
nodes = (
"278 572 LINE SMOOTH",
"271 567 OFFCURVE",
"263 563 OFFCURVE",
"257 563 CURVE SMOOTH",
"243 563 OFFCURVE",
"231 575 OFFCURVE",
"231 590 CURVE SMOOTH",
"231 596 OFFCURVE",
"232 603 OFFCURVE",
"237 607 CURVE SMOOTH",
"363 710 LINE SMOOTH",
"371 717 OFFCURVE",
"381 725 OFFCURVE",
"392 725 CURVE SMOOTH",
"411 725 OFFCURVE",
"426 709 OFFCURVE",
"426 689 CURVE SMOOTH",
"426 680 OFFCURVE",
"423 671 OFFCURVE",
"416 666 CURVE SMOOTH"
);
}
);
userData = {
com.fontlab.hintData = {
hhints = (
{
position = -2;
width = 55;
},
{
position = 449;
width = 55;
}
);
vhints = (
{
position = 50;
width = 57;
},
{
position = 384;
width = 56;
}
);
};
};
width = 505;
}
);
unicode = 00E1;
},
{
glyphname = abreve;
layers = (
{
layerId = master01;
paths = (
{
closed = 1;
nodes = (
"440 20 LINE SMOOTH",
"440 4 OFFCURVE",
"428 -10 OFFCURVE",
"412 -10 CURVE SMOOTH",
"393 -10 OFFCURVE",
"384 5 OFFCURVE",
"384 22 CURVE SMOOTH",
"384 45 LINE",
"348 23 OFFCURVE",
"293 -2 OFFCURVE",
"238 -2 CURVE SMOOTH",
"130 -2 OFFCURVE",
"50 85 OFFCURVE",
"50 214 CURVE SMOOTH",
"50 318 OFFCURVE",
"115 504 OFFCURVE",
"289 504 CURVE SMOOTH",
"363 504 OFFCURVE",
"425 471 OFFCURVE",
"440 463 CURVE"
);
},
{
closed = 1;
nodes = (
"386 428 LINE",
"367 436 OFFCURVE",
"326 449 OFFCURVE",
"292 449 CURVE SMOOTH",
"155 449 OFFCURVE",
"107 299 OFFCURVE",
"107 216 CURVE SMOOTH",
"107 146 OFFCURVE",
"141 53 OFFCURVE",
"236 53 CURVE SMOOTH",
"297 53 OFFCURVE",
"359 95 OFFCURVE",
"382 111 CURVE"
);
},
{
closed = 1;
nodes = (
"127 679 OFFCURVE",
"129 690 OFFCURVE",
"144 690 CURVE SMOOTH",
"155 690 OFFCURVE",
"163 679 OFFCURVE",
"167 672 CURVE SMOOTH",
"192 622 OFFCURVE",
"250 605 OFFCURVE",
"287 605 CURVE SMOOTH",
"338 605 OFFCURVE",
"373 625 OFFCURVE",
"393 674 CURVE SMOOTH",
"398 686 OFFCURVE",
"403 695 OFFCURVE",
"416 695 CURVE SMOOTH",
"425 695 OFFCURVE",
"433 687 OFFCURVE",
"433 678 CURVE SMOOTH",
"433 633 OFFCURVE",
"380 559 OFFCURVE",
"285 559 CURVE SMOOTH",
"167 559 OFFCURVE",
"127 650 OFFCURVE",
"127 671 CURVE SMOOTH"
);
}
);
userData = {
com.fontlab.hintData = {
hhints = (
{
position = -2;
width = 55;
},
{
position = 449;
width = 55;
},
{
position = 559;
width = 46;
}
);
vhints = (
{
position = 50;
width = 57;
},
{
position = 127;
width = 40;
},
{
position = 384;
width = 56;
}
);
};
};
width = 505;
}
);
unicode = 0103;
},
{
glyphname = acircumflex;
layers = (
{
layerId = master01;
paths = (
{
closed = 1;
nodes = (
"440 20 LINE SMOOTH",
"440 4 OFFCURVE",
"428 -10 OFFCURVE",
"412 -10 CURVE SMOOTH",
"393 -10 OFFCURVE",
"384 5 OFFCURVE",
"384 22 CURVE SMOOTH",
"384 45 LINE",
"348 23 OFFCURVE",
"293 -2 OFFCURVE",
"238 -2 CURVE SMOOTH",
"130 -2 OFFCURVE",
"50 85 OFFCURVE",
"50 214 CURVE SMOOTH",
"50 318 OFFCURVE",
"115 504 OFFCURVE",
"289 504 CURVE SMOOTH",
"363 504 OFFCURVE",
"425 471 OFFCURVE",
"440 463 CURVE"
);
},
{
closed = 1;
nodes = (
"386 428 LINE",
"367 436 OFFCURVE",
"326 449 OFFCURVE",
"292 449 CURVE SMOOTH",
"155 449 OFFCURVE",
"107 299 OFFCURVE",
"107 216 CURVE SMOOTH",
"107 146 OFFCURVE",
"141 53 OFFCURVE",
"236 53 CURVE SMOOTH",
"297 53 OFFCURVE",
"359 95 OFFCURVE",
"382 111 CURVE"
);
},
{
closed = 1;
nodes = (
"437 620 LINE SMOOTH",
"443 615 OFFCURVE",
"446 608 OFFCURVE",
"446 600 CURVE SMOOTH",
"446 586 OFFCURVE",
"434 574 OFFCURVE",
"420 574 CURVE SMOOTH",
"413 574 OFFCURVE",
"406 576 OFFCURVE",
"401 581 CURVE SMOOTH",
"305 668 LINE",
"190 579 LINE SMOOTH",
"185 575 OFFCURVE",
"179 574 OFFCURVE",
"173 574 CURVE SMOOTH",
"159 574 OFFCURVE",
"147 585 OFFCURVE",
"147 600 CURVE SMOOTH",
"147 608 OFFCURVE",
"150 616 OFFCURVE",
"157 621 CURVE SMOOTH",
"288 731 LINE SMOOTH",
"294 736 OFFCURVE",
"301 738 OFFCURVE",
"307 738 CURVE SMOOTH",
"314 738 OFFCURVE",
"321 735 OFFCURVE",
"327 730 CURVE SMOOTH"
);
}
);
userData = {
com.fontlab.hintData = {
hhints = (
{
position = -2;
width = 55;
},
{
position = 449;
width = 55;
}
);
vhints = (
{
position = 50;
width = 57;
},
{
position = 384;
width = 56;
}
);
};
};
width = 505;
}
);
unicode = 00E2;
},
{
glyphname = adieresis;
layers = (
{
layerId = master01;
paths = (
{
closed = 1;
nodes = (
"440 20 LINE SMOOTH",
"440 4 OFFCURVE",
"428 -10 OFFCURVE",
"412 -10 CURVE SMOOTH",
"393 -10 OFFCURVE",
"384 5 OFFCURVE",
"384 22 CURVE SMOOTH",
"384 45 LINE",
"348 23 OFFCURVE",
"293 -2 OFFCURVE",
"238 -2 CURVE SMOOTH",
"130 -2 OFFCURVE",
"50 85 OFFCURVE",
"50 214 CURVE SMOOTH",
"50 318 OFFCURVE",
"115 504 OFFCURVE",
"289 504 CURVE SMOOTH",
"363 504 OFFCURVE",
"425 471 OFFCURVE",
"440 463 CURVE"
);
},
{
closed = 1;
nodes = (
"386 428 LINE",
"367 436 OFFCURVE",
"326 449 OFFCURVE",
"292 449 CURVE SMOOTH",
"155 449 OFFCURVE",
"107 299 OFFCURVE",
"107 216 CURVE SMOOTH",
"107 146 OFFCURVE",
"141 53 OFFCURVE",
"236 53 CURVE SMOOTH",
"297 53 OFFCURVE",
"359 95 OFFCURVE",
"382 111 CURVE"
);
},
{
closed = 1;
nodes = (
"253 596 OFFCURVE",
"231 576 OFFCURVE",
"202 576 CURVE SMOOTH",
"177 576 OFFCURVE",
"157 592 OFFCURVE",
"157 615 CURVE SMOOTH",
"157 638 OFFCURVE",
"180 659 OFFCURVE",
"208 659 CURVE SMOOTH",
"231 659 OFFCURVE",
"253 642 OFFCURVE",
"253 620 CURVE SMOOTH"
);
},
{
closed = 1;
nodes = (
"412 596 OFFCURVE",
"390 576 OFFCURVE",
"361 576 CURVE SMOOTH",
"336 576 OFFCURVE",
"316 592 OFFCURVE",
"316 615 CURVE SMOOTH",
"316 638 OFFCURVE",
"339 659 OFFCURVE",
"367 659 CURVE SMOOTH",
"390 659 OFFCURVE",
"412 642 OFFCURVE",
"412 620 CURVE SMOOTH"
);
}
);
userData = {
com.fontlab.hintData = {
hhints = (
{
position = -2;
width = 55;
},
{
position = 449;
width = 55;
},
{
position = 576;
width = 83;
}
);
vhints = (
{
position = 50;
width = 57;
},
{
position = 157;
width = 96;
},
{
position = 316;
width = 96;
},
{
position = 384;
width = 56;
}
);
};
};
width = 505;
}
);
unicode = 00E4;
},
{
glyphname = agrave;
layers = (
{
layerId = master01;
paths = (
{
closed = 1;
nodes = (
"440 20 LINE SMOOTH",
"440 4 OFFCURVE",
"428 -10 OFFCURVE",
"412 -10 CURVE SMOOTH",
"393 -10 OFFCURVE",
"384 5 OFFCURVE",
"384 22 CURVE SMOOTH",
"384 45 LINE",
"348 23 OFFCURVE",
"293 -2 OFFCURVE",
"238 -2 CURVE SMOOTH",
"130 -2 OFFCURVE",
"50 85 OFFCURVE",
"50 214 CURVE SMOOTH",
"50 318 OFFCURVE",
"115 504 OFFCURVE",
"289 504 CURVE SMOOTH",
"363 504 OFFCURVE",
"425 471 OFFCURVE",
"440 463 CURVE"
);
},
{
closed = 1;
nodes = (
"386 428 LINE",
"367 436 OFFCURVE",
"326 449 OFFCURVE",
"292 449 CURVE SMOOTH",
"155 449 OFFCURVE",
"107 299 OFFCURVE",
"107 216 CURVE SMOOTH",
"107 146 OFFCURVE",
"141 53 OFFCURVE",
"236 53 CURVE SMOOTH",
"297 53 OFFCURVE",
"359 95 OFFCURVE",
"382 111 CURVE"
);
},
{
closed = 1;
nodes = (
"210 688 LINE SMOOTH",
"203 695 OFFCURVE",
"199 703 OFFCURVE",
"199 713 CURVE SMOOTH",
"199 731 OFFCURVE",
"216 747 OFFCURVE",
"234 747 CURVE SMOOTH",
"245 747 OFFCURVE",
"256 740 OFFCURVE",
"263 732 CURVE SMOOTH",
"368 602 LINE SMOOTH",
"373 595 OFFCURVE",
"375 590 OFFCURVE",
"375 584 CURVE SMOOTH",
"375 569 OFFCURVE",
"361 558 OFFCURVE",
"347 558 CURVE SMOOTH",
"339 558 OFFCURVE",
"333 562 OFFCURVE",
"328 567 CURVE SMOOTH"
);
}
);
userData = {
com.fontlab.hintData = {
hhints = (
{
position = -2;
width = 55;
},
{
position = 449;
width = 55;
}
);
vhints = (
{
position = 50;
width = 57;
},
{
position = 384;
width = 56;
}
);
};
};
width = 505;
}
);
unicode = 00E0;
},
{
glyphname = aogonek;
layers = (
{
layerId = master01;
paths = (
{
closed = 1;
nodes = (
"349 -200 OFFCURVE",
"305 -158 OFFCURVE",
"305 -100 CURVE SMOOTH",
"305 -47 OFFCURVE",
"344 -5 OFFCURVE",
"385 23 CURVE",
"384 26 OFFCURVE",
"384 29 OFFCURVE",
"384 32 CURVE SMOOTH",
"384 55 LINE",
"348 33 OFFCURVE",
"293 8 OFFCURVE",
"238 8 CURVE SMOOTH",
"130 8 OFFCURVE",
"50 95 OFFCURVE",
"50 224 CURVE SMOOTH",
"50 328 OFFCURVE",
"115 514 OFFCURVE",
"289 514 CURVE SMOOTH",
"363 514 OFFCURVE",
"425 481 OFFCURVE",
"440 473 CURVE",
"440 30 LINE SMOOTH",
"440 12 OFFCURVE",
"425 0 OFFCURVE",
"410 -11 CURVE SMOOTH",
"384 -30 OFFCURVE",
"347 -57 OFFCURVE",
"347 -101 CURVE SMOOTH",
"347 -135 OFFCURVE",
"374 -158 OFFCURVE",
"408 -158 CURVE SMOOTH",
"428 -158 OFFCURVE",
"450 -151 OFFCURVE",
"470 -135 CURVE SMOOTH",
"474 -132 OFFCURVE",
"478 -131 OFFCURVE",
"483 -131 CURVE SMOOTH",
"493 -131 OFFCURVE",
"504 -141 OFFCURVE",
"504 -152 CURVE SMOOTH",
"504 -181 OFFCURVE",
"436 -201 OFFCURVE",
"408 -201 CURVE SMOOTH"
);
},
{
closed = 1;
nodes = (
"386 438 LINE",
"367 446 OFFCURVE",
"326 459 OFFCURVE",
"292 459 CURVE SMOOTH",
"155 459 OFFCURVE",
"107 309 OFFCURVE",
"107 226 CURVE SMOOTH",
"107 156 OFFCURVE",
"141 63 OFFCURVE",
"236 63 CURVE SMOOTH",
"297 63 OFFCURVE",
"359 105 OFFCURVE",
"382 121 CURVE"
);
}
);
userData = {
com.fontlab.hintData = {
hhints = (
{
position = -201;
width = 43;
},
{
position = 8;
width = 55;
},
{
position = 459;
width = 55;
}
);
vhints = (
{
position = 50;
width = 57;
},
{
position = 305;
width = 42;
},
{
position = 384;
width = 56;
}
);
};
};
width = 505;
}
);
unicode = 0105;
},
{
glyphname = aring;
layers = (
{
layerId = master01;
paths = (
{
closed = 1;
nodes = (
"440 20 LINE SMOOTH",
"440 4 OFFCURVE",
"428 -10 OFFCURVE",
"412 -10 CURVE SMOOTH",
"393 -10 OFFCURVE",
"384 5 OFFCURVE",
"384 22 CURVE SMOOTH",
"384 45 LINE",
"348 23 OFFCURVE",
"293 -2 OFFCURVE",
"238 -2 CURVE SMOOTH",
"130 -2 OFFCURVE",
"50 85 OFFCURVE",
"50 214 CURVE SMOOTH",
"50 318 OFFCURVE",
"115 504 OFFCURVE",
"289 504 CURVE SMOOTH",
"363 504 OFFCURVE",
"425 471 OFFCURVE",
"440 463 CURVE"
);
},
{
closed = 1;
nodes = (
"386 428 LINE",
"367 436 OFFCURVE",
"326 449 OFFCURVE",
"292 449 CURVE SMOOTH",
"155 449 OFFCURVE",
"107 299 OFFCURVE",
"107 216 CURVE SMOOTH",
"107 146 OFFCURVE",
"141 53 OFFCURVE",
"236 53 CURVE SMOOTH",
"297 53 OFFCURVE",
"359 95 OFFCURVE",
"382 111 CURVE"
);
},
{
closed = 1;
nodes = (
"230 563 OFFCURVE",
"178 608 OFFCURVE",
"178 665 CURVE SMOOTH",
"178 733 OFFCURVE",
"246 782 OFFCURVE",
"314 782 CURVE SMOOTH",
"374 782 OFFCURVE",
"427 737 OFFCURVE",
"427 679 CURVE SMOOTH",
"427 610 OFFCURVE",
"359 563 OFFCURVE",
"292 563 CURVE SMOOTH"
);
},
{
closed = 1;
nodes = (
"256 735 OFFCURVE",
"220 695 OFFCURVE",
"220 665 CURVE SMOOTH",
"220 630 OFFCURVE",
"255 609 OFFCURVE",
"301 609 CURVE SMOOTH",
"336 609 OFFCURVE",
"385 635 OFFCURVE",
"385 677 CURVE SMOOTH",
"385 706 OFFCURVE",
"353 735 OFFCURVE",
"310 735 CURVE SMOOTH"
);
}
);
userData = {
com.fontlab.hintData = {
hhints = (
{
position = -2;
width = 55;
},
{
position = 449;
width = 55;
},
{
position = 563;
width = 46;
},
{
position = 735;
width = 47;
}
);
vhints = (
{
position = 50;
width = 57;
},
{
position = 178;
width = 42;
},
{
position = 384;
width = 56;
},
{
position = 385;
width = 42;
}
);
};
};
width = 505;
}
);
unicode = 00E5;
},
{
glyphname = atilde;
layers = (
{
layerId = master01;
paths = (
{
closed = 1;
nodes = (
"440 20 LINE SMOOTH",
"440 4 OFFCURVE",
"428 -10 OFFCURVE",
"412 -10 CURVE SMOOTH",
"393 -10 OFFCURVE",
"384 5 OFFCURVE",
"384 22 CURVE SMOOTH",
"384 45 LINE",
"348 23 OFFCURVE",
"293 -2 OFFCURVE",
"238 -2 CURVE SMOOTH",
"130 -2 OFFCURVE",
"50 85 OFFCURVE",
"50 214 CURVE SMOOTH",
"50 318 OFFCURVE",
"115 504 OFFCURVE",
"289 504 CURVE SMOOTH",
"363 504 OFFCURVE",
"425 471 OFFCURVE",
"440 463 CURVE"
);
},
{
closed = 1;
nodes = (
"386 428 LINE",
"367 436 OFFCURVE",
"326 449 OFFCURVE",
"292 449 CURVE SMOOTH",
"155 449 OFFCURVE",
"107 299 OFFCURVE",
"107 216 CURVE SMOOTH",
"107 146 OFFCURVE",
"141 53 OFFCURVE",
"236 53 CURVE SMOOTH",
"297 53 OFFCURVE",
"359 95 OFFCURVE",
"382 111 CURVE"
);
},
{
closed = 1;
nodes = (
"396 686 OFFCURVE",
"406 693 OFFCURVE",
"416 693 CURVE SMOOTH",
"430 693 OFFCURVE",
"442 682 OFFCURVE",
"442 669 CURVE SMOOTH",
"442 664 OFFCURVE",
"441 661 OFFCURVE",
"439 655 CURVE SMOOTH",
"428 624 OFFCURVE",
"397 556 OFFCURVE",
"332 556 CURVE SMOOTH",
"287 556 OFFCURVE",
"263 588 OFFCURVE",
"243 616 CURVE SMOOTH",
"224 642 OFFCURVE",
"213 664 OFFCURVE",
"196 664 CURVE SMOOTH",
"183 664 OFFCURVE",
"157 647 OFFCURVE",
"141 598 CURVE SMOOTH",
"137 585 OFFCURVE",
"128 579 OFFCURVE",
"116 579 CURVE SMOOTH",
"102 579 OFFCURVE",
"90 590 OFFCURVE",
"90 604 CURVE SMOOTH",
"90 619 OFFCURVE",
"100 636 OFFCURVE",
"106 647 CURVE SMOOTH",
"128 685 OFFCURVE",
"159 706 OFFCURVE",
"196 706 CURVE SMOOTH",
"241 706 OFFCURVE",
"265 673 OFFCURVE",
"285 646 CURVE SMOOTH",
"304 620 OFFCURVE",
"315 598 OFFCURVE",
"332 598 CURVE SMOOTH",
"362 598 OFFCURVE",
"381 647 OFFCURVE",
"392 676 CURVE SMOOTH"
);
}
);
userData = {
com.fontlab.hintData = {
hhints = (
{
position = -2;
width = 55;
},
{
position = 449;
width = 55;
},
{
position = 556;
width = 42;
},
{
position = 664;
width = 42;
}
);
vhints = (
{
position = 50;
width = 57;
},
{
position = 90;
width = 51;
},
{
position = 384;
width = 56;
},
{
position = 392;
width = 50;
}
);
};
};
width = 505;
}
);
unicode = 00E3;
},
{
glyphname = ae;
layers = (
{
layerId = master01;
paths = (
{
closed = 1;
nodes = (
"426 398 LINE",
"470 455 OFFCURVE",
"535 483 OFFCURVE",
"595 483 CURVE SMOOTH",
"715 483 OFFCURVE",
"772 397 OFFCURVE",
"772 354 CURVE SMOOTH",
"772 343 OFFCURVE",
"766 334 OFFCURVE",
"750 325 CURVE SMOOTH",
"441 147 LINE",
"478 78 OFFCURVE",
"538 52 OFFCURVE",
"619 52 CURVE SMOOTH",
"662 52 OFFCURVE",
"710 77 OFFCURVE",
"737 108 CURVE SMOOTH",
"741 113 OFFCURVE",
"748 116 OFFCURVE",
"755 116 CURVE SMOOTH",
"770 116 OFFCURVE",
"781 105 OFFCURVE",
"781 90 CURVE SMOOTH",
"781 83 OFFCURVE",
"778 76 OFFCURVE",
"774 72 CURVE SMOOTH",
"739 32 OFFCURVE",
"673 0 OFFCURVE",
"612 0 CURVE SMOOTH",
"535 0 OFFCURVE",
"472 27 OFFCURVE",
"427 82 CURVE",
"427 27 LINE SMOOTH",
"427 14 OFFCURVE",
"414 0 OFFCURVE",
"400 0 CURVE SMOOTH",
"383 0 OFFCURVE",
"372 14 OFFCURVE",
"372 27 CURVE SMOOTH",
"372 53 LINE",
"338 32 OFFCURVE",
"285 8 OFFCURVE",
"233 8 CURVE SMOOTH",
"129 8 OFFCURVE",
"50 86 OFFCURVE",
"50 214 CURVE SMOOTH",
"50 380 OFFCURVE",
"156 498 OFFCURVE",
"275 498 CURVE SMOOTH",
"340 498 OFFCURVE",
"410 470 OFFCURVE",
"426 458 CURVE"
);
},
{
closed = 1;
nodes = (
"375 424 LINE",
"358 432 OFFCURVE",
"317 445 OFFCURVE",
"283 445 CURVE SMOOTH",
"150 445 OFFCURVE",
"104 298 OFFCURVE",
"104 217 CURVE SMOOTH",
"104 131 OFFCURVE",
"150 61 OFFCURVE",
"229 61 CURVE SMOOTH",
"280 61 OFFCURVE",
"343 95 OFFCURVE",
"370 117 CURVE"
);
},
{
closed = 1;
nodes = (
"498 430 OFFCURVE",
"422 345 OFFCURVE",
"422 229 CURVE SMOOTH",
"422 218 OFFCURVE",
"422 209 OFFCURVE",
"424 198 CURVE",
"718 361 LINE",
"693 411 OFFCURVE",
"660 430 OFFCURVE",
"595 430 CURVE SMOOTH"
);
}
);
userData = {
com.fontlab.hintData = {
hhints = (
{
position = 0;
width = 52;
},
{
position = 8;
width = 53;
},
{
position = 430;
width = 53;
},
{
position = 445;
width = 53;
}
);
vhints = (
{
position = 50;
width = 54;
},
{
position = 372;
width = 55;
}
);
};
};
width = 832;
}
);
unicode = 00E6;
},
{
glyphname = b;
layers = (
{
layerId = master01;
paths = (
{
closed = 1;
nodes = (
"428 491 OFFCURVE",
"474 374 OFFCURVE",
"474 271 CURVE SMOOTH",
"474 125 OFFCURVE",
"411 7 OFFCURVE",
"257 7 CURVE SMOOTH",
"205 7 OFFCURVE",
"151 22 OFFCURVE",
"120 35 CURVE",
"120 26 LINE SMOOTH",
"120 13 OFFCURVE",
"108 0 OFFCURVE",
"93 0 CURVE SMOOTH",
"78 0 OFFCURVE",
"65 12 OFFCURVE",
"65 26 CURVE SMOOTH",
"65 665 LINE SMOOTH",
"65 680 OFFCURVE",
"78 690 OFFCURVE",
"93 690 CURVE SMOOTH",
"107 690 OFFCURVE",
"120 680 OFFCURVE",
"120 665 CURVE SMOOTH",
"120 410 LINE",
"163 460 OFFCURVE",
"231 491 OFFCURVE",
"300 491 CURVE SMOOTH"
);
},
{
closed = 1;
nodes = (
"375 60 OFFCURVE",
"421 144 OFFCURVE",
"421 271 CURVE SMOOTH",
"421 340 OFFCURVE",
"395 435 OFFCURVE",
"304 435 CURVE SMOOTH",
"199 435 OFFCURVE",
"120 372 OFFCURVE",
"120 294 CURVE SMOOTH",
"120 87 LINE",
"137 79 OFFCURVE",
"192 60 OFFCURVE",
"249 60 CURVE SMOOTH"
);
}
);
userData = {
com.fontlab.hintData = {
hhints = (
{
position = 0;
width = 21;
},
{
position = 7;
width = 53;
},
{
position = 435;
width = 56;
},
{
position = 670;
width = 20;
}
);
vhints = (
{
position = 65;
width = 55;
},
{
position = 421;
width = 53;
}
);
};
};
width = 524;
}
);
unicode = 0062;
},
{
glyphname = c;
layers = (
{
layerId = master01;
paths = (
{
closed = 1;
nodes = (
"459 105 OFFCURVE",
"455 99 OFFCURVE",
"451 93 CURVE SMOOTH",
"418 43 OFFCURVE",
"351 3 OFFCURVE",
"277 0 CURVE SMOOTH",
"273.459 -0.18 OFFCURVE",
"269.926 -0.269 OFFCURVE",
"266.403 -0.269 CURVE SMOOTH",
"152.556 -0.269 OFFCURVE",
"50 92.811 OFFCURVE",
"50 216 CURVE SMOOTH",
"50 265 OFFCURVE",
"64 309 OFFCURVE",
"74 335 CURVE SMOOTH",
"100 401 OFFCURVE",
"175 500 OFFCURVE",
"272 500 CURVE SMOOTH",
"346 500 OFFCURVE",
"384 474 OFFCURVE",
"422 430 CURVE SMOOTH",
"426 426 OFFCURVE",
"429 418 OFFCURVE",
"429 411 CURVE SMOOTH",
"429 396 OFFCURVE",
"417 384 OFFCURVE",
"402 384 CURVE SMOOTH",
"394 384 OFFCURVE",
"387 388 OFFCURVE",
"382 393 CURVE SMOOTH",
"355 426 OFFCURVE",
"326 448 OFFCURVE",
"274 448 CURVE SMOOTH",
"207 448 OFFCURVE",
"146 373 OFFCURVE",
"123 316 CURVE SMOOTH",
"108 278 OFFCURVE",
"103 245 OFFCURVE",
"103 218 CURVE SMOOTH",
"103 90 OFFCURVE",
"218 52 OFFCURVE",
"262 52 CURVE SMOOTH",
"334 52 OFFCURVE",
"377 84 OFFCURVE",
"406 123 CURVE SMOOTH",
"410 129 OFFCURVE",
"419 139 OFFCURVE",
"432 139 CURVE SMOOTH",
"447 139 OFFCURVE",
"459 127 OFFCURVE",
"459 112 CURVE SMOOTH"
);
}
);
userData = {
com.fontlab.hintData = {
hhints = (
{
position = 0;
width = 52;
},
{
position = 448;
width = 52;
}
);
vhints = (
{
position = 50;
width = 53;
}
);
};
};
width = 509;
}
);
unicode = 0063;
},
{
glyphname = cacute;
layers = (
{
layerId = master01;
paths = (
{
closed = 1;
nodes = (
"459 105 OFFCURVE",
"455 99 OFFCURVE",
"451 93 CURVE SMOOTH",
"418 43 OFFCURVE",
"351 3 OFFCURVE",
"277 0 CURVE SMOOTH",
"273.459 -0.18 OFFCURVE",
"269.926 -0.269 OFFCURVE",
"266.403 -0.269 CURVE SMOOTH",
"152.556 -0.269 OFFCURVE",
"50 92.811 OFFCURVE",
"50 216 CURVE SMOOTH",
"50 265 OFFCURVE",
"64 309 OFFCURVE",
"74 335 CURVE SMOOTH",
"100 401 OFFCURVE",
"175 500 OFFCURVE",
"272 500 CURVE SMOOTH",
"346 500 OFFCURVE",
"384 474 OFFCURVE",
"422 430 CURVE SMOOTH",
"426 426 OFFCURVE",
"429 418 OFFCURVE",
"429 411 CURVE SMOOTH",
"429 396 OFFCURVE",
"417 384 OFFCURVE",
"402 384 CURVE SMOOTH",
"394 384 OFFCURVE",
"387 388 OFFCURVE",
"382 393 CURVE SMOOTH",
"355 426 OFFCURVE",
"326 448 OFFCURVE",
"274 448 CURVE SMOOTH",
"207 448 OFFCURVE",
"146 373 OFFCURVE",
"123 316 CURVE SMOOTH",
"108 278 OFFCURVE",
"103 245 OFFCURVE",
"103 218 CURVE SMOOTH",
"103 90 OFFCURVE",
"218 52 OFFCURVE",
"262 52 CURVE SMOOTH",
"334 52 OFFCURVE",
"377 84 OFFCURVE",
"406 123 CURVE SMOOTH",
"410 129 OFFCURVE",
"419 139 OFFCURVE",
"432 139 CURVE SMOOTH",
"447 139 OFFCURVE",
"459 127 OFFCURVE",
"459 112 CURVE SMOOTH"
);
},
{
closed = 1;
nodes = (
"251 572 LINE SMOOTH",
"244 567 OFFCURVE",
"236 563 OFFCURVE",
"230 563 CURVE SMOOTH",
"216 563 OFFCURVE",
"204 575 OFFCURVE",
"204 590 CURVE SMOOTH",
"204 596 OFFCURVE",
"205 603 OFFCURVE",
"210 607 CURVE SMOOTH",
"336 710 LINE SMOOTH",
"344 717 OFFCURVE",
"354 725 OFFCURVE",
"365 725 CURVE SMOOTH",
"384 725 OFFCURVE",
"399 709 OFFCURVE",
"399 689 CURVE SMOOTH",
"399 680 OFFCURVE",
"396 671 OFFCURVE",
"389 666 CURVE SMOOTH"
);
}
);
userData = {
com.fontlab.hintData = {
hhints = (
{
position = 0;
width = 52;
},
{
position = 448;
width = 52;
}
);
vhints = (
{
position = 50;
width = 53;
}
);
};
};
width = 509;
}
);
unicode = 0107;
},
{
glyphname = ccaron;
layers = (
{
layerId = master01;
paths = (
{
closed = 1;
nodes = (
"459 105 OFFCURVE",
"455 99 OFFCURVE",
"451 93 CURVE SMOOTH",
"418 43 OFFCURVE",
"351 3 OFFCURVE",
"277 0 CURVE SMOOTH",
"273.459 -0.18 OFFCURVE",
"269.926 -0.269 OFFCURVE",
"266.403 -0.269 CURVE SMOOTH",
"152.556 -0.269 OFFCURVE",
"50 92.811 OFFCURVE",
"50 216 CURVE SMOOTH",
"50 265 OFFCURVE",
"64 309 OFFCURVE",
"74 335 CURVE SMOOTH",
"100 401 OFFCURVE",
"175 500 OFFCURVE",
"272 500 CURVE SMOOTH",
"346 500 OFFCURVE",
"384 474 OFFCURVE",
"422 430 CURVE SMOOTH",
"426 426 OFFCURVE",
"429 418 OFFCURVE",
"429 411 CURVE SMOOTH",
"429 396 OFFCURVE",
"417 384 OFFCURVE",
"402 384 CURVE SMOOTH",
"394 384 OFFCURVE",
"387 388 OFFCURVE",
"382 393 CURVE SMOOTH",
"355 426 OFFCURVE",
"326 448 OFFCURVE",
"274 448 CURVE SMOOTH",
"207 448 OFFCURVE",
"146 373 OFFCURVE",
"123 316 CURVE SMOOTH",
"108 278 OFFCURVE",
"103 245 OFFCURVE",
"103 218 CURVE SMOOTH",
"103 90 OFFCURVE",
"218 52 OFFCURVE",
"262 52 CURVE SMOOTH",
"334 52 OFFCURVE",
"377 84 OFFCURVE",
"406 123 CURVE SMOOTH",
"410 129 OFFCURVE",
"419 139 OFFCURVE",
"432 139 CURVE SMOOTH",
"447 139 OFFCURVE",
"459 127 OFFCURVE",
"459 112 CURVE SMOOTH"
);
},
{
closed = 1;
nodes = (
"141 683 LINE SMOOTH",
"135 688 OFFCURVE",
"132 695 OFFCURVE",
"132 703 CURVE SMOOTH",
"132 717 OFFCURVE",
"144 729 OFFCURVE",
"158 729 CURVE SMOOTH",
"165 729 OFFCURVE",
"172 727 OFFCURVE",
"177 722 CURVE SMOOTH",
"273 635 LINE",
"388 724 LINE SMOOTH",
"393 728 OFFCURVE",
"399 729 OFFCURVE",
"405 729 CURVE SMOOTH",
"419 729 OFFCURVE",
"431 718 OFFCURVE",
"431 703 CURVE SMOOTH",
"431 695 OFFCURVE",
"428 687 OFFCURVE",
"421 682 CURVE SMOOTH",
"290 572 LINE SMOOTH",
"284 567 OFFCURVE",
"277 565 OFFCURVE",
"271 565 CURVE SMOOTH",
"264 565 OFFCURVE",
"257 568 OFFCURVE",
"251 573 CURVE SMOOTH"
);
}
);
userData = {
com.fontlab.hintData = {
hhints = (
{
position = 0;
width = 52;
},
{
position = 448;
width = 52;
}
);
vhints = (
{
position = 50;
width = 53;
}
);
};
};
width = 509;
}
);
unicode = 010D;
},
{
glyphname = ccedilla;
layers = (
{
layerId = master01;
paths = (
{
closed = 1;
nodes = (
"233 2 LINE",
"133 18 OFFCURVE",
"50 105 OFFCURVE",
"50 216 CURVE SMOOTH",
"50 265 OFFCURVE",
"64 309 OFFCURVE",
"74 335 CURVE SMOOTH",
"100 401 OFFCURVE",
"175 500 OFFCURVE",
"272 500 CURVE SMOOTH",
"346 500 OFFCURVE",
"384 474 OFFCURVE",
"422 430 CURVE SMOOTH",
"426 426 OFFCURVE",
"429 418 OFFCURVE",
"429 411 CURVE SMOOTH",
"429 396 OFFCURVE",
"417 384 OFFCURVE",
"402 384 CURVE SMOOTH",
"394 384 OFFCURVE",
"387 388 OFFCURVE",
"382 393 CURVE SMOOTH",
"355 426 OFFCURVE",
"326 448 OFFCURVE",
"274 448 CURVE SMOOTH",
"207 448 OFFCURVE",
"146 373 OFFCURVE",
"123 316 CURVE SMOOTH",
"108 278 OFFCURVE",
"103 245 OFFCURVE",
"103 218 CURVE SMOOTH",
"103 90 OFFCURVE",
"218 52 OFFCURVE",
"262 52 CURVE SMOOTH",
"334 52 OFFCURVE",
"377 84 OFFCURVE",
"406 123 CURVE SMOOTH",
"410 129 OFFCURVE",
"419 139 OFFCURVE",
"432 139 CURVE SMOOTH",
"447 139 OFFCURVE",
"459 127 OFFCURVE",
"459 112 CURVE SMOOTH",
"459 105 OFFCURVE",
"455 99 OFFCURVE",
"451 93 CURVE SMOOTH",
"418 43 OFFCURVE",
"351 3 OFFCURVE",
"277 0 CURVE SMOOTH",
"269 0 LINE",
"268 -19 LINE",
"336 -19 OFFCURVE",
"370 -62 OFFCURVE",
"370 -110 CURVE SMOOTH",
"370 -160 OFFCURVE",
"329 -201 OFFCURVE",
"279 -201 CURVE SMOOTH",
"247 -201 OFFCURVE",
"200 -179 OFFCURVE",
"200 -146 CURVE SMOOTH",
"200 -138 OFFCURVE",
"209 -128 OFFCURVE",
"221 -128 CURVE SMOOTH",
"229 -128 OFFCURVE",
"234 -133 OFFCURVE",
"239 -139 CURVE SMOOTH",
"247 -148 OFFCURVE",
"256 -159 OFFCURVE",
"279 -159 CURVE SMOOTH",
"306 -159 OFFCURVE",
"328 -137 OFFCURVE",
"328 -110 CURVE SMOOTH",
"328 -83 OFFCURVE",
"306 -61 OFFCURVE",
"279 -61 CURVE SMOOTH",
"264 -61 OFFCURVE",
"255 -67 OFFCURVE",
"248 -71 CURVE SMOOTH",
"244 -74 OFFCURVE",
"240 -76 OFFCURVE",
"236 -76 CURVE SMOOTH",
"225 -76 OFFCURVE",
"215 -68 OFFCURVE",
"215 -56 CURVE SMOOTH",
"215 -50 OFFCURVE",
"217 -43 OFFCURVE",
"221 -33 CURVE SMOOTH"
);
}
);
userData = {
com.fontlab.hintData = {
hhints = (
{
position = -201;
width = 42;
},
{
position = -61;
width = 42;
},
{
position = 0;
width = 52;
},
{
position = 448;
width = 52;
}
);
vhints = (
{
position = 50;
width = 53;
},
{
position = 328;
width = 42;
}
);
};
};
width = 509;
}
);
unicode = 00E7;
},
{
glyphname = ccircumflex;
layers = (
{
layerId = master01;
paths = (
{
closed = 1;
nodes = (
"459 105 OFFCURVE",
"455 99 OFFCURVE",
"451 93 CURVE SMOOTH",
"418 43 OFFCURVE",
"351 3 OFFCURVE",
"277 0 CURVE SMOOTH",
"273.459 -0.18 OFFCURVE",
"269.926 -0.269 OFFCURVE",
"266.403 -0.269 CURVE SMOOTH",
"152.556 -0.269 OFFCURVE",
"50 92.811 OFFCURVE",
"50 216 CURVE SMOOTH",
"50 265 OFFCURVE",
"64 309 OFFCURVE",
"74 335 CURVE SMOOTH",
"100 401 OFFCURVE",
"175 500 OFFCURVE",
"272 500 CURVE SMOOTH",
"346 500 OFFCURVE",
"384 474 OFFCURVE",
"422 430 CURVE SMOOTH",
"426 426 OFFCURVE",
"429 418 OFFCURVE",
"429 411 CURVE SMOOTH",
"429 396 OFFCURVE",
"417 384 OFFCURVE",
"402 384 CURVE SMOOTH",
"394 384 OFFCURVE",
"387 388 OFFCURVE",
"382 393 CURVE SMOOTH",
"355 426 OFFCURVE",
"326 448 OFFCURVE",
"274 448 CURVE SMOOTH",
"207 448 OFFCURVE",
"146 373 OFFCURVE",
"123 316 CURVE SMOOTH",
"108 278 OFFCURVE",
"103 245 OFFCURVE",
"103 218 CURVE SMOOTH",
"103 90 OFFCURVE",
"218 52 OFFCURVE",
"262 52 CURVE SMOOTH",
"334 52 OFFCURVE",
"377 84 OFFCURVE",
"406 123 CURVE SMOOTH",
"410 129 OFFCURVE",
"419 139 OFFCURVE",
"432 139 CURVE SMOOTH",
"447 139 OFFCURVE",
"459 127 OFFCURVE",
"459 112 CURVE SMOOTH"
);
},
{
closed = 1;
nodes = (
"407 620 LINE SMOOTH",
"413 615 OFFCURVE",
"416 608 OFFCURVE",
"416 600 CURVE SMOOTH",
"416 586 OFFCURVE",
"404 574 OFFCURVE",
"390 574 CURVE SMOOTH",
"383 574 OFFCURVE",
"376 576 OFFCURVE",
"371 581 CURVE SMOOTH",
"275 668 LINE",
"160 579 LINE SMOOTH",
"155 575 OFFCURVE",
"149 574 OFFCURVE",
"143 574 CURVE SMOOTH",
"129 574 OFFCURVE",
"117 585 OFFCURVE",
"117 600 CURVE SMOOTH",
"117 608 OFFCURVE",
"120 616 OFFCURVE",
"127 621 CURVE SMOOTH",
"258 731 LINE SMOOTH",
"264 736 OFFCURVE",
"271 738 OFFCURVE",
"277 738 CURVE SMOOTH",
"284 738 OFFCURVE",
"291 735 OFFCURVE",
"297 730 CURVE SMOOTH"
);
}
);
userData = {
com.fontlab.hintData = {
hhints = (
{
position = 0;
width = 52;
},
{
position = 448;
width = 52;
}
);
vhints = (
{
position = 50;
width = 53;
}
);
};
};
width = 509;
}
);
unicode = 0109;
},
{
glyphname = d;
layers = (
{
layerId = master01;
paths = (
{
closed = 1;
nodes = (
"450 27 LINE SMOOTH",
"450 11 OFFCURVE",
"437 0 OFFCURVE",
"421 0 CURVE SMOOTH",
"402 0 OFFCURVE",
"392 17 OFFCURVE",
"393 34 CURVE SMOOTH",
"395 79 LINE",
"359 46 OFFCURVE",
"302 4 OFFCURVE",
"223 4 CURVE SMOOTH",
"105 4 OFFCURVE",
"51 116 OFFCURVE",
"51 226 CURVE SMOOTH",
"51 368 OFFCURVE",
"110 498 OFFCURVE",
"265 498 CURVE SMOOTH",
"321 498 OFFCURVE",
"370 482 OFFCURVE",
"403 467 CURVE",
"408 668 LINE SMOOTH",
"408 684 OFFCURVE",
"421 697 OFFCURVE",
"437 697 CURVE SMOOTH",
"452 697 OFFCURVE",
"465 683 OFFCURVE",
"465 667 CURVE SMOOTH"
);
},
{
closed = 1;
nodes = (
"106 156 OFFCURVE",
"131 53 OFFCURVE",
"223 53 CURVE SMOOTH",
"327 53 OFFCURVE",
"396 130 OFFCURVE",
"397 161 CURVE SMOOTH",
"402 406 LINE",
"383 416 OFFCURVE",
"326 444 OFFCURVE",
"267 444 CURVE SMOOTH",
"131 444 OFFCURVE",
"106 316 OFFCURVE",
"106 229 CURVE SMOOTH"
);
}
);
userData = {
com.fontlab.hintData = {
hhints = (
{
position = 0;
width = 21;
},
{
position = 4;
width = 49;
},
{
position = 444;
width = 54;
}
);
vhints = (
{
position = 51;
width = 55;
},
{
position = 395;
width = 55;
},
{
position = 402;
width = 63;
}
);
};
};
width = 530;
}
);
unicode = 0064;
},
{
glyphname = eth;
layers = (
{
layerId = master01;
paths = (
{
closed = 1;
nodes = (
"356 498 OFFCURVE",
"432 379 OFFCURVE",
"432 256 CURVE SMOOTH",
"432 129 OFFCURVE",
"350 1 OFFCURVE",
"215 1 CURVE SMOOTH",
"122 1 OFFCURVE",
"50 72 OFFCURVE",
"50 178 CURVE SMOOTH",
"50 335 OFFCURVE",
"161 430 OFFCURVE",
"323 436 CURVE",
"295 483 OFFCURVE",
"260 525 OFFCURVE",
"230 558 CURVE",
"144 510 OFFCURVE",
"121 488 OFFCURVE",
"111 488 CURVE SMOOTH",
"100 488 OFFCURVE",
"92 497 OFFCURVE",
"92 508 CURVE SMOOTH",
"92 516 OFFCURVE",
"97 522 OFFCURVE",
"106 529 CURVE SMOOTH",
"124 543 OFFCURVE",
"157 561 OFFCURVE",
"201 588 CURVE",
"176 614 OFFCURVE",
"154 624 OFFCURVE",
"154 641 CURVE SMOOTH",
"154 655 OFFCURVE",
"167 667 OFFCURVE",
"180 667 CURVE SMOOTH",
"186 667 OFFCURVE",
"191 665 OFFCURVE",
"196 661 CURVE SMOOTH",
"198 660 OFFCURVE",
"211 650 OFFCURVE",
"247 614 CURVE",
"279 632 OFFCURVE",
"353 671 OFFCURVE",
"367 671 CURVE SMOOTH",
"376 671 OFFCURVE",
"386 664 OFFCURVE",
"386 652 CURVE SMOOTH",
"386 646 OFFCURVE",
"384 640 OFFCURVE",
"376 636 CURVE SMOOTH",
"343 620 OFFCURVE",
"305 601 OFFCURVE",
"275 584 CURVE"
);
},
{
closed = 1;
nodes = (
"320 52 OFFCURVE",
"381 153 OFFCURVE",
"381 259 CURVE SMOOTH",
"381 302 OFFCURVE",
"368 346 OFFCURVE",
"349 386 CURVE",
"221 386 OFFCURVE",
"101 330 OFFCURVE",
"101 177 CURVE SMOOTH",
"101 100 OFFCURVE",
"150 52 OFFCURVE",
"215 52 CURVE SMOOTH"
);
}
);
userData = {
com.fontlab.hintData = {
hhints = (
{
position = 1;
width = 51;
},
{
position = 386;
width = 50;
},
{
position = 636;
width = 35;
}
);
vhints = (
{
position = 50;
width = 51;
},
{
position = 381;
width = 51;
}
);
};
};
width = 482;
}
);
unicode = 00F0;
},
{
glyphname = dcaron;
layers = (
{
layerId = master01;
paths = (
{
closed = 1;
nodes = (
"450 27 LINE SMOOTH",
"450 11 OFFCURVE",
"437 0 OFFCURVE",
"421 0 CURVE SMOOTH",
"402 0 OFFCURVE",
"392 17 OFFCURVE",
"393 34 CURVE SMOOTH",
"395 79 LINE",
"359 46 OFFCURVE",
"302 4 OFFCURVE",
"223 4 CURVE SMOOTH",
"105 4 OFFCURVE",
"51 116 OFFCURVE",
"51 226 CURVE SMOOTH",
"51 368 OFFCURVE",
"110 498 OFFCURVE",
"265 498 CURVE SMOOTH",
"321 498 OFFCURVE",
"370 482 OFFCURVE",
"403 467 CURVE",
"408 668 LINE SMOOTH",
"408 684 OFFCURVE",
"421 697 OFFCURVE",
"437 697 CURVE SMOOTH",
"452 697 OFFCURVE",
"465 683 OFFCURVE",
"465 667 CURVE SMOOTH"
);
},
{
closed = 1;
nodes = (
"106 156 OFFCURVE",
"131 53 OFFCURVE",
"223 53 CURVE SMOOTH",
"327 53 OFFCURVE",
"396 130 OFFCURVE",
"397 161 CURVE SMOOTH",
"402 406 LINE",
"383 416 OFFCURVE",
"326 444 OFFCURVE",
"267 444 CURVE SMOOTH",
"131 444 OFFCURVE",
"106 316 OFFCURVE",
"106 229 CURVE SMOOTH"
);
},
{
closed = 1;
nodes = (
"574 690 OFFCURVE",
"588 673 OFFCURVE",
"588 658 CURVE SMOOTH",
"588 639 OFFCURVE",
"584 630 OFFCURVE",
"569 594 CURVE SMOOTH",
"545 536 OFFCURVE",
"544 520 OFFCURVE",
"525 520 CURVE SMOOTH",
"512 520 OFFCURVE",
"502 530 OFFCURVE",
"502 542 CURVE SMOOTH",
"502 545 OFFCURVE",
"503 548 OFFCURVE",
"504 551 CURVE SMOOTH",
"528 615 LINE",
"521 622 OFFCURVE",
"516 633 OFFCURVE",
"516 645 CURVE SMOOTH",
"516 669 OFFCURVE",
"535 690 OFFCURVE",
"556 690 CURVE SMOOTH"
);
}
);
userData = {
com.fontlab.hintData = {
hhints = (
{
position = 0;
width = 21;
},
{
position = 4;
width = 49;
},
{
position = 444;
width = 54;
},
{
position = 670;
width = 20;
}
);
vhints = (
{
position = 51;
width = 55;
},
{
position = 395;
width = 55;
},
{
position = 402;
width = 63;
},
{
position = 502;
width = 67;
},
{
position = 516;
width = 72;
}
);
};
};
width = 545;
}
);
unicode = 010F;
},
{
glyphname = dcroat;
layers = (
{
layerId = master01;
paths = (
{
closed = 1;
nodes = (
"463 603 LINE",
"529 603 LINE SMOOTH",
"543 603 OFFCURVE",
"554 592 OFFCURVE",
"554 578 CURVE SMOOTH",
"554 564 OFFCURVE",
"543 552 OFFCURVE",
"529 552 CURVE SMOOTH",
"462 552 LINE",
"450 27 LINE SMOOTH",
"450 11 OFFCURVE",
"437 0 OFFCURVE",
"421 0 CURVE SMOOTH",
"402 0 OFFCURVE",
"392 17 OFFCURVE",
"393 34 CURVE SMOOTH",
"395 79 LINE",
"359 46 OFFCURVE",
"302 4 OFFCURVE",
"223 4 CURVE SMOOTH",
"105 4 OFFCURVE",
"51 116 OFFCURVE",
"51 226 CURVE SMOOTH",
"51 368 OFFCURVE",
"110 498 OFFCURVE",
"265 498 CURVE SMOOTH",
"321 498 OFFCURVE",
"370 482 OFFCURVE",
"403 467 CURVE",
"405 552 LINE",
"333 552 LINE SMOOTH",
"319 552 OFFCURVE",
"307 564 OFFCURVE",
"307 578 CURVE SMOOTH",
"307 592 OFFCURVE",
"319 603 OFFCURVE",
"333 603 CURVE SMOOTH",
"406 603 LINE",
"408 668 LINE SMOOTH",
"408 684 OFFCURVE",
"421 697 OFFCURVE",
"437 697 CURVE SMOOTH",
"452 697 OFFCURVE",
"465 683 OFFCURVE",
"465 667 CURVE SMOOTH"
);
},
{
closed = 1;
nodes = (
"106 156 OFFCURVE",
"131 53 OFFCURVE",
"223 53 CURVE SMOOTH",
"327 53 OFFCURVE",
"396 130 OFFCURVE",
"397 161 CURVE SMOOTH",
"402 406 LINE",
"383 416 OFFCURVE",
"326 444 OFFCURVE",
"267 444 CURVE SMOOTH",
"131 444 OFFCURVE",
"106 316 OFFCURVE",
"106 229 CURVE SMOOTH"
);
}
);
userData = {
com.fontlab.hintData = {
hhints = (
{
position = 0;
width = 21;
},
{
position = 4;
width = 49;
},
{
position = 444;
width = 54;
},
{
position = 552;
width = 51;
}
);
vhints = (
{
position = 51;
width = 55;
},
{
position = 395;
width = 55;
},
{
position = 405;
width = 57;
}
);
};
};
width = 557;
}
);
unicode = 0111;
},
{
glyphname = e;
layers = (
{
layerId = master01;
paths = (
{
closed = 1;
nodes = (
"471 83 OFFCURVE",
"468 76 OFFCURVE",
"464 72 CURVE SMOOTH",
"429 32 OFFCURVE",
"361 0 OFFCURVE",
"300 0 CURVE SMOOTH",
"147 0 OFFCURVE",
"51 114 OFFCURVE",
"51 238 CURVE SMOOTH",
"51 376 OFFCURVE",
"139 499 OFFCURVE",
"275 499 CURVE SMOOTH",
"404 499 OFFCURVE",
"462 409 OFFCURVE",
"462 366 CURVE SMOOTH",
"462 355 OFFCURVE",
"456 346 OFFCURVE",
"440 337 CURVE SMOOTH",
"122 155 LINE",
"159 86 OFFCURVE",
"218 52 OFFCURVE",
"299 52 CURVE SMOOTH",
"342 52 OFFCURVE",
"400 77 OFFCURVE",
"427 108 CURVE SMOOTH",
"431 113 OFFCURVE",
"438 116 OFFCURVE",
"445 116 CURVE SMOOTH",
"460 116 OFFCURVE",
"471 105 OFFCURVE",
"471 90 CURVE SMOOTH"
);
},
{
closed = 1;
nodes = (
"173 446 OFFCURVE",
"102 353 OFFCURVE",
"102 237 CURVE SMOOTH",
"102 226 OFFCURVE",
"102 217 OFFCURVE",
"104 206 CURVE",
"408 373 LINE",
"390 420 OFFCURVE",
"350 446 OFFCURVE",
"275 446 CURVE SMOOTH"
);
}
);
userData = {
com.fontlab.hintData = {
hhints = (
{
position = 0;
width = 52;
},
{
position = 446;
width = 53;
}
);
vhints = (
{
position = 51;
width = 51;
}
);
};
};
width = 521;
}
);
unicode = 0065;
},
{
glyphname = eacute;
layers = (
{
layerId = master01;
paths = (
{
closed = 1;
nodes = (
"471 83 OFFCURVE",
"468 76 OFFCURVE",
"464 72 CURVE SMOOTH",
"429 32 OFFCURVE",
"361 0 OFFCURVE",
"300 0 CURVE SMOOTH",
"147 0 OFFCURVE",
"51 114 OFFCURVE",
"51 238 CURVE SMOOTH",
"51 376 OFFCURVE",
"139 499 OFFCURVE",
"275 499 CURVE SMOOTH",
"404 499 OFFCURVE",
"462 409 OFFCURVE",
"462 366 CURVE SMOOTH",
"462 355 OFFCURVE",
"456 346 OFFCURVE",
"440 337 CURVE SMOOTH",
"122 155 LINE",
"159 86 OFFCURVE",
"218 52 OFFCURVE",
"299 52 CURVE SMOOTH",
"342 52 OFFCURVE",
"400 77 OFFCURVE",
"427 108 CURVE SMOOTH",
"431 113 OFFCURVE",
"438 116 OFFCURVE",
"445 116 CURVE SMOOTH",
"460 116 OFFCURVE",
"471 105 OFFCURVE",
"471 90 CURVE SMOOTH"
);
},
{
closed = 1;
nodes = (
"173 446 OFFCURVE",
"102 353 OFFCURVE",
"102 237 CURVE SMOOTH",
"102 226 OFFCURVE",
"102 217 OFFCURVE",
"104 206 CURVE",
"408 373 LINE",
"390 420 OFFCURVE",
"350 446 OFFCURVE",
"275 446 CURVE SMOOTH"
);
},
{
closed = 1;
nodes = (
"254 572 LINE SMOOTH",
"247 567 OFFCURVE",
"239 563 OFFCURVE",
"233 563 CURVE SMOOTH",
"219 563 OFFCURVE",
"207 575 OFFCURVE",
"207 590 CURVE SMOOTH",
"207 596 OFFCURVE",
"208 603 OFFCURVE",
"213 607 CURVE SMOOTH",
"339 710 LINE SMOOTH",
"347 717 OFFCURVE",
"357 725 OFFCURVE",
"368 725 CURVE SMOOTH",
"387 725 OFFCURVE",
"402 709 OFFCURVE",
"402 689 CURVE SMOOTH",
"402 680 OFFCURVE",
"399 671 OFFCURVE",
"392 666 CURVE SMOOTH"
);
}
);
userData = {
com.fontlab.hintData = {
hhints = (
{
position = 0;
width = 52;
},
{
position = 446;
width = 53;
}
);
vhints = (
{
position = 51;
width = 51;
}
);
};
};
width = 521;
}
);
unicode = 00E9;
},
{
glyphname = ecaron;
layers = (
{
layerId = master01;
paths = (
{
closed = 1;
nodes = (
"471 83 OFFCURVE",
"468 76 OFFCURVE",
"464 72 CURVE SMOOTH",
"429 32 OFFCURVE",
"361 0 OFFCURVE",
"300 0 CURVE SMOOTH",
"147 0 OFFCURVE",
"51 114 OFFCURVE",
"51 238 CURVE SMOOTH",
"51 376 OFFCURVE",
"139 499 OFFCURVE",
"275 499 CURVE SMOOTH",
"404 499 OFFCURVE",
"462 409 OFFCURVE",
"462 366 CURVE SMOOTH",
"462 355 OFFCURVE",
"456 346 OFFCURVE",
"440 337 CURVE SMOOTH",
"122 155 LINE",
"159 86 OFFCURVE",
"218 52 OFFCURVE",
"299 52 CURVE SMOOTH",
"342 52 OFFCURVE",
"400 77 OFFCURVE",
"427 108 CURVE SMOOTH",
"431 113 OFFCURVE",
"438 116 OFFCURVE",
"445 116 CURVE SMOOTH",
"460 116 OFFCURVE",
"471 105 OFFCURVE",
"471 90 CURVE SMOOTH"
);
},
{
closed = 1;
nodes = (
"173 446 OFFCURVE",
"102 353 OFFCURVE",
"102 237 CURVE SMOOTH",
"102 226 OFFCURVE",
"102 217 OFFCURVE",
"104 206 CURVE",
"408 373 LINE",
"390 420 OFFCURVE",
"350 446 OFFCURVE",
"275 446 CURVE SMOOTH"
);
},
{
closed = 1;
nodes = (
"142 683 LINE SMOOTH",
"136 688 OFFCURVE",
"133 695 OFFCURVE",
"133 703 CURVE SMOOTH",
"133 717 OFFCURVE",
"145 729 OFFCURVE",
"159 729 CURVE SMOOTH",
"166 729 OFFCURVE",
"173 727 OFFCURVE",
"178 722 CURVE SMOOTH",
"274 635 LINE",
"389 724 LINE SMOOTH",
"394 728 OFFCURVE",
"400 729 OFFCURVE",
"406 729 CURVE SMOOTH",
"420 729 OFFCURVE",
"432 718 OFFCURVE",
"432 703 CURVE SMOOTH",
"432 695 OFFCURVE",
"429 687 OFFCURVE",
"422 682 CURVE SMOOTH",
"291 572 LINE SMOOTH",
"285 567 OFFCURVE",
"278 565 OFFCURVE",
"272 565 CURVE SMOOTH",
"265 565 OFFCURVE",
"258 568 OFFCURVE",
"252 573 CURVE SMOOTH"
);
}
);
userData = {
com.fontlab.hintData = {
hhints = (
{
position = 0;
width = 52;
},
{
position = 446;
width = 53;
}
);
vhints = (
{
position = 51;
width = 51;
}
);
};
};
width = 521;
}
);
unicode = 011B;
},
{
glyphname = ecircumflex;
layers = (
{
layerId = master01;
paths = (
{
closed = 1;
nodes = (
"471 83 OFFCURVE",
"468 76 OFFCURVE",
"464 72 CURVE SMOOTH",
"429 32 OFFCURVE",
"361 0 OFFCURVE",
"300 0 CURVE SMOOTH",
"147 0 OFFCURVE",
"51 114 OFFCURVE",
"51 238 CURVE SMOOTH",
"51 376 OFFCURVE",
"139 499 OFFCURVE",
"275 499 CURVE SMOOTH",
"404 499 OFFCURVE",
"462 409 OFFCURVE",
"462 366 CURVE SMOOTH",
"462 355 OFFCURVE",
"456 346 OFFCURVE",
"440 337 CURVE SMOOTH",
"122 155 LINE",
"159 86 OFFCURVE",
"218 52 OFFCURVE",
"299 52 CURVE SMOOTH",
"342 52 OFFCURVE",
"400 77 OFFCURVE",
"427 108 CURVE SMOOTH",
"431 113 OFFCURVE",
"438 116 OFFCURVE",
"445 116 CURVE SMOOTH",
"460 116 OFFCURVE",
"471 105 OFFCURVE",
"471 90 CURVE SMOOTH"
);
},
{
closed = 1;
nodes = (
"173 446 OFFCURVE",
"102 353 OFFCURVE",
"102 237 CURVE SMOOTH",
"102 226 OFFCURVE",
"102 217 OFFCURVE",
"104 206 CURVE",
"408 373 LINE",
"390 420 OFFCURVE",
"350 446 OFFCURVE",
"275 446 CURVE SMOOTH"
);
},
{
closed = 1;
nodes = (
"430 620 LINE SMOOTH",
"436 615 OFFCURVE",
"439 608 OFFCURVE",
"439 600 CURVE SMOOTH",
"439 586 OFFCURVE",
"427 574 OFFCURVE",
"413 574 CURVE SMOOTH",
"406 574 OFFCURVE",
"399 576 OFFCURVE",
"394 581 CURVE SMOOTH",
"298 668 LINE",
"183 579 LINE SMOOTH",
"178 575 OFFCURVE",
"172 574 OFFCURVE",
"166 574 CURVE SMOOTH",
"152 574 OFFCURVE",
"140 585 OFFCURVE",
"140 600 CURVE SMOOTH",
"140 608 OFFCURVE",
"143 616 OFFCURVE",
"150 621 CURVE SMOOTH",
"281 731 LINE SMOOTH",
"287 736 OFFCURVE",
"294 738 OFFCURVE",
"300 738 CURVE SMOOTH",
"307 738 OFFCURVE",
"314 735 OFFCURVE",
"320 730 CURVE SMOOTH"
);
}
);
userData = {
com.fontlab.hintData = {
hhints = (
{
position = 0;
width = 52;
},
{
position = 446;
width = 53;
}
);
vhints = (
{
position = 51;
width = 51;
}
);
};
};
width = 521;
}
);
unicode = 00EA;
},
{
glyphname = edieresis;
layers = (
{
layerId = master01;
paths = (
{
closed = 1;
nodes = (
"471 83 OFFCURVE",
"468 76 OFFCURVE",
"464 72 CURVE SMOOTH",
"429 32 OFFCURVE",
"361 0 OFFCURVE",
"300 0 CURVE SMOOTH",
"147 0 OFFCURVE",
"51 114 OFFCURVE",
"51 238 CURVE SMOOTH",
"51 376 OFFCURVE",
"139 499 OFFCURVE",
"275 499 CURVE SMOOTH",
"404 499 OFFCURVE",
"462 409 OFFCURVE",
"462 366 CURVE SMOOTH",
"462 355 OFFCURVE",
"456 346 OFFCURVE",
"440 337 CURVE SMOOTH",
"122 155 LINE",
"159 86 OFFCURVE",
"218 52 OFFCURVE",
"299 52 CURVE SMOOTH",
"342 52 OFFCURVE",
"400 77 OFFCURVE",
"427 108 CURVE SMOOTH",
"431 113 OFFCURVE",
"438 116 OFFCURVE",
"445 116 CURVE SMOOTH",
"460 116 OFFCURVE",
"471 105 OFFCURVE",
"471 90 CURVE SMOOTH"
);
},
{
closed = 1;
nodes = (
"173 446 OFFCURVE",
"102 353 OFFCURVE",
"102 237 CURVE SMOOTH",
"102 226 OFFCURVE",
"102 217 OFFCURVE",
"104 206 CURVE",
"408 373 LINE",
"390 420 OFFCURVE",
"350 446 OFFCURVE",
"275 446 CURVE SMOOTH"
);
},
{
closed = 1;
nodes = (
"259 596 OFFCURVE",
"237 576 OFFCURVE",
"208 576 CURVE SMOOTH",
"183 576 OFFCURVE",
"163 592 OFFCURVE",
"163 615 CURVE SMOOTH",
"163 638 OFFCURVE",
"186 659 OFFCURVE",
"214 659 CURVE SMOOTH",
"237 659 OFFCURVE",
"259 642 OFFCURVE",
"259 620 CURVE SMOOTH"
);
},
{
closed = 1;
nodes = (
"418 596 OFFCURVE",
"396 576 OFFCURVE",
"367 576 CURVE SMOOTH",
"342 576 OFFCURVE",
"322 592 OFFCURVE",
"322 615 CURVE SMOOTH",
"322 638 OFFCURVE",
"345 659 OFFCURVE",
"373 659 CURVE SMOOTH",
"396 659 OFFCURVE",
"418 642 OFFCURVE",
"418 620 CURVE SMOOTH"
);
}
);
userData = {
com.fontlab.hintData = {
hhints = (
{
position = 0;
width = 52;
},
{
position = 446;
width = 53;
},
{
position = 576;
width = 83;
}
);
vhints = (
{
position = 51;
width = 51;
},
{
position = 163;
width = 96;
},
{
position = 322;
width = 96;
}
);
};
};
width = 521;
}
);
unicode = 00EB;
},
{
glyphname = egrave;
layers = (
{
layerId = master01;
paths = (
{
closed = 1;
nodes = (
"471 83 OFFCURVE",
"468 76 OFFCURVE",
"464 72 CURVE SMOOTH",
"429 32 OFFCURVE",
"361 0 OFFCURVE",
"300 0 CURVE SMOOTH",
"147 0 OFFCURVE",
"51 114 OFFCURVE",
"51 238 CURVE SMOOTH",
"51 376 OFFCURVE",
"139 499 OFFCURVE",
"275 499 CURVE SMOOTH",
"404 499 OFFCURVE",
"462 409 OFFCURVE",
"462 366 CURVE SMOOTH",
"462 355 OFFCURVE",
"456 346 OFFCURVE",
"440 337 CURVE SMOOTH",
"122 155 LINE",
"159 86 OFFCURVE",
"218 52 OFFCURVE",
"299 52 CURVE SMOOTH",
"342 52 OFFCURVE",
"400 77 OFFCURVE",
"427 108 CURVE SMOOTH",
"431 113 OFFCURVE",
"438 116 OFFCURVE",
"445 116 CURVE SMOOTH",
"460 116 OFFCURVE",
"471 105 OFFCURVE",
"471 90 CURVE SMOOTH"
);
},
{
closed = 1;
nodes = (
"173 446 OFFCURVE",
"102 353 OFFCURVE",
"102 237 CURVE SMOOTH",
"102 226 OFFCURVE",
"102 217 OFFCURVE",
"104 206 CURVE",
"408 373 LINE",
"390 420 OFFCURVE",
"350 446 OFFCURVE",
"275 446 CURVE SMOOTH"
);
},
{
closed = 1;
nodes = (
"197 688 LINE SMOOTH",
"190 695 OFFCURVE",
"186 703 OFFCURVE",
"186 713 CURVE SMOOTH",
"186 731 OFFCURVE",
"203 747 OFFCURVE",
"221 747 CURVE SMOOTH",
"232 747 OFFCURVE",
"243 740 OFFCURVE",
"250 732 CURVE SMOOTH",
"355 602 LINE SMOOTH",
"360 595 OFFCURVE",
"362 590 OFFCURVE",
"362 584 CURVE SMOOTH",
"362 569 OFFCURVE",
"348 558 OFFCURVE",
"334 558 CURVE SMOOTH",
"326 558 OFFCURVE",
"320 562 OFFCURVE",
"315 567 CURVE SMOOTH"
);
}
);
userData = {
com.fontlab.hintData = {
hhints = (
{
position = 0;
width = 52;
},
{
position = 446;
width = 53;
}
);
vhints = (
{
position = 51;
width = 51;
}
);
};
};
width = 521;
}
);
unicode = 00E8;
},
{
glyphname = eogonek;
layers = (
{
layerId = master01;
paths = (
{
closed = 1;
nodes = (
"263 -200 OFFCURVE",
"219 -158 OFFCURVE",
"219 -100 CURVE SMOOTH",
"219 -59 OFFCURVE",
"242 -25 OFFCURVE",
"271 1 CURVE",
"135 14 OFFCURVE",
"51 122 OFFCURVE",
"51 238 CURVE SMOOTH",
"51 376 OFFCURVE",
"139 499 OFFCURVE",
"275 499 CURVE SMOOTH",
"404 499 OFFCURVE",
"462 409 OFFCURVE",
"462 366 CURVE SMOOTH",
"462 355 OFFCURVE",
"456 346 OFFCURVE",
"440 337 CURVE SMOOTH",
"122 155 LINE",
"159 86 OFFCURVE",
"218 52 OFFCURVE",
"299 52 CURVE SMOOTH",
"342 52 OFFCURVE",
"400 77 OFFCURVE",
"427 108 CURVE SMOOTH",
"431 113 OFFCURVE",
"438 116 OFFCURVE",
"445 116 CURVE SMOOTH",
"460 116 OFFCURVE",
"471 105 OFFCURVE",
"471 90 CURVE SMOOTH",
"471 83 OFFCURVE",
"468 76 OFFCURVE",
"464 72 CURVE SMOOTH",
"442 46 OFFCURVE",
"406 29 OFFCURVE",
"370 12 CURVE SMOOTH",
"315 -15 OFFCURVE",
"261 -42 OFFCURVE",
"261 -101 CURVE SMOOTH",
"261 -135 OFFCURVE",
"288 -158 OFFCURVE",
"322 -158 CURVE SMOOTH",
"342 -158 OFFCURVE",
"364 -151 OFFCURVE",
"384 -135 CURVE SMOOTH",
"388 -132 OFFCURVE",
"392 -131 OFFCURVE",
"397 -131 CURVE SMOOTH",
"407 -131 OFFCURVE",
"418 -141 OFFCURVE",
"418 -152 CURVE SMOOTH",
"418 -181 OFFCURVE",
"350 -201 OFFCURVE",
"322 -201 CURVE SMOOTH"
);
},
{
closed = 1;
nodes = (
"173 446 OFFCURVE",
"102 353 OFFCURVE",
"102 237 CURVE SMOOTH",
"102 226 OFFCURVE",
"102 217 OFFCURVE",
"104 206 CURVE",
"408 373 LINE",
"390 420 OFFCURVE",
"350 446 OFFCURVE",
"275 446 CURVE SMOOTH"
);
}
);
userData = {
com.fontlab.hintData = {
hhints = (
{
position = -201;
width = 43;
},
{
position = 446;
width = 53;
}
);
vhints = (
{
position = 51;
width = 51;
},
{
position = 219;
width = 42;
}
);
};
};
width = 521;
}
);
unicode = 0119;
},
{
glyphname = f;
layers = (
{
layerId = master01;
paths = (
{
closed = 1;
nodes = (
"121 501 LINE",
"121 644 OFFCURVE",
"181 691 OFFCURVE",
"322 691 CURVE SMOOTH",
"344 691 OFFCURVE",
"361 686 OFFCURVE",
"361 665 CURVE SMOOTH",
"361 651 OFFCURVE",
"351 638 OFFCURVE",
"334 638 CURVE SMOOTH",
"214 638 OFFCURVE",
"177 622 OFFCURVE",
"177 501 CURVE",
"315 500 LINE SMOOTH",
"326 500 OFFCURVE",
"340 489 OFFCURVE",
"340 475 CURVE SMOOTH",
"340 461 OFFCURVE",
"329 449 OFFCURVE",
"315 449 CURVE SMOOTH",
"177 449 LINE",
"177 26 LINE SMOOTH",
"177 12 OFFCURVE",
"164 0 OFFCURVE",
"149 0 CURVE SMOOTH",
"134 0 OFFCURVE",
"121 12 OFFCURVE",
"121 26 CURVE SMOOTH",
"121 449 LINE",
"46 449 LINE SMOOTH",
"32 449 OFFCURVE",
"20 461 OFFCURVE",
"20 475 CURVE SMOOTH",
"20 489 OFFCURVE",
"32 501 OFFCURVE",
"44 501 CURVE SMOOTH"
);
}
);
userData = {
com.fontlab.hintData = {
hhints = (
{
position = 0;
width = 21;
},
{
position = 449;
width = 52;
},
{
position = 638;
width = 53;
}
);
vhints = (
{
position = 121;
width = 56;
}
);
};
};
width = 371;
}
);
unicode = 0066;
},
{
glyphname = g;
layers = (
{
layerId = master01;
paths = (
{
closed = 1;
nodes = (
"104 -167 OFFCURVE",
"95 -156 OFFCURVE",
"95 -143 CURVE SMOOTH",
"95 -127 OFFCURVE",
"108 -115 OFFCURVE",
"123 -115 CURVE SMOOTH",
"142 -115 OFFCURVE",
"163 -129 OFFCURVE",
"239 -129 CURVE SMOOTH",
"348 -129 OFFCURVE",
"386 -69 OFFCURVE",
"389 23 CURVE SMOOTH",
"391 78 LINE",
"355 29 OFFCURVE",
"306 1 OFFCURVE",
"249 -1 CURVE",
"134 -1 OFFCURVE",
"51 105 OFFCURVE",
"51 241 CURVE SMOOTH",
"51 374 OFFCURVE",
"153 500 OFFCURVE",
"288 500 CURVE SMOOTH",
"335 500 OFFCURVE",
"373 483 OFFCURVE",
"399 468 CURVE",
"399 492 OFFCURVE",
"404 511 OFFCURVE",
"428 511 CURVE SMOOTH",
"443 511 OFFCURVE",
"456 498 OFFCURVE",
"456 482 CURVE SMOOTH",
"445 19 LINE SMOOTH",
"442 -122 OFFCURVE",
"357 -185 OFFCURVE",
"240 -185 CURVE SMOOTH",
"192 -185 OFFCURVE",
"148 -177 OFFCURVE",
"117 -170 CURVE SMOOTH"
);
},
{
closed = 1;
nodes = (
"395 412 LINE",
"373 431 OFFCURVE",
"331 445 OFFCURVE",
"292 445 CURVE SMOOTH",
"187 445 OFFCURVE",
"101 356 OFFCURVE",
"101 237 CURVE SMOOTH",
"101 165 OFFCURVE",
"140 52 OFFCURVE",
"241 52 CURVE SMOOTH",
"310 52 OFFCURVE",
"395 102 OFFCURVE",
"395 267 CURVE SMOOTH"
);
}
);
userData = {
com.fontlab.hintData = {
hhints = (
{
position = -185;
width = 56;
},
{
position = -1;
width = 53;
},
{
position = 445;
width = 55;
}
);
vhints = (
{
position = 51;
width = 50;
},
{
position = 395;
width = 61;
},
{
position = 395;
width = 50;
}
);
};
};
width = 521;
}
);
unicode = 0067;
},
{
glyphname = gcircumflex;
layers = (
{
layerId = master01;
paths = (
{
closed = 1;
nodes = (
"104 -167 OFFCURVE",
"95 -156 OFFCURVE",
"95 -143 CURVE SMOOTH",
"95 -127 OFFCURVE",
"108 -115 OFFCURVE",
"123 -115 CURVE SMOOTH",
"142 -115 OFFCURVE",
"163 -129 OFFCURVE",
"239 -129 CURVE SMOOTH",
"348 -129 OFFCURVE",
"386 -69 OFFCURVE",
"389 23 CURVE SMOOTH",
"391 78 LINE",
"355 29 OFFCURVE",
"306 1 OFFCURVE",
"249 -1 CURVE SMOOTH",
"134 -1 OFFCURVE",
"51 105 OFFCURVE",
"51 241 CURVE SMOOTH",
"51 374 OFFCURVE",
"153 500 OFFCURVE",
"288 500 CURVE SMOOTH",
"335 500 OFFCURVE",
"373 483 OFFCURVE",
"399 468 CURVE",
"399 492 OFFCURVE",
"404 511 OFFCURVE",
"428 511 CURVE SMOOTH",
"443 511 OFFCURVE",
"456 498 OFFCURVE",
"456 482 CURVE SMOOTH",
"445 19 LINE SMOOTH",
"442 -122 OFFCURVE",
"357 -185 OFFCURVE",
"240 -185 CURVE SMOOTH",
"192 -185 OFFCURVE",
"148 -177 OFFCURVE",
"117 -170 CURVE SMOOTH"
);
},
{
closed = 1;
nodes = (
"395 412 LINE",
"373 431 OFFCURVE",
"331 445 OFFCURVE",
"292 445 CURVE SMOOTH",
"187 445 OFFCURVE",
"101 356 OFFCURVE",
"101 237 CURVE SMOOTH",
"101 165 OFFCURVE",
"140 52 OFFCURVE",
"241 52 CURVE SMOOTH",
"310 52 OFFCURVE",
"395 102 OFFCURVE",
"395 267 CURVE SMOOTH"
);
},
{
closed = 1;
nodes = (
"417 620 LINE SMOOTH",
"423 615 OFFCURVE",
"426 608 OFFCURVE",
"426 600 CURVE SMOOTH",
"426 586 OFFCURVE",
"414 574 OFFCURVE",
"400 574 CURVE SMOOTH",
"393 574 OFFCURVE",
"386 576 OFFCURVE",
"381 581 CURVE SMOOTH",
"285 668 LINE",
"170 579 LINE SMOOTH",
"165 575 OFFCURVE",
"159 574 OFFCURVE",
"153 574 CURVE SMOOTH",
"139 574 OFFCURVE",
"127 585 OFFCURVE",
"127 600 CURVE SMOOTH",
"127 608 OFFCURVE",
"130 616 OFFCURVE",
"137 621 CURVE SMOOTH",
"268 731 LINE SMOOTH",
"274 736 OFFCURVE",
"281 738 OFFCURVE",
"287 738 CURVE SMOOTH",
"294 738 OFFCURVE",
"301 735 OFFCURVE",
"307 730 CURVE SMOOTH"
);
}
);
userData = {
com.fontlab.hintData = {
hhints = (
{
position = -185;
width = 56;
},
{
position = -1;
width = 53;
},
{
position = 445;
width = 55;
}
);
vhints = (
{
position = 51;
width = 50;
},
{
position = 395;
width = 61;
},
{
position = 395;
width = 50;
}
);
};
};
width = 521;
}
);
unicode = 011D;
},
{
glyphname = h;
layers = (
{
layerId = master01;
paths = (
{
closed = 1;
nodes = (
"449 12 OFFCURVE",
"438 0 OFFCURVE",
"423 0 CURVE SMOOTH",
"410 0 OFFCURVE",
"396 12 OFFCURVE",
"396 27 CURVE SMOOTH",
"396 42 OFFCURVE",
"398 94 OFFCURVE",
"398 154 CURVE SMOOTH",
"398 415 OFFCURVE",
"352 447 OFFCURVE",
"316 447 CURVE SMOOTH",
"231 447 OFFCURVE",
"152 316 OFFCURVE",
"136 282 CURVE SMOOTH",
"124 257 OFFCURVE",
"121 227 OFFCURVE",
"121 193 CURVE SMOOTH",
"121 29 LINE SMOOTH",
"121 10 OFFCURVE",
"108 -1 OFFCURVE",
"93 -1 CURVE SMOOTH",
"78 -1 OFFCURVE",
"65 12 OFFCURVE",
"65 27 CURVE SMOOTH",
"65 661 LINE SMOOTH",
"65 676 OFFCURVE",
"77 690 OFFCURVE",
"93 690 CURVE SMOOTH",
"110 690 OFFCURVE",
"121 676 OFFCURVE",
"121 661 CURVE SMOOTH",
"121 336 LINE",
"157 416 OFFCURVE",
"238 502 OFFCURVE",
"321 502 CURVE SMOOTH",
"420 502 OFFCURVE",
"453 388 OFFCURVE",
"453 162 CURVE SMOOTH",
"453 96 OFFCURVE",
"453 57 OFFCURVE",
"450 27 CURVE SMOOTH"
);
}
);
userData = {
com.fontlab.hintData = {
hhints = (
{
position = -1;
width = 22;
},
{
position = 447;
width = 55;
},
{
position = 670;
width = 20;
}
);
vhints = (
{
position = 65;
width = 56;
},
{
position = 396;
width = 57;
}
);
};
};
width = 503;
}
);
unicode = 0068;
},
{
glyphname = hcircumflex;
layers = (
{
layerId = master01;
paths = (
{
closed = 1;
nodes = (
"449 12 OFFCURVE",
"438 0 OFFCURVE",
"423 0 CURVE SMOOTH",
"410 0 OFFCURVE",
"396 12 OFFCURVE",
"396 27 CURVE SMOOTH",
"396 42 OFFCURVE",
"398 94 OFFCURVE",
"398 154 CURVE SMOOTH",
"398 415 OFFCURVE",
"352 447 OFFCURVE",
"316 447 CURVE SMOOTH",
"231 447 OFFCURVE",
"152 316 OFFCURVE",
"136 282 CURVE SMOOTH",
"124 257 OFFCURVE",
"121 227 OFFCURVE",
"121 193 CURVE SMOOTH",
"121 29 LINE SMOOTH",
"121 10 OFFCURVE",
"108 -1 OFFCURVE",
"93 -1 CURVE SMOOTH",
"78 -1 OFFCURVE",
"65 12 OFFCURVE",
"65 27 CURVE SMOOTH",
"65 661 LINE SMOOTH",
"65 676 OFFCURVE",
"77 690 OFFCURVE",
"93 690 CURVE SMOOTH",
"110 690 OFFCURVE",
"121 676 OFFCURVE",
"121 661 CURVE SMOOTH",
"121 336 LINE",
"157 416 OFFCURVE",
"238 502 OFFCURVE",
"321 502 CURVE SMOOTH",
"420 502 OFFCURVE",
"453 388 OFFCURVE",
"453 162 CURVE SMOOTH",
"453 96 OFFCURVE",
"453 57 OFFCURVE",
"450 27 CURVE SMOOTH"
);
},
{
closed = 1;
nodes = (
"396 777 LINE SMOOTH",
"402 772 OFFCURVE",
"405 765 OFFCURVE",
"405 757 CURVE SMOOTH",
"405 743 OFFCURVE",
"393 731 OFFCURVE",
"379 731 CURVE SMOOTH",
"372 731 OFFCURVE",
"365 733 OFFCURVE",
"360 738 CURVE SMOOTH",
"264 825 LINE",
"149 736 LINE SMOOTH",
"144 732 OFFCURVE",
"138 731 OFFCURVE",
"132 731 CURVE SMOOTH",
"118 731 OFFCURVE",
"106 742 OFFCURVE",
"106 757 CURVE SMOOTH",
"106 765 OFFCURVE",
"109 773 OFFCURVE",
"116 778 CURVE SMOOTH",
"247 888 LINE SMOOTH",
"253 893 OFFCURVE",
"260 895 OFFCURVE",
"266 895 CURVE SMOOTH",
"273 895 OFFCURVE",
"280 892 OFFCURVE",
"286 887 CURVE SMOOTH"
);
}
);
userData = {
com.fontlab.hintData = {
hhints = (
{
position = -1;
width = 22;
},
{
position = 447;
width = 55;
},
{
position = 670;
width = 20;
}
);
vhints = (
{
position = 65;
width = 56;
},
{
position = 396;
width = 57;
}
);
};
};
width = 503;
}
);
unicode = 0125;
},
{
glyphname = i;
layers = (
{
layerId = master01;
paths = (
{
closed = 1;
nodes = (
"129 467 OFFCURVE",
"123 29 OFFCURVE",
"123 29 CURVE SMOOTH",
"123 13 OFFCURVE",
"110 0 OFFCURVE",
"94 0 CURVE SMOOTH",
"78 0 OFFCURVE",
"65 13 OFFCURVE",
"65 29 CURVE",
"65 29 OFFCURVE",
"71 467 OFFCURVE",
"71 467 CURVE SMOOTH",
"71 483 OFFCURVE",
"84 496 OFFCURVE",
"100 496 CURVE SMOOTH",
"116 496 OFFCURVE",
"129 483 OFFCURVE",
"129 467 CURVE"
);
},
{
closed = 1;
nodes = (
"85 585 OFFCURVE",
"73 598 OFFCURVE",
"73 613 CURVE SMOOTH",
"74 654 LINE SMOOTH",
"74 669 OFFCURVE",
"87 681 OFFCURVE",
"102 681 CURVE SMOOTH",
"117 681 OFFCURVE",
"129 667 OFFCURVE",
"129 653 CURVE SMOOTH",
"128 612 LINE SMOOTH",
"127 596 OFFCURVE",
"115 585 OFFCURVE",
"100 585 CURVE SMOOTH"
);
}
);
userData = {
com.fontlab.hintData = {
hhints = (
{
position = 0;
width = 21;
},
{
position = 585;
width = 96;
}
);
vhints = (
{
position = 71;
width = 58;
}
);
};
};
width = 194;
}
);
unicode = 0069;
},
{
glyphname = iacute;
layers = (
{
layerId = master01;
paths = (
{
closed = 1;
nodes = (
"129 467 OFFCURVE",
"123 29 OFFCURVE",
"123 29 CURVE SMOOTH",
"123 13 OFFCURVE",
"110 0 OFFCURVE",
"94 0 CURVE SMOOTH",
"78 0 OFFCURVE",
"65 13 OFFCURVE",
"65 29 CURVE",
"65 29 OFFCURVE",
"71 467 OFFCURVE",
"71 467 CURVE SMOOTH",
"71 483 OFFCURVE",
"84 496 OFFCURVE",
"100 496 CURVE SMOOTH",
"116 496 OFFCURVE",
"129 483 OFFCURVE",
"129 467 CURVE"
);
},
{
closed = 1;
nodes = (
"52 572 LINE SMOOTH",
"45 567 OFFCURVE",
"37 563 OFFCURVE",
"31 563 CURVE SMOOTH",
"17 563 OFFCURVE",
"5 575 OFFCURVE",
"5 590 CURVE SMOOTH",
"5 596 OFFCURVE",
"6 603 OFFCURVE",
"11 607 CURVE SMOOTH",
"137 710 LINE SMOOTH",
"145 717 OFFCURVE",
"155 725 OFFCURVE",
"166 725 CURVE SMOOTH",
"185 725 OFFCURVE",
"200 709 OFFCURVE",
"200 689 CURVE SMOOTH",
"200 680 OFFCURVE",
"197 671 OFFCURVE",
"190 666 CURVE SMOOTH"
);
}
);
userData = {
com.fontlab.hintData = {
hhints = (
{
position = 0;
width = 21;
}
);
vhints = (
{
position = 65;
width = 58;
}
);
};
};
width = 194;
}
);
unicode = 00ED;
},
{
glyphname = icircumflex;
layers = (
{
layerId = master01;
paths = (
{
closed = 1;
nodes = (
"153 467 OFFCURVE",
"147 29 OFFCURVE",
"147 29 CURVE SMOOTH",
"147 13 OFFCURVE",
"134 0 OFFCURVE",
"118 0 CURVE SMOOTH",
"102 0 OFFCURVE",
"89 13 OFFCURVE",
"89 29 CURVE",
"89 29 OFFCURVE",
"95 467 OFFCURVE",
"95 467 CURVE SMOOTH",
"95 483 OFFCURVE",
"108 496 OFFCURVE",
"124 496 CURVE SMOOTH",
"140 496 OFFCURVE",
"153 483 OFFCURVE",
"153 467 CURVE"
);
},
{
closed = 1;
nodes = (
"266 620 LINE SMOOTH",
"272 615 OFFCURVE",
"275 608 OFFCURVE",
"275 600 CURVE SMOOTH",
"275 586 OFFCURVE",
"263 574 OFFCURVE",
"249 574 CURVE SMOOTH",
"242 574 OFFCURVE",
"235 576 OFFCURVE",
"230 581 CURVE SMOOTH",
"134 668 LINE",
"19 579 LINE SMOOTH",
"14 575 OFFCURVE",
"8 574 OFFCURVE",
"2 574 CURVE SMOOTH",
"-12 574 OFFCURVE",
"-24 585 OFFCURVE",
"-24 600 CURVE SMOOTH",
"-24 608 OFFCURVE",
"-21 616 OFFCURVE",
"-14 621 CURVE SMOOTH",
"117 731 LINE SMOOTH",
"123 736 OFFCURVE",
"130 738 OFFCURVE",
"136 738 CURVE SMOOTH",
"143 738 OFFCURVE",
"150 735 OFFCURVE",
"156 730 CURVE SMOOTH"
);
}
);
userData = {
com.fontlab.hintData = {
hhints = (
{
position = 0;
width = 21;
}
);
vhints = (
{
position = 89;
width = 58;
}
);
};
};
width = 234;
}
);
unicode = 00EE;
},
{
glyphname = idieresis;
layers = (
{
layerId = master01;
paths = (
{
closed = 1;
nodes = (
"158 467 OFFCURVE",
"152 29 OFFCURVE",
"152 29 CURVE SMOOTH",
"152 13 OFFCURVE",
"139 0 OFFCURVE",
"123 0 CURVE SMOOTH",
"107 0 OFFCURVE",
"94 13 OFFCURVE",
"94 29 CURVE",
"94 29 OFFCURVE",
"100 467 OFFCURVE",
"100 467 CURVE SMOOTH",
"100 483 OFFCURVE",
"113 496 OFFCURVE",
"129 496 CURVE SMOOTH",
"145 496 OFFCURVE",
"158 483 OFFCURVE",
"158 467 CURVE"
);
},
{
closed = 1;
nodes = (
"101 596 OFFCURVE",
"79 576 OFFCURVE",
"50 576 CURVE SMOOTH",
"25 576 OFFCURVE",
"5 592 OFFCURVE",
"5 615 CURVE SMOOTH",
"5 638 OFFCURVE",
"28 659 OFFCURVE",
"56 659 CURVE SMOOTH",
"79 659 OFFCURVE",
"101 642 OFFCURVE",
"101 620 CURVE SMOOTH"
);
},
{
closed = 1;
nodes = (
"260 596 OFFCURVE",
"238 576 OFFCURVE",
"209 576 CURVE SMOOTH",
"184 576 OFFCURVE",
"164 592 OFFCURVE",
"164 615 CURVE SMOOTH",
"164 638 OFFCURVE",
"187 659 OFFCURVE",
"215 659 CURVE SMOOTH",
"238 659 OFFCURVE",
"260 642 OFFCURVE",
"260 620 CURVE SMOOTH"
);
}
);
userData = {
com.fontlab.hintData = {
hhints = (
{
position = 0;
width = 21;
},
{
position = 576;
width = 83;
}
);
vhints = (
{
position = 5;
width = 96;
},
{
position = 94;
width = 58;
},
{
position = 164;
width = 96;
}
);
};
};
width = 258;
}
);
unicode = 00EF;
},
{
glyphname = igrave;
layers = (
{
layerId = master01;
paths = (
{
closed = 1;
nodes = (
"129 467 OFFCURVE",
"123 29 OFFCURVE",
"123 29 CURVE SMOOTH",
"123 13 OFFCURVE",
"110 0 OFFCURVE",
"94 0 CURVE SMOOTH",
"78 0 OFFCURVE",
"65 13 OFFCURVE",
"65 29 CURVE",
"65 29 OFFCURVE",
"71 467 OFFCURVE",
"71 467 CURVE SMOOTH",
"71 483 OFFCURVE",
"84 496 OFFCURVE",
"100 496 CURVE SMOOTH",
"116 496 OFFCURVE",
"129 483 OFFCURVE",
"129 467 CURVE"
);
},
{
closed = 1;
nodes = (
"26 688 LINE SMOOTH",
"19 695 OFFCURVE",
"15 703 OFFCURVE",
"15 713 CURVE SMOOTH",
"15 731 OFFCURVE",
"32 747 OFFCURVE",
"50 747 CURVE SMOOTH",
"61 747 OFFCURVE",
"72 740 OFFCURVE",
"79 732 CURVE SMOOTH",
"184 602 LINE SMOOTH",
"189 595 OFFCURVE",
"191 590 OFFCURVE",
"191 584 CURVE SMOOTH",
"191 569 OFFCURVE",
"177 558 OFFCURVE",
"163 558 CURVE SMOOTH",
"155 558 OFFCURVE",
"149 562 OFFCURVE",
"144 567 CURVE SMOOTH"
);
}
);
userData = {
com.fontlab.hintData = {
hhints = (
{
position = 0;
width = 21;
}
);
vhints = (
{
position = 65;
width = 58;
}
);
};
};
width = 194;
}
);
unicode = 00EC;
},
{
glyphname = j;
layers = (
{
layerId = master01;
paths = (
{
closed = 1;
nodes = (
"258 454 OFFCURVE",
"264 28 OFFCURVE",
"264 -2 CURVE SMOOTH",
"264 -66 OFFCURVE",
"244 -181 OFFCURVE",
"144 -181 CURVE SMOOTH",
"47 -181 OFFCURVE",
"-1 -58 OFFCURVE",
"-8 -38 CURVE SMOOTH",
"-9 -35 OFFCURVE",
"-10 -31 OFFCURVE",
"-10 -28 CURVE SMOOTH",
"-10 -14 OFFCURVE",
"2 -1 OFFCURVE",
"19 -1 CURVE SMOOTH",
"31 -1 OFFCURVE",
"42 -9 OFFCURVE",
"46 -21 CURVE SMOOTH",
"63 -66 OFFCURVE",
"97 -130 OFFCURVE",
"144 -130 CURVE SMOOTH",
"206 -130 OFFCURVE",
"209 -28 OFFCURVE",
"209 -7 CURVE SMOOTH",
"209 21 OFFCURVE",
"202 440 OFFCURVE",
"202 473 CURVE SMOOTH",
"202 489 OFFCURVE",
"213 502 OFFCURVE",
"230 502 CURVE SMOOTH",
"245 502 OFFCURVE",
"258 489 OFFCURVE",
"258 474 CURVE SMOOTH"
);
},
{
closed = 1;
nodes = (
"258 690 OFFCURVE",
"269 672 OFFCURVE",
"267 658 CURVE SMOOTH",
"262 615 LINE SMOOTH",
"260 602 OFFCURVE",
"246 593 OFFCURVE",
"233 593 CURVE SMOOTH",
"218 593 OFFCURVE",
"206 608 OFFCURVE",
"207 620 CURVE SMOOTH",
"212 668 LINE SMOOTH",
"213 681 OFFCURVE",
"227 690 OFFCURVE",
"240 690 CURVE SMOOTH"
);
}
);
userData = {
com.fontlab.hintData = {
hhints = (
{
position = -181;
width = 51;
},
{
position = -21;
width = 20;
},
{
position = 482;
width = 20;
},
{
position = 593;
width = 97;
}
);
vhints = (
{
position = -10;
width = 56;
},
{
position = 202;
width = 56;
},
{
position = 209;
width = 55;
}
);
};
};
width = 333;
}
);
unicode = 006A;
},
